<?xml version="1.0" encoding="UTF-8" standalone="no" ?>
<!DOCTYPE svg PUBLIC "-//W3C//DTD SVG 1.1//EN" "http://www.w3.org/Graphics/SVG/1.1/DTD/svg11.dtd">
<svg xmlns="http://www.w3.org/2000/svg" xmlns:xlink="http://www.w3.org/1999/xlink" version="1.1" width="1080" height="1080" viewBox="0 0 1080 1080" xml:space="preserve">
<desc>Created with Fabric.js 5.2.4</desc>
<defs>
</defs>
<rect x="0" y="0" width="100%" height="100%" fill="transparent"></rect>
<g transform="matrix(1 0 0 1 540 540)" id="c78d70cc-58bb-40ca-b5ad-d93c00a5ce41"  >
<rect style="stroke: none; stroke-width: 1; stroke-dasharray: none; stroke-linecap: butt; stroke-dashoffset: 0; stroke-linejoin: miter; stroke-miterlimit: 4; fill: rgb(255,255,255); fill-rule: nonzero; opacity: 1; visibility: hidden;" vector-effect="non-scaling-stroke"  x="-540" y="-540" rx="0" ry="0" width="1080" height="1080" />
</g>
<g transform="matrix(1 0 0 1 540 540)" id="f867faaf-edb8-4baf-b1f6-ff7c6cffe10c"  >
</g>
<g transform="matrix(1 0 0 1 540 540)"  >
<g style="opacity: 0.5;" vector-effect="non-scaling-stroke"   >
		<g transform="matrix(1 0 0 1 -66 -230.14)"  >
<circle style="stroke: none; stroke-width: 1; stroke-dasharray: none; stroke-linecap: butt; stroke-dashoffset: 0; stroke-linejoin: miter; stroke-miterlimit: 4; fill: rgb(253,101,132); fill-rule: nonzero; opacity: 1;" vector-effect="non-scaling-stroke"  cx="0" cy="0" r="26.70075" />
</g>
		<g transform="matrix(1 0 0 1 -38.77 -238.54)"  >
<path style="stroke: none; stroke-width: 1; stroke-dasharray: none; stroke-linecap: butt; stroke-dashoffset: 0; stroke-linejoin: miter; stroke-miterlimit: 4; fill: rgb(230,230,230); fill-rule: nonzero; opacity: 1;" vector-effect="non-scaling-stroke"  transform=" translate(-568.6, -234.36)" d="M 601.11937 230.11183 C 599.5803320054272 225.06570830962468 595.1914607444523 221.41551905139224 589.94937 220.82183 C 589.8894743979696 220.81682445181067 589.8292656020305 220.81682445181067 589.7693700000001 220.82183 C 589.6974807367209 220.79934779833877 589.6239147076831 220.78262824628473 589.5493700000001 220.77183 C 580.60937 219.61183 570.6693700000001 222.43183 563.97937 228.57183 C 561.4958071361095 230.81521178565134 559.5098118393134 233.55404577986062 558.14937 236.61183 C 555.6315608119104 233.17286357407326 551.5793878271519 231.19728893330455 547.3193699999999 231.33183 C 541.7749544702225 231.69837191761536 537.0555593574302 235.5018844195353 535.51937 240.84183 C 535.3500961345924 241.4957816744229 535.6307679068606 242.1832241311377 536.20937 242.53182999999999 C 537.013611795806 243.2197034244946 537.9699266785373 243.70642999563378 538.99937 243.95182999999997 C 541.20937 244.42182999999997 543.43937 244.85182999999998 545.66937 245.24182999999996 Q 552.2093699999999 246.38182999999995 558.8193699999999 247.09182999999996 Q 563.18437 247.55682999999996 567.5693699999999 247.83182999999997 C 573.6093699999999 248.21182999999996 579.67937 248.30182999999997 585.7293699999999 248.11182999999997 C 588.7293699999999 248.01182999999997 591.6093699999999 247.91182999999998 594.3493699999999 246.59182999999996 C 596.3459872746764 245.6098998157869 598.05209799843 244.12437714520544 599.29937 242.28182999999996 C 601.6763131361727 238.6940737836517 602.3427101228232 234.238001625664 601.11937 230.11183 Z" stroke-linecap="round" />
</g>
		<g transform="matrix(1 0 0 1 -94.27 -202.93)"  >
<path style="stroke: none; stroke-width: 1; stroke-dasharray: none; stroke-linecap: butt; stroke-dashoffset: 0; stroke-linejoin: miter; stroke-miterlimit: 4; fill: rgb(230,230,230); fill-rule: nonzero; opacity: 1;" vector-effect="non-scaling-stroke"  transform=" translate(-513.1, -269.97)" d="M 546.18937 269.01185 C 546.1387639105534 267.8930446337175 545.9506840766679 266.7847170411783 545.6293700000001 265.71184999999997 C 544.0831825051462 260.6664731959709 539.6925578192399 257.0180918603655 534.4493700000002 256.42184999999995 C 534.3928137441712 256.41684735504515 534.3359262558291 256.4168473550452 534.2793700000002 256.42184999999995 C 534.2038183235387 256.40041411980263 534.1270023057438 256.3837149854994 534.0493700000002 256.37184999999994 C 529.1014394382781 255.76575214368918 524.0805341515161 256.2818560907968 519.3593700000001 257.88184999999993 C 512.0993700000001 260.31184999999994 505.72937000000013 265.2117999999999 502.65937000000014 272.2117999999999 C 500.13893131103515 268.7705855484165 496.08267997373963 266.79484688966 491.81937000000016 266.93179999999995 C 486.2749443086107 267.29831588708646 481.55553608026304 271.1018389592548 480.01937000000015 276.44179999999994 C 479.8598271632808 277.0950634825963 480.1381998885112 277.7768749400448 480.70937000000015 278.13179999999994 C 481.5148813452649 278.81777173660936 482.4707170294087 279.30425441456066 483.49937000000017 279.55179999999996 C 485.7193700000002 280.0218 487.93937000000017 280.45179999999993 490.1793700000002 280.8418 Q 496.7193700000002 281.98179999999996 503.31937000000016 282.6918 C 512.2584993153566 283.6514304050376 521.2532553235503 283.9922254046869 530.23937 283.71175000000005 C 533.2293700000001 283.61175 536.1193700000001 283.51175 538.8593700000001 282.1918 C 540.8530483462307 281.2095074706047 542.5558311459971 279.7238811817397 543.7993700000002 277.8818 C 545.5523282276862 275.26958484072406 546.3925864208809 272.15115464795116 546.18937 269.01185 Z" stroke-linecap="round" />
</g>
		<g transform="matrix(1 0 0 1 -59.14 -55.85)"  >
<path style="stroke: none; stroke-width: 1; stroke-dasharray: none; stroke-linecap: butt; stroke-dashoffset: 0; stroke-linejoin: miter; stroke-miterlimit: 4; fill: rgb(242,242,242); fill-rule: nonzero; opacity: 1;" vector-effect="non-scaling-stroke"  transform=" translate(-548.22, -417.05)" d="M 743.87618 605.96893 L 719.53618 605.96893 L 719.53618 225.999 C 717.89618 224.789 716.24618 223.589 714.5761799999999 222.41899999999998 Q 714.08125 222.07399999999998 713.5861799999999 221.72899999999998 C 694.335361914247 208.263691177608 673.5109772717011 197.2016813384617 651.5761799999998 188.78899999999993 L 646.8561799999999 253.88899999999998 L 646.8558799999998 253.89299999999997 L 616.48623 253.89299999999997 L 616.48623 177.879 C 614.50623 177.38899999999998 612.5262299999999 176.929 610.5262299999999 176.499 L 610.5262299999999 253.893 L 495.84622999999993 253.893 L 495.84622999999993 174.489 C 493.8562299999999 174.859 491.8662299999999 175.239 489.88622999999995 175.649 L 489.88622999999995 253.893 L 458.5165 253.893 L 458.5162 253.889 L 453.56620000000004 185.61900000000003 C 432.21971302822476 193.01835951400625 411.81914695601245 202.9064917365692 392.78619999999984 215.0790000000002 C 392.1262 215.49900000000002 391.4662 215.91900000000004 390.8062 216.35900000000004 C 389.4762 217.21900000000005 388.14619999999996 218.09900000000005 386.83619999999996 218.98900000000003 L 386.83619999999996 605.969 L 352.5662 605.969 C 343.6631431821776 605.9634749777845 335.3383975375437 610.3790611310891 330.3495733268303 617.7530752497252 C 325.36074911611684 625.1270893683613 324.35903373199847 634.4970070528624 327.67625 642.759 C 328.16640439821697 643.9892425810207 328.75150215124364 645.1794985814635 329.42625 646.319 C 330.2977356640065 647.8051772720878 331.3089810189948 649.2048479952173 332.44624999999996 650.4989999999999 C 337.5285545043567 656.290749797889 344.8607855730164 659.610661578977 352.56624999999997 659.6089999999999 L 743.87625 659.6089999999999 C 758.6885267682796 659.6089996857868 770.6962494310668 647.6012767682796 770.6962494310668 632.789 C 770.6962494310668 617.9767232317203 758.6885267682796 605.9690003142131 743.87625 605.9689999999999 Z M 640.316 344.27123 L 621.38619 605.96893 L 483.9861900000001 605.96893 L 465.0563800000001 344.27123 Z M 646.426 259.85192 L 641.75626 324.40783 L 616.48626 324.40783 L 616.48626 259.85192 Z M 610.5262200000001 259.85192 L 610.5262200000001 324.40783 L 564.89394 324.40783 C 563.0306854675842 320.7519612557121 559.2745926544433 318.4498566778957 555.17129 318.44883 L 549.21224 318.44883 C 545.1089373455567 318.4498566778957 541.3528445324157 320.7519612557121 539.4895899999999 324.40783 L 495.84621 324.40783 L 495.84621 259.85192 Z M 489.8862200000001 324.40783 L 463.6162200000001 324.40783 L 458.9464800000001 259.85192 L 489.8862400000001 259.85192 Z" stroke-linecap="round" />
</g>
		<g transform="matrix(1 0 0 1 -61.34 191.29)"  >
<path style="stroke: none; stroke-width: 1; stroke-dasharray: none; stroke-linecap: butt; stroke-dashoffset: 0; stroke-linejoin: miter; stroke-miterlimit: 4; fill: rgb(63,61,86); fill-rule: nonzero; opacity: 1;" vector-effect="non-scaling-stroke"  transform=" translate(-546.02, -664.19)" d="M 328.11414 649.21557 C 336.8013957409732 659.5090627628441 346.1976342846795 669.1826440516171 356.23414000000014 678.1655700000001 L 735.8140900000001 679.16557 C 745.8505982019582 670.1826466418264 755.2468369204545 660.5090651731041 763.9340900000001 650.21557 Z" stroke-linecap="round" />
</g>
		<g transform="matrix(1 0 0 1 -51.63 129.06)"  >
<path style="stroke: none; stroke-width: 1; stroke-dasharray: none; stroke-linecap: butt; stroke-dashoffset: 0; stroke-linejoin: miter; stroke-miterlimit: 4; fill: rgb(47,46,65); fill-rule: nonzero; opacity: 1;" vector-effect="non-scaling-stroke"  transform=" translate(-555.73, -601.96)" d="M 519.80415 552.40557 L 519.80415 654.9655700000001 L 591.6541500000001 654.9655700000001 L 591.6541500000001 552.4055700000001 C 591.6566547882579 550.8913176740123 590.6709026108605 549.5526418775465 589.2241500000001 549.1055700000002 C 588.8919760473082 548.9958560229303 588.5439534238973 548.9417942561869 588.1941500000001 548.9455700000002 L 523.2741500000002 548.9455700000002 C 522.35503452479 548.9437835172669 521.4729042370828 549.3074250301285 520.8220530749563 549.9564005404908 C 520.1712019128299 550.6053760508531 519.8050160890973 551.4864531966605 519.80415 552.40557 Z M 547.84415 587.64557 C 547.883770659312 583.4377213455929 551.3061148177516 580.0474499113802 555.51415 580.0474499113802 C 559.7221851822485 580.0474499113802 563.1445293406881 583.4377213455929 563.18415 587.64557 L 563.18415 599.54557 C 563.1625970360939 603.7663067933782 559.7349418225411 607.1765035602875 555.51415 607.1765035602875 C 551.2933581774589 607.1765035602875 547.8657029639062 603.7663067933782 547.84415 599.54557 Z" stroke-linecap="round" />
</g>
		<g transform="matrix(1 0 0 1 -51.63 184.7)"  >
<path style="stroke: none; stroke-width: 1; stroke-dasharray: none; stroke-linecap: butt; stroke-dashoffset: 0; stroke-linejoin: miter; stroke-miterlimit: 4; fill: rgb(63,61,86); fill-rule: nonzero; opacity: 1;" vector-effect="non-scaling-stroke"  transform=" translate(-555.73, -657.6)" d="M 519.58417 651.6856 L 519.58417 661.5756 C 519.5875457595195 662.6417371313628 520.4480645512981 663.506714569731 521.5141699999999 663.5156000000001 L 589.94417 663.5156000000001 C 591.0117614597312 663.510255687822 591.8743429908762 662.6432048223187 591.8741699999999 661.5756 L 591.8741699999999 651.6856 Z" stroke-linecap="round" />
</g>
		<g transform="matrix(1 0 0 1 -52.84 18.62)"  >
<path style="stroke: none; stroke-width: 1; stroke-dasharray: none; stroke-linecap: butt; stroke-dashoffset: 0; stroke-linejoin: miter; stroke-miterlimit: 4; fill: rgb(63,61,86); fill-rule: nonzero; opacity: 1;" vector-effect="non-scaling-stroke"  transform=" translate(-554.52, -491.52)" d="M 406.77412 397.88561 L 406.77412 585.14561 C 406.7780573349707 590.114540937133 410.80518906286704 594.1416726650293 415.77412 594.14561 L 693.27412 594.14561 C 698.2430600702389 594.1416946896815 702.2702046896815 590.1145500702389 702.27412 585.14561 L 702.27412 397.88561000000004 C 702.262297055925 392.92157283058043 698.2381672456952 388.9019142756953 693.27412 388.89561000000003 L 415.77412000000004 388.89561000000003 C 410.81008185232406 388.9019362180247 406.78596487627635 392.9215819529879 406.77412 397.88561 Z" stroke-linecap="round" />
</g>
		<g transform="matrix(1 0 0 1 -52.83 18.62)"  >
<path style="stroke: none; stroke-width: 1; stroke-dasharray: none; stroke-linecap: butt; stroke-dashoffset: 0; stroke-linejoin: miter; stroke-miterlimit: 4; fill: rgb(121,156,240); fill-rule: nonzero; opacity: 1;" vector-effect="non-scaling-stroke"  transform=" translate(-554.53, -491.52)" d="M 413.28413 400.21557 L 413.28413 582.83557 C 413.28871533759866 585.4901580178436 415.4395419821564 587.6409846624013 418.09413 587.6455699999999 L 690.9641300000001 587.6455699999999 C 693.6187248522214 587.6410011218993 695.7695611218994 585.4901648522213 695.77413 582.83557 L 695.77413 400.21556999999996 C 695.7738716105118 397.557567108464 693.622126622556 395.40134863820475 690.9641300000001 395.39556999999996 L 418.09413000000006 395.39556999999996 C 415.4361402386317 395.4013651275415 413.284404893039 397.5575739353912 413.28413 400.21557 Z" stroke-linecap="round" />
</g>
		<g transform="matrix(1 0 0 1 -54.95 185.09)"  >
<path style="stroke: none; stroke-width: 1; stroke-dasharray: none; stroke-linecap: butt; stroke-dashoffset: 0; stroke-linejoin: miter; stroke-miterlimit: 4; fill: rgb(47,46,65); fill-rule: nonzero; opacity: 1;" vector-effect="non-scaling-stroke"  transform=" translate(-552.41, -657.99)" d="M 468.92414 665.84557 C 469.486837894425 666.5511347732936 470.34168238723964 666.960133647011 471.24414 666.95557 L 633.58414 666.95557 C 634.483255028543 666.9544473263761 635.3340413791498 666.5484092698088 635.9004327376392 665.8501185538629 C 636.4668240961287 665.1518278379169 636.6885689085319 664.2355672003622 636.50414 663.35557 L 633.98414 651.3855699999999 C 633.7719177305157 650.3937825590152 633.0718018298755 649.5769806749349 632.12414 649.21557 C 631.7864573712448 649.0830876354048 631.4268809614108 649.0152599909272 631.0641400000001 649.01562 L 473.75414000000006 649.01562 C 473.391398618582 649.0152554741356 473.03182137442593 649.0830832759932 472.69414000000006 649.21557 C 471.7464562925136 649.5769495883936 471.0463282026795 650.3937656932002 470.83414000000005 651.3855699999999 L 468.31414000000007 663.35557 C 468.13254196074587 664.2350724404705 468.35658181759004 665.1495957905395 468.92414 665.84557 Z" stroke-linecap="round" />
</g>
		<g transform="matrix(1 0 0 1 -54.95 185.09)"  >
<path style="stroke: none; stroke-width: 1; stroke-dasharray: none; stroke-linecap: butt; stroke-dashoffset: 0; stroke-linejoin: miter; stroke-miterlimit: 4; fill: rgb(255,255,255); fill-rule: nonzero; opacity: 1;" vector-effect="non-scaling-stroke"  transform=" translate(-552.41, -657.99)" d="M 473.75405 651.516 C 473.7047103542246 651.5153616301579 473.6556879028514 651.5239735449186 473.60952000000003 651.54139 C 473.4480637542073 651.5964717736942 473.32500899075995 651.7288784587929 473.28188000000006 651.89393 L 470.76040000000006 663.8704899999999 C 470.73336822800877 664.0108817304676 470.7706322748817 664.1560009031607 470.86196000000007 664.2659999999998 L 470.8731900000001 664.2796699999999 C 470.9612797221995 664.3947055129057 471.09946716638945 664.4601629193024 471.24428000000006 664.4554499999999 L 633.58413 664.4554499999999 C 633.7278286686382 664.4572323273779 633.8643455421088 664.3927545508423 633.95425 664.28064 C 634.0502624068122 664.1722704520628 634.0895468255344 664.0249687061637 634.06025 663.8831799999999 L 631.53779 651.8997899999999 C 631.4999635777322 651.7407460117414 631.3864362987842 651.6104238276433 631.23408 651.5511499999999 C 631.1803637353479 651.5281778454219 631.1225817970396 651.5162249550526 631.0641599999999 651.5159999999998 Z" stroke-linecap="round" />
</g>
		<g transform="matrix(1 0 0 1 -52.83 -53.36)"  >
<path style="stroke: none; stroke-width: 1; stroke-dasharray: none; stroke-linecap: butt; stroke-dashoffset: 0; stroke-linejoin: miter; stroke-miterlimit: 4; fill: rgb(63,61,86); fill-rule: nonzero; opacity: 1;" vector-effect="non-scaling-stroke"  transform=" translate(-554.53, -419.54)" d="M 426.86744 420.5523 L 682.1908 420.5523 C 682.7427841485757 420.540050158958 683.183866968691 420.08907005839706 683.183866968691 419.53695 C 683.183866968691 418.9848299416029 682.7427841485757 418.53384984104196 682.1908 418.5216 L 426.86744 418.5216 C 426.3154558514243 418.53384984104196 425.87437303130906 418.9848299416029 425.87437303130906 419.53695 C 425.87437303130906 420.08907005839706 426.3154558514243 420.540050158958 426.86744 420.5523 Z" stroke-linecap="round" />
</g>
		<g transform="matrix(1 0 0 1 57.45 -65.64)"  >
<ellipse style="stroke: none; stroke-width: 1; stroke-dasharray: none; stroke-linecap: butt; stroke-dashoffset: 0; stroke-linejoin: miter; stroke-miterlimit: 4; fill: rgb(63,61,86); fill-rule: nonzero; opacity: 1;" vector-effect="non-scaling-stroke"  cx="0" cy="0" rx="5.95043" ry="6.08304" />
</g>
		<g transform="matrix(1 0 0 1 36.89 -65.64)"  >
<ellipse style="stroke: none; stroke-width: 1; stroke-dasharray: none; stroke-linecap: butt; stroke-dashoffset: 0; stroke-linejoin: miter; stroke-miterlimit: 4; fill: rgb(63,61,86); fill-rule: nonzero; opacity: 1;" vector-effect="non-scaling-stroke"  cx="0" cy="0" rx="5.95043" ry="6.08304" />
</g>
		<g transform="matrix(1 0 0 1 16.34 -65.64)"  >
<ellipse style="stroke: none; stroke-width: 1; stroke-dasharray: none; stroke-linecap: butt; stroke-dashoffset: 0; stroke-linejoin: miter; stroke-miterlimit: 4; fill: rgb(63,61,86); fill-rule: nonzero; opacity: 1;" vector-effect="non-scaling-stroke"  cx="0" cy="0" rx="5.95043" ry="6.08304" />
</g>
		<g transform="matrix(1 0 0 1 -160.82 -69.12)"  >
<path style="stroke: none; stroke-width: 1; stroke-dasharray: none; stroke-linecap: butt; stroke-dashoffset: 0; stroke-linejoin: miter; stroke-miterlimit: 4; fill: rgb(63,61,86); fill-rule: nonzero; opacity: 1;" vector-effect="non-scaling-stroke"  transform=" translate(-446.54, -403.78)" d="M 438.15555 403.78558 C 438.15416774920317 404.0760089916913 438.2682435589341 404.3550858187528 438.4726703159274 404.561388050581 C 438.6770970729208 404.76769028240915 438.9551204960726 404.88430992889903 439.24555 404.88558 L 453.84555 404.88558 C 454.4457943463277 404.8715921154446 454.9250994660245 404.3809873085937 454.9250994660245 403.78058 C 454.9250994660245 403.1801726914063 454.4457943463277 402.6895678845554 453.84555 402.67558 L 439.24555 402.67558 C 438.63881807383507 402.6829377416089 438.15187594760516 403.1788145857513 438.15555 403.78558 Z" stroke-linecap="round" />
</g>
		<g transform="matrix(1 0 0 1 -160.82 -64.97)"  >
<path style="stroke: none; stroke-width: 1; stroke-dasharray: none; stroke-linecap: butt; stroke-dashoffset: 0; stroke-linejoin: miter; stroke-miterlimit: 4; fill: rgb(63,61,86); fill-rule: nonzero; opacity: 1;" vector-effect="non-scaling-stroke"  transform=" translate(-446.54, -407.93)" d="M 438.15555 407.9356 C 438.15415445959724 408.22603299757805 438.2682259723779 408.50511751653903 438.4726555936979 408.71142263897207 C 438.67708521501794 408.91772776140516 438.9551163689892 409.0343431813682 439.24555 409.03560000000004 L 453.84555 409.03560000000004 C 454.4463077962273 409.0223186664412 454.926391064288 408.53150458772507 454.926391064288 407.9306 C 454.926391064288 407.32969541227504 454.4463077962273 406.8388813335589 453.84555 406.82560000000007 L 439.24555 406.82560000000007 C 438.63881807383507 406.83295774160894 438.15187594760516 407.32883458575134 438.15555 407.9356 Z" stroke-linecap="round" />
</g>
		<g transform="matrix(1 0 0 1 -160.82 -60.82)"  >
<path style="stroke: none; stroke-width: 1; stroke-dasharray: none; stroke-linecap: butt; stroke-dashoffset: 0; stroke-linejoin: miter; stroke-miterlimit: 4; fill: rgb(63,61,86); fill-rule: nonzero; opacity: 1;" vector-effect="non-scaling-stroke"  transform=" translate(-446.54, -412.08)" d="M 438.15555 412.07562 C 438.1518759476051 412.6823854142487 438.63881807383507 413.17826225839116 439.24555 413.18562000000003 L 453.84555 413.18562000000003 C 454.4457943463277 413.17163211544465 454.9250994660245 412.68102730859374 454.9250994660245 412.08062000000007 C 454.9250994660245 411.48021269140634 454.4457943463277 410.9896078845554 453.84555 410.97562000000005 L 439.24555 410.97562000000005 C 438.9551171944278 410.9768794693009 438.6770875867332 411.09349573462566 438.47265853832755 411.29980027888826 C 438.2682294899219 411.50610482315085 438.1541571176938 411.7851878036197 438.15555 412.07562 Z" stroke-linecap="round" />
</g>
		<g transform="matrix(1 0 0 1 -52.83 31.15)"  >
<path style="stroke: none; stroke-width: 1; stroke-dasharray: none; stroke-linecap: butt; stroke-dashoffset: 0; stroke-linejoin: miter; stroke-miterlimit: 4; fill: rgb(63,61,86); fill-rule: nonzero; opacity: 1;" vector-effect="non-scaling-stroke"  transform=" translate(-554.53, -504.05)" d="M 644.14761 451.54632 L 464.9103 451.54632 C 460.0076279363321 451.552017929435 456.03464792943504 455.52499793633206 456.02895 460.42767 L 456.02895 547.66448 C 456.03443845294294 552.5673183263365 460.00746198392454 556.5405610561482 464.9103 556.54632 L 644.14761 556.54632 C 649.0504463922515 556.5405610454129 653.0234670566085 552.5673167086898 653.02895 547.66448 L 653.02895 460.42767 C 653.023257579832 455.52499955393444 649.050280439653 451.5520179403571 644.14761 451.54632 Z M 651.02895 460.42767 L 651.02895 485.87933 L 588.02895 485.87933 L 588.02895 453.54633 L 644.14761 453.54633 C 647.9463204347473 453.55056795381415 651.0247344447549 456.6289595961458 651.029 460.42767 Z M 523.02895 520.21331 L 523.02895 487.87931 L 586.02895 487.87931 L 586.02895 520.21331 Z M 586.02895 522.21331 L 586.02895 554.54631 L 523.02895 554.54631 L 523.02895 522.21331 Z M 521.02895 520.21331 L 458.02895 520.21331 L 458.02895 487.87931 L 521.02895 487.87931 Z M 523.02895 485.87931 L 523.02895 453.54630999999995 L 586.02895 453.54630999999995 L 586.02895 485.8793099999999 Z M 588.02895 487.87931 L 651.02895 487.87931 L 651.02895 520.21331 L 588.02895 520.21331 Z M 464.9103 453.54630999999995 L 521.029 453.54630999999995 L 521.029 485.8793099999999 L 458.029 485.8793099999999 L 458.029 460.42767 C 458.0332599504609 456.62899078232914 461.11162081338244 453.55060755182546 464.9103 453.54632 Z M 458.029 547.66448 L 458.029 522.21331 L 521.029 522.21331 L 521.029 554.54631 L 464.9103 554.54631 C 461.11145875101164 554.5419614539047 458.03305596934166 551.4633215726352 458.029 547.66448 Z M 644.14766 554.54632 L 588.029 554.54632 L 588.029 522.2133200000001 L 651.029 522.2133200000001 L 651.029 547.6644900000001 C 651.024949436435 551.4633689451779 647.9464886784256 554.5420265417233 644.14761 554.54632 Z" stroke-linecap="round" />
</g>
		<g transform="matrix(1 0 0 1 -71.8 19.79)"  >
<path style="stroke: none; stroke-width: 1; stroke-dasharray: none; stroke-linecap: butt; stroke-dashoffset: 0; stroke-linejoin: miter; stroke-miterlimit: 4; fill: rgb(255,255,255); fill-rule: nonzero; opacity: 1;" vector-effect="non-scaling-stroke"  transform=" translate(-535.57, -492.69)" d="M 545.41938 473.69457 C 543.8288 471.06388 541.94403 468.25509999999997 538.99233 467.3961 C 535.57405 466.40134 532.06263 468.37748 529.0841300000001 470.32752 C 520.1767102682945 476.15947315342817 511.5986882177361 482.47965324819893 503.3893700000001 489.2591 L 503.3983700000001 489.36122 L 522.5721700000001 488.03897 C 527.1898700000002 487.72053 531.9661700000001 487.35816 536.0469700000001 485.1737 C 537.5954800000001 484.34478 539.1049700000001 483.23751 540.85967 483.16035 C 543.03974 483.0645 544.9406700000001 484.58706 546.4344600000001 486.17779 C 555.27097 495.58747 557.8280800000001 509.97712 567.7417600000001 518.24423 C 561.4904925815891 502.8275292717468 554.0262945288267 487.9309328773111 545.41938 473.69457 Z" stroke-linecap="round" />
</g>
		<g transform="matrix(1 0 0 1 -66.17 34.4)"  >
<path style="stroke: none; stroke-width: 1; stroke-dasharray: none; stroke-linecap: butt; stroke-dashoffset: 0; stroke-linejoin: miter; stroke-miterlimit: 4; fill: rgb(255,255,255); fill-rule: nonzero; opacity: 1;" vector-effect="non-scaling-stroke"  transform=" translate(-541.19, -507.3)" d="M 599.7361 553.50572 C 598.75892 552.27181 598.35964 551.98283 597.39575 550.7375 Q 585.6231300000001 535.5113799999999 575.2651500000001 519.25666 Q 568.2296100000001 508.21705000000003 561.8918000000001 496.75348 Q 558.8745100000001 491.30356 556.02263 485.76808 Q 553.8096300000001 481.47602 551.6954400000001 477.13262 C 551.29235 476.30562 550.9006800000001 475.47472 550.5109600000001 474.64198 C 549.59265 472.68369 548.69141 470.71591 547.7237000000001 468.78423 C 546.7236255421934 466.46523577515734 545.1924946798964 464.41376335192984 543.2538200000001 462.7953 C 542.332324053194 462.0945067732262 541.230389853403 461.6704858228817 540.0768200000001 461.5728 C 538.4519807541292 461.58203656853783 536.8609589629505 462.03783836092884 535.4777100000001 462.89036999999996 C 525.0065551798855 468.3949939753971 515.2329082391602 475.1348176560017 506.36588000000006 482.96564 C 497.48528196615206 490.76493310730723 489.5474862866073 499.57626129301383 482.71431 509.22 C 482.50525 509.5185 482.01091 509.23331 482.22192 508.93292 Q 483.46823 507.17045 484.76392 505.44603 C 495.50461064542776 491.1612026109194 508.67429993212875 478.8770222253869 523.6709999999999 469.15500000000003 Q 527.45559 466.70239 531.3824800000001 464.47983 C 532.7019300000001 463.73264 534.0271400000001 462.99495 535.3750900000001 462.30291 C 536.6666907944597 461.54560861896573 538.1156668989512 461.0966648595749 539.6091800000002 460.99104 C 544.7463500000001 460.91119 547.4062400000001 466.72904 549.2333100000002 470.64368 Q 550.0945800000002 472.49168000000003 550.9767400000002 474.3283 Q 554.3105600000001 481.30111 557.9010700000002 488.14656 Q 560.1169800000002 492.37303 562.4299000000002 496.55008000000004 Q 569.6279000000002 509.55747 577.7311400000002 522.0382000000001 C 584.8874600000003 533.0597300000001 591.9866900000002 542.7960200000001 600.1392200000003 553.1026800000001 C 600.36357 553.38784 599.96243 553.79471 599.7361 553.50572 Z" stroke-linecap="round" />
</g>
		<g transform="matrix(1 0 0 1 -124.33 7.69)"  >
<path style="stroke: none; stroke-width: 1; stroke-dasharray: none; stroke-linecap: butt; stroke-dashoffset: 0; stroke-linejoin: miter; stroke-miterlimit: 4; fill: rgb(255,255,255); fill-rule: nonzero; opacity: 1;" vector-effect="non-scaling-stroke"  transform=" translate(-483.03, -480.58)" d="M 505.8582 480.09286 C 505.55973 479.76014 505.26313 479.42742 504.96272 479.09470999999996 C 502.59377 476.47477999999995 500.05187 473.88527999999997 496.79877 472.38329 C 495.2476797493992 471.6445161030158 493.5544369748557 471.2520238562378 491.8365 471.23303999999996 C 490.0638599373709 471.28169592680126 488.3161273921132 471.6628496611754 486.68419 472.35668 C 485.90847 472.66659 485.14982 473.01831 484.40269 473.39286 C 483.54899 473.82254 482.71051 474.28075 481.87593 474.74275 Q 479.52592999999996 476.0432 477.23693 477.45775 Q 472.68244 480.27254999999997 468.41321 483.51703 Q 466.20009 485.19964 464.07831 486.99251 Q 462.10483 488.65799999999996 460.21121 490.41285999999997 C 459.94121 490.66191999999995 459.53821 490.25885999999997 459.80812 490.00978999999995 C 460.14083999999997 489.6998899999999 460.47736 489.39188999999993 460.81388999999996 489.08768999999995 Q 462.23981999999995 487.79862999999995 463.71142999999995 486.55902 Q 466.39493999999996 484.29463 469.2174299999999 482.20516999999995 Q 473.6064899999999 478.95403999999996 478.2977399999999 476.14399999999995 Q 480.6420399999999 474.74087999999995 483.05085999999994 473.4556299999999 C 483.53572999999994 473.1970599999999 484.02626999999995 472.94418999999994 484.52246999999994 472.70462999999995 C 485.6483954055412 472.13671203515054 486.81827929482273 471.6605023954599 488.02074999999996 471.28063 C 489.72410938521176 470.72961428529385 491.5263007546207 470.55258676020696 493.30431999999996 470.76162999999997 C 495.0210645347469 471.01135088163693 496.6750817051292 471.58354541894477 498.17914999999994 472.44804 C 501.37319999999994 474.23331 503.8504899999999 476.99392 506.26129999999995 479.68799 C 506.5047 479.96167 506.10347 480.36664 505.8582 480.09286 Z" stroke-linecap="round" />
</g>
		<g transform="matrix(1 0 0 1 -7.5 51.66)"  >
<path style="stroke: none; stroke-width: 1; stroke-dasharray: none; stroke-linecap: butt; stroke-dashoffset: 0; stroke-linejoin: miter; stroke-miterlimit: 4; fill: rgb(255,255,255); fill-rule: nonzero; opacity: 1;" vector-effect="non-scaling-stroke"  transform=" translate(-599.86, -524.55)" d="M 571.30359 507.2422 L 578.95739 504.44278 L 582.7575300000001 503.05287000000004 C 583.98528730056 502.55854781547697 585.2374958100413 502.12726911857544 586.50926 501.76072000000005 C 587.6211124582517 501.4431301913941 588.8016408633156 501.45817282197885 589.90504 501.80399000000006 C 590.8890465818674 502.1682083220746 591.7897740179925 502.72656390800034 592.55367 503.44586000000004 C 593.3340741545429 504.1645223137267 594.0602020236352 504.93997498943736 594.7261 505.76586000000003 C 595.55346 506.76016000000004 596.3686 507.76486000000006 597.1873899999999 508.76624000000004 Q 602.2563899999999 514.96546 607.2590899999999 521.21847 Q 612.26168 527.47137 617.1973699999999 533.77742 Q 622.1451399999999 540.09888 627.0248399999998 546.4732 Q 627.6226199999998 547.25409 628.2193699999998 548.03574 C 628.4391599999998 548.32362 628.9347699999998 548.03981 628.7118699999997 547.7478600000001 Q 623.7961599999998 541.3094400000001 618.8119299999997 534.92372 Q 613.8154299999998 528.52272 608.7499299999997 522.17606 Q 603.6844899999998 515.82951 598.5505899999997 509.538 Q 597.2715899999997 507.97059 595.9883499999997 506.40664000000004 C 595.2667099999998 505.52714000000003 594.5532099999997 504.63815000000005 593.7616999999998 503.81955000000005 C 592.4006434282585 502.17950968152076 590.4431400234358 501.1481924728077 588.3208499999998 500.95302000000004 C 587.0481397560557 500.99757392530677 585.79414695609 501.27325411505103 584.6200999999999 501.76660000000004 C 583.3405499999999 502.22950000000003 582.0640999999998 502.70106000000004 580.7860999999999 503.16846000000004 L 573.07877 505.98746000000006 L 571.15194 506.69221000000005 C 570.81 506.81727000000006 570.95771 507.36871 571.3035699999999 507.24221000000006 Z" stroke-linecap="round" />
</g>
		<g transform="matrix(1 0 0 1 -113.92 4.95)"  >
<path style="stroke: none; stroke-width: 1; stroke-dasharray: none; stroke-linecap: butt; stroke-dashoffset: 0; stroke-linejoin: miter; stroke-miterlimit: 4; fill: rgb(255,255,255); fill-rule: nonzero; opacity: 1;" vector-effect="non-scaling-stroke"  transform=" translate(-493.44, -477.85)" d="M 495.79155 475.68 C 491.7871070356444 473.706877590696 487.02975412881176 474.0471062894257 483.34684999999996 476.57 C 490.1643088096769 477.7461820358167 496.90717283082716 479.3199336850369 503.54092999999995 481.28319999999997 C 500.7862 479.66878 498.63134 477.13947 495.79155 475.68 Z" stroke-linecap="round" />
</g>
		<g transform="matrix(1 0 0 1 -124.41 3.97)"  >
<path style="stroke: none; stroke-width: 1; stroke-dasharray: none; stroke-linecap: butt; stroke-dashoffset: 0; stroke-linejoin: miter; stroke-miterlimit: 4; fill: rgb(255,255,255); fill-rule: nonzero; opacity: 1;" vector-effect="non-scaling-stroke"  transform=" translate(-482.95, -476.87)" d="M 483.30857 476.563 L 482.55978999999996 477.17163 C 482.81307 476.95862999999997 483.07636999999994 476.75888 483.34684999999996 476.56988 Z" stroke-linecap="round" />
</g>
		<g transform="matrix(1 0 0 1 -2.95 50.31)"  >
<path style="stroke: none; stroke-width: 1; stroke-dasharray: none; stroke-linecap: butt; stroke-dashoffset: 0; stroke-linejoin: miter; stroke-miterlimit: 4; fill: rgb(255,255,255); fill-rule: nonzero; opacity: 1;" vector-effect="non-scaling-stroke"  transform=" translate(-604.41, -523.21)" d="M 592.26547 507.27016 C 591.595594347389 506.2826169178945 590.6618337642606 505.5030578731848 589.57055 505.02027999999996 L 588.51842 505.06176999999997 C 596.5275347149209 519.2141192527805 607.3444283554195 531.5803727964121 620.30516 541.40149 Z" stroke-linecap="round" />
</g>
		<g transform="matrix(1 0 0 1 -20.02 12.82)"  >
<circle style="stroke: none; stroke-width: 1; stroke-dasharray: none; stroke-linecap: butt; stroke-dashoffset: 0; stroke-linejoin: miter; stroke-miterlimit: 4; fill: rgb(255,255,255); fill-rule: nonzero; opacity: 1;" vector-effect="non-scaling-stroke"  cx="0" cy="0" r="6.0589" />
</g>
		<g transform="matrix(1 0 0 1 67.91 29.15)"  >
<path style="stroke: none; stroke-width: 1; stroke-dasharray: none; stroke-linecap: butt; stroke-dashoffset: 0; stroke-linejoin: miter; stroke-miterlimit: 4; fill: rgb(63,61,86); fill-rule: nonzero; opacity: 1;" vector-effect="non-scaling-stroke"  transform=" translate(-675.27, -502.05)" d="M 675.26821 553.04632 C 677.7519454496501 553.0425917650734 679.7644817650734 551.0300554496501 679.76821 548.54632 L 679.76821 455.54632000000004 C 679.76821 453.06103862576146 677.7534913742385 451.04632000000004 675.26821 451.04632000000004 C 672.7829286257614 451.04632000000004 670.76821 453.06103862576146 670.76821 455.54632000000004 L 670.76821 548.54632 C 670.7719382349266 551.0300554496501 672.7844745503498 553.0425917650734 675.26821 553.04632 Z" stroke-linecap="round" />
</g>
		<g transform="matrix(1 0 0 1 67.91 66.9)"  >
<path style="stroke: none; stroke-width: 1; stroke-dasharray: none; stroke-linecap: butt; stroke-dashoffset: 0; stroke-linejoin: miter; stroke-miterlimit: 4; fill: rgb(47,46,65); fill-rule: nonzero; opacity: 1;" vector-effect="non-scaling-stroke"  transform=" translate(-675.27, -539.8)" d="M 675.26821 553.04632 C 677.7519454496501 553.0425917650734 679.7644817650734 551.0300554496501 679.76821 548.54632 L 679.76821 528.82632 C 678.7169075521882 527.3930396558674 677.0457165067819 526.5462927333571 675.26821 526.5462927333571 C 673.490703493218 526.5462927333571 671.8195124478117 527.3930396558674 670.76821 528.82632 L 670.76821 548.54632 C 670.7719382349266 551.0300554496501 672.7844745503498 553.0425917650734 675.26821 553.04632 Z" stroke-linecap="round" />
</g>
		<g transform="matrix(1 0 0 1 67.91 46.9)"  >
<path style="stroke: none; stroke-width: 1; stroke-dasharray: none; stroke-linecap: butt; stroke-dashoffset: 0; stroke-linejoin: miter; stroke-miterlimit: 4; fill: rgb(121,156,240); fill-rule: nonzero; opacity: 1;" vector-effect="non-scaling-stroke"  transform=" translate(-675.27, -519.8)" d="M 675.26821 534.04632 C 677.939395937869 534.042310906896 680.1038209068959 531.8778859378691 680.1078299999999 529.2067000000001 L 680.1078299999999 507.99842 C 678.977183418941 506.45697017627697 677.179866153788 505.5463197173957 675.26821 505.5463197173957 C 673.3565538462118 505.5463197173957 671.5592365810588 506.45697017627697 670.4285899999999 507.99842 L 670.4285899999999 529.2067 C 670.4325990931038 531.877885937869 672.5970240621309 534.0423109068961 675.26821 534.04632 Z" stroke-linecap="round" />
</g>
		<g transform="matrix(1 0 0 1 67.91 46.9)"  >
<path style="stroke: none; stroke-width: 1; stroke-dasharray: none; stroke-linecap: butt; stroke-dashoffset: 0; stroke-linejoin: miter; stroke-miterlimit: 4; fill: rgb(63,61,86); fill-rule: nonzero; opacity: 1;" vector-effect="non-scaling-stroke"  transform=" translate(-675.27, -519.8)" d="M 675.26821 530.19 C 677.216525597972 530.1870757993775 678.7952202799681 528.6083855896802 678.79815 526.66007 L 678.79815 511.19114 C 677.9734741068413 510.0668326609072 676.6625404204868 509.40261987540555 675.26821 509.40261987540555 C 673.8738795795131 509.40261987540555 672.5629458931586 510.0668326609072 671.7382699999999 511.19114 L 671.7382699999999 526.66009 C 671.7412107305277 528.6083977791889 673.3199021958889 530.1870758276807 675.26821 530.19 Z" stroke-linecap="round" />
</g>
		<g transform="matrix(1 0 0 1 -48.59 159.65)"  >
<path style="stroke: none; stroke-width: 1; stroke-dasharray: none; stroke-linecap: butt; stroke-dashoffset: 0; stroke-linejoin: miter; stroke-miterlimit: 4; fill: rgb(121,156,240); fill-rule: nonzero; opacity: 1;" vector-effect="non-scaling-stroke"  transform=" translate(-558.77, -632.55)" d="M 536.44482 657.52463 C 534.7999078554037 656.0514192280117 534.6580904360701 653.5246533466346 536.12782 651.87663 L 575.44364 607.885 C 576.9157550006739 606.2378107336297 579.4444507336297 606.095884999326 581.09164 607.568 C 582.7388292663703 609.040115000674 582.880755000674 611.5688107336297 581.40864 613.216 L 542.09281 657.20766 C 540.6195915882373 658.8525566663736 538.0928339334101 658.9943604538893 536.44482 657.52463 Z" stroke-linecap="round" />
</g>
		<g transform="matrix(1 0 0 1 209.58 173.24)"  >
<path style="stroke: none; stroke-width: 1; stroke-dasharray: none; stroke-linecap: butt; stroke-dashoffset: 0; stroke-linejoin: miter; stroke-miterlimit: 4; fill: rgb(230,230,230); fill-rule: nonzero; opacity: 1;" vector-effect="non-scaling-stroke"  transform=" translate(-816.94, -646.14)" d="M 862.596 729.9553 C 862.596 737.2452999999999 860.876 742.8253 861.086 747.2853 C 849.2913009987111 752.4335016331918 837.1639814373327 756.7833005502482 824.7860000000001 760.3053 C 823.3860000000001 760.7053 821.9860000000001 761.0853 820.576 761.4653 C 812.946 738.1052999999999 805.306 716.7153 802.296 714.4453 C 795.4060000000001 709.2753 791.956 730.6653 791.956 725.49535 C 791.956 720.3253500000001 795.4060000000001 720.3253500000001 786.796 713.4353500000001 C 778.176 706.5453500000001 783.346 675.5353500000001 783.346 675.5353500000001 L 771.2860000000001 644.5253500000001 L 784.7760000000001 595.0653500000001 L 802.296 530.8153500000001 L 819.5260000000001 530.8153500000001 C 819.5260000000001 530.8153500000001 820.0360000000001 531.1853500000001 820.8860000000001 531.87535 C 825.196 535.39535 838.196 547.15535 836.7560000000001 560.10535 C 836.3260000000001 563.9653500000001 837.2860000000001 575.1853500000001 838.9560000000001 590.12535 C 844.0360000000002 635.23535 855.7060000000001 684.27535 855.7060000000001 697.2153500000001 C 855.706 714.44529 862.596 719.61534 862.596 729.9553 Z" stroke-linecap="round" />
</g>
		<g transform="matrix(1 0 0 1 146.94 139.85)"  >
<path style="stroke: none; stroke-width: 1; stroke-dasharray: none; stroke-linecap: butt; stroke-dashoffset: 0; stroke-linejoin: miter; stroke-miterlimit: 4; fill: rgb(63,61,86); fill-rule: nonzero; opacity: 1;" vector-effect="non-scaling-stroke"  transform=" translate(-754.3, -612.75)" d="M 848.14822 589.95629 C 848.12822 589.90629 848.1182200000001 589.8662899999999 848.09829 589.8263499999999 C 847.7120193306974 588.7858833019089 847.2611073040015 587.7705714278584 846.74819 586.78635 C 843.83828 581.3163499999999 846.91819 572.91635 843.63819 563.63635 C 838.33826 548.59635 831.87819 539.72635 822.40819 531.77635 C 822.12819 531.53635 821.84825 531.30635 821.55819 531.0663499999999 L 821.54819 531.05635 C 815.22812 525.8663499999999 807.60825 521.01635 798.14819 514.9763499999999 C 796.17809 513.7163499999999 794.11819 512.4063499999999 791.97814 511.0263499999999 C 789.2181400000001 509.25634999999994 789.36814 503.3563499999999 789.5281900000001 497.1163499999999 C 789.7081200000001 490.1863499999999 789.8981900000001 483.0063499999999 786.4981900000001 478.5263499999999 L 786.2781900000001 478.2363499999999 L 785.9280900000001 478.1463499999999 C 774.270712392098 475.84060786987084 762.381194364072 474.92422002324355 750.50817 475.4163499999999 L 750.4981700000001 475.4163499999999 C 745.4569079754315 475.60357838348193 740.4509006924199 476.3378856407695 735.5682400000001 477.6063499999999 C 735.2081300000001 477.70634999999993 734.84824 477.8063499999999 734.4981700000001 477.9263499999999 C 734.2281700000001 477.9963499999999 733.9581700000001 478.0863499999999 733.68811 478.1763499999999 L 733.46811 478.2563499999999 L 733.29819 478.4163499999999 C 730.00819 481.70634999999993 729.24819 487.6063499999999 728.88819 493.7563499999999 L 728.88819 493.7663499999999 Q 728.78327 495.4464399999999 728.70813 497.1263999999999 C 728.42813 503.1063999999999 728.1682099999999 508.75639999999987 725.96813 511.2063499999999 C 721.0610346822475 516.765721303492 715.1298302985967 521.3287085339595 708.49813 524.6463499999999 C 698.1681299999999 529.7463499999999 689.99813 529.5863499999999 689.8781299999999 529.5863499999999 L 688.92805 529.55635 L 688.83821 530.49635 C 681.9781 543.56635 682.23811 577.28635 682.02815 613.39635 Q 682.01315 616.41135 681.98815 619.4563499999999 C 681.86815 636.27635 681.54821 653.38641 680.28815 668.9763499999999 C 679.73815 675.67635 679.02815 682.0863499999999 678.0781499999999 688.0763499999999 C 673.4580299999999 717.2463499999999 652.52815 693.0262999999999 642.5180899999999 712.43635 C 642.8470214555347 714.3450100447188 643.4008800537624 716.2079889660305 644.1680899999999 717.9863499999999 C 645.3180899999999 718.6663499999999 646.4980899999999 719.3263499999999 647.6680899999999 719.9863499999999 Q 655.45319 724.3213499999999 663.5280899999999 728.0763499999999 C 663.8280899999999 728.2162999999999 664.1280899999999 728.3563499999999 664.4279899999999 728.4863499999999 C 674.3022726766565 733.0550279408753 684.4797622556748 736.9375650216323 694.88808 740.1063499999999 C 696.9180799999999 740.7263499999999 698.94801 741.3163499999999 700.99808 741.8763499999999 C 719.1317286860935 746.8821534486907 737.8036877546056 749.6790636767545 756.6081899999999 750.2062999999999 C 756.6845429091575 750.197776996607 756.7613854826579 750.1944360151505 756.8381899999999 750.1963 C 779.077235829206 749.5813959970299 801.1705848830597 746.396912521355 822.6780299999999 740.7062999999999 Q 823.1280999999999 740.58638 823.57818 740.4662999999999 C 824.9880899999999 740.0862999999999 826.38812 739.7062999999999 827.78818 739.3063 C 840.1661678035588 735.7842696609515 852.2935019439152 731.4344715061985 864.08823 726.2863 C 864.10031543443 726.7254996848928 864.143718943365 727.1632776083987 864.21811 727.5962999999999 C 864.2282906455486 727.7375314932636 864.2483598423677 727.8778755269642 864.27817 728.0162999999999 C 864.29817 727.8562999999999 864.31817 727.6962999999998 864.32817 727.5362999999999 C 864.38811 727.0662999999998 864.43803 726.5862999999998 864.48808 726.1062999999999 C 870.6083 666.42632 857.89822 615.75634 848.14822 589.95629 Z" stroke-linecap="round" />
</g>
		<g transform="matrix(1 0 0 1 152.47 -56.07)"  >
<path style="stroke: none; stroke-width: 1; stroke-dasharray: none; stroke-linecap: butt; stroke-dashoffset: 0; stroke-linejoin: miter; stroke-miterlimit: 4; fill: rgb(255,182,182); fill-rule: nonzero; opacity: 1;" vector-effect="non-scaling-stroke"  transform=" translate(-759.84, -416.83)" d="M 710.7141 443.689 C 723.2861286328265 466.6780382234366 750.1217532805107 477.87169054615913 775.30341425168 470.63043836740405 C 800.4850752228492 463.389186188649 817.2755089768021 439.6504006909133 815.7154641440853 413.49475039306844 C 814.1554193113685 387.33910009522367 794.6622803204896 365.76443590697585 768.7984090517156 361.5677770721976 C 742.9345377829416 357.3711182374193 717.6197207078643 371.6752658530154 707.86945 395.99571000000003 C 707.61323 396.63640000000004 707.38251 397.2771 707.15195 397.94345000000004 C 701.7389222848119 412.99920598035004 703.0357061368542 429.65265699807657 710.7141 443.689 Z" stroke-linecap="round" />
</g>
		<g transform="matrix(1 0 0 1 122 -98.55)"  >
<path style="stroke: none; stroke-width: 1; stroke-dasharray: none; stroke-linecap: butt; stroke-dashoffset: 0; stroke-linejoin: miter; stroke-miterlimit: 4; fill: rgb(47,46,65); fill-rule: nonzero; opacity: 1;" vector-effect="non-scaling-stroke"  transform=" translate(-729.36, -374.34)" d="M 702.66709 397.94348 C 705.07609 391.20335 704.0252800000001 394.71435 706.45995 387.99988 C 704.87088 393.94555 707.38251 397.27713 707.15195 397.94348 L 773.80988 397.94348 L 773.80988 359.19426 C 754.28135 351.45461 735.18877 344.86825999999996 723.65626 359.19426 C 702.2560208335192 359.19515462811216 684.907916719115 376.54324083445414 684.907 397.94348 Z" stroke-linecap="round" />
</g>
		<g transform="matrix(1 0 0 1 164.45 -46.73)"  >
<path style="stroke: none; stroke-width: 1; stroke-dasharray: none; stroke-linecap: butt; stroke-dashoffset: 0; stroke-linejoin: miter; stroke-miterlimit: 4; fill: rgb(47,46,65); fill-rule: nonzero; opacity: 1;" vector-effect="non-scaling-stroke"  transform=" translate(-771.81, -426.17)" d="M 726.29584 505.657 C 726.3471499999999 504.9395 726.42395 504.19619 726.52656 503.4787 C 727.24406 498.19938 729.03804 493.12497 730.85767 488.10202 C 732.77975 482.69459 734.72749 477.26135 736.67507 471.85393 C 734.1669681549803 481.6696804435692 734.9318688265645 492.03588824649415 738.85353 501.3772 C 750.10417 492.61254 743.00506 472.57158000000004 757.71553 472.57158000000004 C 793.0818599999999 472.57158000000004 829.47336 443.89407000000006 829.47336 408.50209000000007 C 829.47336 373.13560000000007 814.30175 346.6878500000001 778.9354199999999 346.6878500000001 C 743.5432799999999 346.6878500000001 714.84012 362.88448000000005 714.1482699999999 398.25097000000005 C 757.71555 408.50212 718.06942 502.06923 726.29584 505.657 Z" stroke-linecap="round" />
</g>
		<g transform="matrix(1 0 0 1 217.69 -110.82)"  >
<circle style="stroke: none; stroke-width: 1; stroke-dasharray: none; stroke-linecap: butt; stroke-dashoffset: 0; stroke-linejoin: miter; stroke-miterlimit: 4; fill: rgb(47,46,65); fill-rule: nonzero; opacity: 1;" vector-effect="non-scaling-stroke"  cx="0" cy="0" r="41.00448" />
</g>
		<g transform="matrix(1 0 0 1 153.01 207.64)"  >
<path style="stroke: none; stroke-width: 1; stroke-dasharray: none; stroke-linecap: butt; stroke-dashoffset: 0; stroke-linejoin: miter; stroke-miterlimit: 4; fill: rgb(47,46,65); fill-rule: nonzero; opacity: 1;" vector-effect="non-scaling-stroke"  transform=" translate(-760.37, -680.54)" d="M 888.97817 597.23632 Q 888.76834 600.4013199999999 888.6083 603.97632 C 886.4881799999999 648.86632 888.3183 709.2963199999999 874.02822 742.08632 Q 869.22829 744.71132 864.32822 747.10632 Q 864.13302 747.19632 863.96811 747.2863199999999 C 863.0882300000001 747.7163199999999 862.20811 748.13632 861.32822 748.5363199999999 C 861.2961445800561 748.5638409232266 861.2586244080686 748.5842860264801 861.21811 748.5963199999999 C 851.5547028299795 753.1623273923414 841.5956683866683 757.0744564490407 831.40818 760.3063199999999 C 830.15818 760.7063199999999 828.89818 761.0863199999999 827.63818 761.4663199999999 Q 827.2331800000001 761.5863199999999 826.82824 761.7063199999999 C 807.6352402167017 767.382270283183 787.7931754973833 770.5716536535476 767.7882400000001 771.1963199999999 C 766.7482400000001 771.2263199999999 765.7281800000001 771.2463199999999 764.7382400000001 771.26632 C 764.3882400000001 771.2763199999999 764.0483000000002 771.2863199999999 763.7082400000002 771.2863199999999 C 762.5883700000002 771.2963199999999 761.4782400000001 771.3063199999999 760.3583900000002 771.3063199999999 Q 756.9683900000002 771.3063199999999 753.6083900000002 771.2063199999999 C 734.803887754606 770.6790836767544 716.1319286860938 767.8821734486907 697.9982800000002 762.8763699999998 C 695.9482300000002 762.3163699999999 693.9182800000002 761.7263699999999 691.8882800000002 761.1063699999999 C 681.4799622556751 757.9375850216322 671.3024726766566 754.0550479408753 661.4281900000001 749.4863699999999 C 661.1282700000002 749.3563699999999 660.8283400000003 749.2163699999999 660.5282900000002 749.0763699999999 Q 652.4582900000001 745.3263699999999 644.6682900000002 740.9863699999999 C 643.4982900000002 740.3263699999999 642.3182900000002 739.6663699999998 641.1682900000002 738.9863699999999 C 640.4010800537627 737.2080089660304 639.847221455535 735.3450300447188 639.5182900000002 733.4363699999999 C 637.2482900000002 722.5263699999999 635.4282000000002 729.8863699999999 634.1282900000002 707.1863699999999 C 632.9382200000002 686.37637 632.1782100000003 665.50637 631.8982900000002 653.5763699999999 C 631.8082900000002 650.3963199999998 631.7782900000002 647.8463699999999 631.7682900000002 646.1063699999999 C 632.8283500000002 638.5263699999998 649.8682900000002 629.9263699999999 674.7182900000003 621.7563699999998 C 677.0683900000002 620.9863699999999 679.4982900000002 620.2163699999999 681.9882900000002 619.4563199999998 C 688.7082900000003 617.3863799999998 695.8882900000002 615.3563199999998 703.3882900000002 613.3963199999998 C 722.4882900000002 608.3963199999998 743.6982200000002 603.8063199999998 764.7482900000002 600.0163199999998 C 775.1382900000002 598.1563199999998 785.4882900000002 596.4863199999999 795.5382900000002 595.0663199999998 C 813.1682900000002 592.5663199999998 829.8483500000002 590.8363199999998 844.1182900000002 590.1263199999997 C 845.4882900000002 590.0563199999997 846.8283700000002 589.9963199999997 848.1482900000002 589.9562699999998 C 849.5682900000002 589.8962699999998 850.9582200000002 589.8562699999998 852.3182900000002 589.8263299999998 C 872.8782 589.37634 886.91823 591.51629 888.97817 597.23632 Z" stroke-linecap="round" />
</g>
		<g transform="matrix(1 0 0 1 153.01 175.58)"  >
<path style="stroke: none; stroke-width: 1; stroke-dasharray: none; stroke-linecap: butt; stroke-dashoffset: 0; stroke-linejoin: miter; stroke-miterlimit: 4; fill: rgb(0,0,0); fill-rule: nonzero; opacity: 0.2;" vector-effect="non-scaling-stroke"  transform=" translate(-760.37, -648.48)" d="M 888.97817 597.23632 Q 888.76834 600.4013199999999 888.6083 603.97632 C 873.02822 587.19632 705.18813 662.1563199999999 634.1282 707.18632 C 632.93813 686.3763200000001 632.17812 665.5063200000001 631.8982 653.57632 C 631.8081999999999 650.39627 631.7782 647.84632 631.7682 646.10632 C 632.82826 638.5263199999999 649.8682 629.92632 674.7182 621.75632 C 677.0683 620.98632 679.4982 620.21632 681.9882 619.4562699999999 C 688.7082 617.3863299999999 695.8882 615.3562699999999 703.3882 613.39627 C 722.4882 608.39627 743.69813 603.8062699999999 764.7482 600.01627 C 775.1382 598.15627 785.4882 596.48627 795.5382 595.0662699999999 C 813.1682 592.5662699999999 829.84826 590.8362699999999 844.1182 590.1262699999999 C 845.4882 590.0562699999998 846.82828 589.9962699999999 848.1482 589.9562199999999 C 849.5681999999999 589.89622 850.95813 589.8562199999999 852.3181999999999 589.8262799999999 C 872.8782 589.37634 886.91823 591.51629 888.97817 597.23632 Z" stroke-linecap="round" />
</g>
		<g transform="matrix(1 0 0 1 -19.88 174.23)"  >
<path style="stroke: none; stroke-width: 1; stroke-dasharray: none; stroke-linecap: butt; stroke-dashoffset: 0; stroke-linejoin: miter; stroke-miterlimit: 4; fill: rgb(255,182,182); fill-rule: nonzero; opacity: 1;" vector-effect="non-scaling-stroke"  transform=" translate(-587.48, -647.13)" d="M 547.647 649.249 C 550.8330342212358 653.2658601358959 555.6346483904141 655.6651941200419 560.7598245116143 655.801389336239 C 565.8850006328144 655.9375845524363 570.8072668050208 653.7966506610975 574.2021400000001 649.9546700000001 L 631.1504500000001 673.3436 L 625.0051700000001 641.9473800000001 L 571.8681700000002 624.55023 C 564.8825085164766 619.1563545906544 554.9665573390973 619.8398643657544 548.7870519120335 626.1412190590578 C 542.6075464849696 632.4425737523612 542.1177652249667 642.3699796412214 547.647 649.249 Z" stroke-linecap="round" />
</g>
		<g transform="matrix(1 0 0 1 68.48 131.28)"  >
<path style="stroke: none; stroke-width: 1; stroke-dasharray: none; stroke-linecap: butt; stroke-dashoffset: 0; stroke-linejoin: miter; stroke-miterlimit: 4; fill: rgb(63,61,86); fill-rule: nonzero; opacity: 1;" vector-effect="non-scaling-stroke"  transform=" translate(-675.85, -604.18)" d="M 737.08152 518.50858 L 736.76924 518.4756600000001 L 703.5603199999999 520.88666 C 695.0314084651196 521.5055040041036 687.1790575665536 525.757588479087 681.9996 532.5618900000001 C 680.8094225664747 534.120276657296 679.7791641044238 535.794529157469 678.92441 537.5593200000001 L 678.9159099999999 537.5644800000001 C 676.0532245732315 543.4223069148959 675.1903975489332 550.0572515608 676.45967 556.4524100000001 L 692.09416 635.1549200000001 L 654.4759 631.73724 L 640.74397 634.08424 L 624.5391 627.54636 L 591.2876699999999 628.1121700000001 L 590.51695 630.6606700000001 L 583.54157 653.78407 L 582.9939899999999 655.6009700000001 L 633.76947 687.59747 L 648.4901 683.1194700000001 L 655.42516 688.4464700000001 L 655.75793 688.4552600000001 L 669.51 688.727 L 728.15789 689.87688 L 744.1890999999999 661.47574 L 746.6938499999999 657.02274 C 765.3123099999999 615.31369 769.9064499999998 586.1966199999999 768.4489499999999 566.13754 C 767.6851599999999 555.5387999999999 765.2347299999999 547.4822399999999 762.2683199999999 541.41054 C 753.0957 522.648 737.72706 518.667 737.08152 518.50858 Z" stroke-linecap="round" />
</g>
		<g transform="matrix(1 0 0 1 192.41 -118.83)"  >
<path style="stroke: none; stroke-width: 1; stroke-dasharray: none; stroke-linecap: butt; stroke-dashoffset: 0; stroke-linejoin: miter; stroke-miterlimit: 4; fill: rgb(121,156,240); fill-rule: nonzero; opacity: 1;" vector-effect="non-scaling-stroke"  transform=" translate(-799.77, -354.07)" d="M 830.24026 398.48144 C 814.4359763150944 394.928699500012 801.5448651365657 383.54290566347254 796.06692 368.29858 C 793.66103 361.32067 792.7531299999999 353.6585 788.71492 347.44836000000004 C 794.8667106740817 339.00034314348835 799.7999025251461 329.7291811092258 803.36958 319.90722000000005 C 804.7512300000001 316.10479000000004 807.98701 309.20208 802.50148 307.11035000000004 C 798.13112 305.44384 793.16609 309.46600000000007 790.57557 312.63976 C 788.607362914203 315.04472468607753 787.1958770330073 317.85552534612026 786.4423899999999 320.87048000000004 Q 785.1021499999999 314.95288000000005 783.7619699999999 309.03521000000006 C 783.5259085130684 308.2488634624189 782.7130483081253 307.78732415617674 781.9168199999999 307.9875400000001 C 774.5951699999999 309.23577000000006 769.2849899999999 316.0153700000001 768.36268 323.15618000000006 C 767.8593475567716 326.8324964228918 768.6956191464508 330.56718382555965 770.71868 333.6777900000001 C 773.0706799999999 337.2560400000001 776.5150699999999 339.8213400000001 779.7926799999999 342.4878500000001 C 783.2782199999999 345.3236000000001 786.2328699999999 348.3438500000001 788.1067699999999 352.4906600000001 C 790.0543399999999 356.8006600000001 790.9314199999999 361.51733000000013 792.2233499999999 366.0430200000001 C 797.2193088035214 383.7499283471509 811.4999620688053 397.30610917620544 829.4427699999999 401.3742600000001 C 831.32461 401.78552 832.1285 398.8941 830.24026 398.48144 Z M 788.8933900000001 326.76592000000005 C 788.6577522372999 322.99744057367326 789.6535506537587 319.25448896151306 791.73067 316.10131000000007 C 792.7702192472933 314.5024901234568 794.0729984279006 313.0912443456148 795.58376 311.9274200000001 C 797.0162 310.8331200000001 799.12905 309.3839000000001 801.0240699999999 309.7858800000001 C 803.48177 310.3072400000001 802.49313 313.0507100000001 801.9710699999999 314.70513000000005 Q 800.9378999999999 317.97924000000006 799.6992799999999 321.1837100000001 C 798.0908971917569 325.3323672223881 796.2239952689329 329.3761056705461 794.1095599999999 333.29113000000007 C 793.0115599999999 335.32891000000006 791.8383799999999 337.32360000000006 790.6130999999999 339.28558000000004 Q 789.3461799999999 333.69158000000004 788.07922 328.09758000000005 C 788.6270565759853 327.8967857590079 788.9643784444819 327.3450606409094 788.89339 326.76592 Z M 771.3736200000001 327.36292000000003 C 770.3615076541244 320.33388563123856 774.4798028248867 313.5753844416608 781.1906200000001 311.25232000000005 Q 784.76228 327.0226400000001 788.3339400000001 342.79309000000006 C 787.8425400000001 343.51783000000006 787.33558 344.2317500000001 786.8274000000001 344.9450100000001 C 786.6944000000001 344.7918700000001 786.5727000000002 344.63355000000007 786.4342800000002 344.48291000000006 C 781.43978 339.0476 772.73092 335.34246 771.37362 327.36291 Z" stroke-linecap="round" />
</g>
</g>
</g>
</svg>