<?xml version="1.0" encoding="UTF-8" standalone="no" ?>
<!DOCTYPE svg PUBLIC "-//W3C//DTD SVG 1.1//EN" "http://www.w3.org/Graphics/SVG/1.1/DTD/svg11.dtd">
<svg xmlns="http://www.w3.org/2000/svg" xmlns:xlink="http://www.w3.org/1999/xlink" version="1.1" width="1080" height="1080" viewBox="0 0 1080 1080" xml:space="preserve">
<desc>Created with Fabric.js 5.2.4</desc>
<defs>
</defs>
<g transform="matrix(1 0 0 1 540 540)" id="bbf4e4f4-23bf-4fbf-afa5-635f462f8138"  >
<rect style="stroke: none; stroke-width: 1; stroke-dasharray: none; stroke-linecap: butt; stroke-dashoffset: 0; stroke-linejoin: miter; stroke-miterlimit: 4; fill: rgb(255,255,255); fill-rule: nonzero; opacity: 1; visibility: hidden;" vector-effect="non-scaling-stroke"  x="-540" y="-540" rx="0" ry="0" width="1080" height="1080" />
</g>
<g transform="matrix(1 0 0 1 540 540)" id="f2b20c9d-ec66-4f83-a793-771e947740ca"  >
</g>
<g transform="matrix(1 0 0 1 540 540)"  >
<g style="opacity: 0.5;" vector-effect="non-scaling-stroke"   >
		<g transform="matrix(1 0 0 1 0 292.43)"  >
<path style="stroke: none; stroke-width: 1; stroke-dasharray: none; stroke-linecap: butt; stroke-dashoffset: 0; stroke-linejoin: miter; stroke-miterlimit: 4; fill: rgb(63,60,87); fill-rule: nonzero; opacity: 1;" vector-effect="non-scaling-stroke"  transform=" translate(-346.34, -590.9)" d="M 0 590.90472 C 0 591.77612 0.69976 592.47583 1.57114 592.47583 L 691.10937 592.47583 C 691.98071 592.47583 692.68041 591.77612 692.68041 590.90472 C 692.68041 590.03338 691.9806400000001 589.33361 691.10937 589.33361 L 1.57114 589.33361 C 0.69975 589.33361 0 590.03338 0 590.90472 Z" stroke-linecap="round" />
</g>
		<g transform="matrix(1 0 0 1 -134.69 -194.11)"  >
<polygon style="stroke: none; stroke-width: 1; stroke-dasharray: none; stroke-linecap: butt; stroke-dashoffset: 0; stroke-linejoin: miter; stroke-miterlimit: 4; fill: rgb(253,180,180); fill-rule: nonzero; opacity: 1;" vector-effect="non-scaling-stroke"  points="13.32,-40.92 20.82,-6.7 4.87,40.92 -20.82,-10.25 -17.26,-39.94 13.32,-40.92 " />
</g>
		<g transform="matrix(1 0 0 1 -134.66 -175.79)"  >
<rect style="stroke: none; stroke-width: 1; stroke-dasharray: none; stroke-linecap: butt; stroke-dashoffset: 0; stroke-linejoin: miter; stroke-miterlimit: 4; fill: rgb(121,156,240); fill-rule: nonzero; opacity: 1;" vector-effect="non-scaling-stroke"  x="-22.184115" y="-26.804045" rx="0" ry="0" width="44.36823" height="53.60809" />
</g>
		<g transform="matrix(1 0 0 1 -130.72 -248.1)"  >
<circle style="stroke: none; stroke-width: 1; stroke-dasharray: none; stroke-linecap: butt; stroke-dashoffset: 0; stroke-linejoin: miter; stroke-miterlimit: 4; fill: rgb(253,180,180); fill-rule: nonzero; opacity: 1;" vector-effect="non-scaling-stroke"  cx="0" cy="0" r="30.30031" />
</g>
		<g transform="matrix(1 0 0 1 -132.64 -260.78)"  >
<path style="stroke: none; stroke-width: 1; stroke-dasharray: none; stroke-linecap: butt; stroke-dashoffset: 0; stroke-linejoin: miter; stroke-miterlimit: 4; fill: rgb(46,46,65); fill-rule: nonzero; opacity: 1;" vector-effect="non-scaling-stroke"  transform=" translate(-213.7, -37.7)" d="M 189.24777 72.90763 C 189.24777 72.90763 166.66186 31.19518 187.02574 11.122079999999997 C 207.38962 -8.951020000000003 223.73677 4.2758999999999965 223.73677 4.2758999999999965 L 233.07156 3.8986399999999963 C 233.07156 3.8986399999999963 235.01847 11.244989999999996 238.15776 7.268099999999997 C 241.29704999999998 3.2912099999999977 246.96992 17.77453 246.96992 17.77453 C 257.49884 36.73662 220.99893 40.984489999999994 220.99893 40.984489999999994 C 220.99893 40.984489999999994 223.6346 49.380289999999995 220.95564 51.138569999999994 C 218.27667999999997 52.89684999999999 211.11894999999998 59.51116 211.11894999999998 59.51116 L 204.71229999999997 64.34984 L 200.90499999999997 58.54895 C 200.90499999999997 58.54895 196.92811999999998 55.40965 194.91888999999998 56.728359999999995 C 192.90965999999997 58.04706999999999 195.67341 75.39797999999999 195.67341 75.39797999999999 L 189.24774 72.90764999999999 L 189.24776 72.90762999999998 C 189.24776 72.90762999999998 189.24778 72.90762999999998 189.24778 72.90762999999998 Z" stroke-linecap="round" />
</g>
		<g transform="matrix(1 0 0 1 -171.96 168.19)"  >
<polygon style="stroke: none; stroke-width: 1; stroke-dasharray: none; stroke-linecap: butt; stroke-dashoffset: 0; stroke-linejoin: miter; stroke-miterlimit: 4; fill: rgb(46,46,65); fill-rule: nonzero; opacity: 1;" vector-effect="non-scaling-stroke"  points="-21.48,-86.88 -33.06,85.92 -4.59,86.88 33.06,-85.44 -21.48,-86.88 " />
</g>
		<g transform="matrix(1 0 0 1 -102.94 167.22)"  >
<polygon style="stroke: none; stroke-width: 1; stroke-dasharray: none; stroke-linecap: butt; stroke-dashoffset: 0; stroke-linejoin: miter; stroke-miterlimit: 4; fill: rgb(46,46,65); fill-rule: nonzero; opacity: 1;" vector-effect="non-scaling-stroke"  points="-21.48,-86.88 -33.06,85.92 -4.59,86.88 33.06,-85.44 -21.48,-86.88 " />
</g>
		<g transform="matrix(1 0 0 1 -137.58 -46.43)"  >
<path style="stroke: none; stroke-width: 1; stroke-dasharray: none; stroke-linecap: butt; stroke-dashoffset: 0; stroke-linejoin: miter; stroke-miterlimit: 4; fill: rgb(232,233,234); fill-rule: nonzero; opacity: 1;" vector-effect="non-scaling-stroke"  transform=" translate(-208.76, -252.05)" d="M 145.92245 419.25979 L 161.08309 231.05227000000002 L 137.83357999999998 133.04836 C 135.82918999999998 118.48 145.00838 104.69533 159.17538 100.93654000000001 L 181.92538 94.90090000000001 L 191.99472 84.83108000000001 L 214.89804 135.4092 L 229.20224000000002 84.86965000000001 L 240.358 92.98293000000001 L 273.44443 107.58010000000002 L 273.42929000000004 107.92190000000002 L 268.12216000000006 226.31008000000003 L 279.96884000000006 417.58402 L 279.44345000000004 417.59086 L 145.92245000000005 419.25981 L 145.92245000000005 419.25978000000003 Z" stroke-linecap="round" />
</g>
		<g transform="matrix(1 0 0 1 -109.64 274.65)"  >
<path style="stroke: none; stroke-width: 1; stroke-dasharray: none; stroke-linecap: butt; stroke-dashoffset: 0; stroke-linejoin: miter; stroke-miterlimit: 4; fill: rgb(46,46,65); fill-rule: nonzero; opacity: 1;" vector-effect="non-scaling-stroke"  transform=" translate(-236.7, -573.12)" d="M 236.98882 550.61914 L 245.23491 575.23627 C 245.23491 575.23627 277.49576 579.62244 277.99771 589.60981 C 278.49965999999995 599.5971800000001 234.15355999999997 593.8159300000001 208.18633999999997 595.12104 C 182.21911999999998 596.4261499999999 203.83480999999998 568.30567 203.83480999999998 568.30567 L 206.60195999999996 552.14643 L 236.98881999999998 550.61921 L 236.98881999999998 550.61921 L 236.98881999999998 550.61915 Z" stroke-linecap="round" />
</g>
		<g transform="matrix(1 0 0 1 -176.98 272.87)"  >
<path style="stroke: none; stroke-width: 1; stroke-dasharray: none; stroke-linecap: butt; stroke-dashoffset: 0; stroke-linejoin: miter; stroke-miterlimit: 4; fill: rgb(46,46,65); fill-rule: nonzero; opacity: 1;" vector-effect="non-scaling-stroke"  transform=" translate(-169.36, -571.35)" d="M 169.64642 548.84698 L 177.89251000000002 573.46411 C 177.89251000000002 573.46411 210.15334000000001 577.85028 210.65533000000002 587.83765 C 211.15732000000003 597.8250200000001 166.81118000000004 592.0437700000001 140.84396000000004 593.34888 C 114.87674000000004 594.6539899999999 136.49243000000004 566.53345 136.49243000000004 566.53345 L 139.25958000000003 550.3742100000001 L 169.64644000000004 548.84699 L 169.64642000000003 548.84699 Z" stroke-linecap="round" />
</g>
		<g transform="matrix(1 0 0 1 -204.78 -2.02)" id="uuid-2a99fb06-c611-4846-a9cf-67468c4aeefc-395"  >
<path style="stroke: none; stroke-width: 1; stroke-dasharray: none; stroke-linecap: butt; stroke-dashoffset: 0; stroke-linejoin: miter; stroke-miterlimit: 4; fill: rgb(253,180,180); fill-rule: nonzero; opacity: 1;" vector-effect="non-scaling-stroke"  transform=" translate(-141.56, -296.45)" d="M 129.41473 319.30487 C 129.06502999999998 314.45123 129.88311 309.58438 131.80043999999998 305.11172 L 125.64608999999999 254.62577 L 149.75439 252.39991999999998 L 153.40087 303.85166999999996 C 155.82365 308.07014999999996 157.20096 312.80747999999994 157.41759 317.66739999999993 C 158.12663999999998 329.82388999999995 152.43262 340.04004999999995 144.69895 340.4913699999999 C 136.96528 340.94268999999986 130.12183 331.4571899999999 129.41469 319.3049099999999 L 129.41474 319.3049099999999 L 129.41470999999999 319.3048799999999 L 129.41473 319.30484999999993 Z" stroke-linecap="round" />
</g>
		<g transform="matrix(1 0 0 1 -51.73 5.58)" id="uuid-a83e19fb-8297-4073-aac4-48fd1880d45d-396"  >
<path style="stroke: none; stroke-width: 1; stroke-dasharray: none; stroke-linecap: butt; stroke-dashoffset: 0; stroke-linejoin: miter; stroke-miterlimit: 4; fill: rgb(253,180,180); fill-rule: nonzero; opacity: 1;" vector-effect="non-scaling-stroke"  transform=" translate(-294.61, -304.06)" d="M 282.1105 326.71539 C 281.81375 321.85821 282.68484 317.00058 284.65081 312.5491 L 279.04722999999996 261.99905 L 303.17835999999994 260.03616 L 306.26368999999994 311.52459 C 308.6403399999999 315.76921999999996 309.96592999999996 320.52128999999996 310.12956999999994 325.38329 C 310.70604999999995 337.54679999999996 304.9009899999999 347.70025 297.16285999999997 348.06725 C 289.42473 348.43425 282.68510999999995 338.87468 282.11048999999997 326.71544 L 282.11051999999995 326.71544 L 282.11048999999997 326.71541 L 282.11048999999997 326.71538000000004 Z" stroke-linecap="round" />
</g>
		<g transform="matrix(1 0 0 1 -207.47 -96.3)"  >
<path style="stroke: none; stroke-width: 1; stroke-dasharray: none; stroke-linecap: butt; stroke-dashoffset: 0; stroke-linejoin: miter; stroke-miterlimit: 4; fill: rgb(232,233,234); fill-rule: nonzero; opacity: 1;" vector-effect="non-scaling-stroke"  transform=" translate(-138.87, -202.18)" d="M 125.54696 299.05813 L 125.46542 298.62258 L 112.90097 231.20803 L 127.74716000000001 121.43069000000001 C 129.07187000000002 111.62991000000001 137.82332 104.56985000000002 147.69198 105.35891000000001 C 152.84579 105.77151 157.46981 108.21584000000001 160.71346 112.24270000000001 C 163.95662 116.26956000000001 165.35994 121.30862000000002 164.66463 126.43215000000001 L 153.49079999999998 208.76369 L 160.52595999999997 296.82520999999997 C 160.52595999999997 296.82520999999997 125.54695999999997 299.05812 125.54695999999997 299.05812 Z" stroke-linecap="round" />
</g>
		<g transform="matrix(1 0 0 1 -67.1 -96.98)"  >
<path style="stroke: none; stroke-width: 1; stroke-dasharray: none; stroke-linecap: butt; stroke-dashoffset: 0; stroke-linejoin: miter; stroke-miterlimit: 4; fill: rgb(232,233,234); fill-rule: nonzero; opacity: 1;" vector-effect="non-scaling-stroke"  transform=" translate(-279.24, -201.49)" d="M 274.66464 297.4761 L 249.40341 128.85500999999996 C 248.09042 123.91066999999997 248.85898 118.73635999999996 251.5787 114.33938999999997 C 254.29842 109.94241999999997 258.58456 106.94436999999996 263.64804 105.89700999999997 C 273.33504999999997 103.89358999999996 282.90047999999996 109.81497999999996 285.42879999999997 119.37552999999997 L 309.69687 295.35846 L 274.66463999999996 297.47614 L 274.66463999999996 297.47611 Z" stroke-linecap="round" />
</g>
		<g transform="matrix(1 0 0 1 -130.7 -150.75)"  >
<circle style="stroke: none; stroke-width: 1; stroke-dasharray: none; stroke-linecap: butt; stroke-dashoffset: 0; stroke-linejoin: miter; stroke-miterlimit: 4; fill: rgb(214,215,216); fill-rule: nonzero; opacity: 1;" vector-effect="non-scaling-stroke"  cx="0" cy="0" r="3.10129" />
</g>
		<g transform="matrix(1 0 0 1 -130.7 -127.27)"  >
<circle style="stroke: none; stroke-width: 1; stroke-dasharray: none; stroke-linecap: butt; stroke-dashoffset: 0; stroke-linejoin: miter; stroke-miterlimit: 4; fill: rgb(214,215,216); fill-rule: nonzero; opacity: 1;" vector-effect="non-scaling-stroke"  cx="0" cy="0" r="3.10129" />
</g>
		<g transform="matrix(1 0 0 1 -130.7 -103.79)"  >
<circle style="stroke: none; stroke-width: 1; stroke-dasharray: none; stroke-linecap: butt; stroke-dashoffset: 0; stroke-linejoin: miter; stroke-miterlimit: 4; fill: rgb(214,215,216); fill-rule: nonzero; opacity: 1;" vector-effect="non-scaling-stroke"  cx="0" cy="0" r="3.10129" />
</g>
		<g transform="matrix(1 0 0 1 -130.7 -80.31)"  >
<circle style="stroke: none; stroke-width: 1; stroke-dasharray: none; stroke-linecap: butt; stroke-dashoffset: 0; stroke-linejoin: miter; stroke-miterlimit: 4; fill: rgb(214,215,216); fill-rule: nonzero; opacity: 1;" vector-effect="non-scaling-stroke"  cx="0" cy="0" r="3.10129" />
</g>
		<g transform="matrix(1 0 0 1 -130.7 -56.83)"  >
<circle style="stroke: none; stroke-width: 1; stroke-dasharray: none; stroke-linecap: butt; stroke-dashoffset: 0; stroke-linejoin: miter; stroke-miterlimit: 4; fill: rgb(214,215,216); fill-rule: nonzero; opacity: 1;" vector-effect="non-scaling-stroke"  cx="0" cy="0" r="3.10129" />
</g>
		<g transform="matrix(1 0 0 1 -130.7 -33.35)"  >
<circle style="stroke: none; stroke-width: 1; stroke-dasharray: none; stroke-linecap: butt; stroke-dashoffset: 0; stroke-linejoin: miter; stroke-miterlimit: 4; fill: rgb(214,215,216); fill-rule: nonzero; opacity: 1;" vector-effect="non-scaling-stroke"  cx="0" cy="0" r="3.10129" />
</g>
		<g transform="matrix(1 0 0 1 -130.7 -9.87)"  >
<circle style="stroke: none; stroke-width: 1; stroke-dasharray: none; stroke-linecap: butt; stroke-dashoffset: 0; stroke-linejoin: miter; stroke-miterlimit: 4; fill: rgb(214,215,216); fill-rule: nonzero; opacity: 1;" vector-effect="non-scaling-stroke"  cx="0" cy="0" r="3.10129" />
</g>
		<g transform="matrix(1 0 0 1 -130.7 13.61)"  >
<circle style="stroke: none; stroke-width: 1; stroke-dasharray: none; stroke-linecap: butt; stroke-dashoffset: 0; stroke-linejoin: miter; stroke-miterlimit: 4; fill: rgb(214,215,216); fill-rule: nonzero; opacity: 1;" vector-effect="non-scaling-stroke"  cx="0" cy="0" r="3.10129" />
</g>
		<g transform="matrix(1 0 0 1 -184.53 -24.26)"  >
<polygon style="stroke: none; stroke-width: 1; stroke-dasharray: none; stroke-linecap: butt; stroke-dashoffset: 0; stroke-linejoin: miter; stroke-miterlimit: 4; fill: rgb(121,156,240); fill-rule: nonzero; opacity: 1;" vector-effect="non-scaling-stroke"  points="53.83,59.15 -4.85,51.33 -5.98,51.17 -35.97,-17.98 -53.83,-59.15 -7.31,-59.15 53.83,59.15 " />
</g>
		<g transform="matrix(1 0 0 1 120.31 -218.75)"  >
<polygon style="stroke: none; stroke-width: 1; stroke-dasharray: none; stroke-linecap: butt; stroke-dashoffset: 0; stroke-linejoin: miter; stroke-miterlimit: 4; fill: rgb(46,46,65); fill-rule: nonzero; opacity: 1;" vector-effect="non-scaling-stroke"  points="-15.73,-8.76 21.57,-29.2 21.57,29.2 -21.57,29.2 -15.73,-8.76 " />
</g>
		<g transform="matrix(1 0 0 1 133.22 -175.93)"  >
<polygon style="stroke: none; stroke-width: 1; stroke-dasharray: none; stroke-linecap: butt; stroke-dashoffset: 0; stroke-linejoin: miter; stroke-miterlimit: 4; fill: rgb(253,180,180); fill-rule: nonzero; opacity: 1;" vector-effect="non-scaling-stroke"  points="16.67,-38.57 20.11,-9.9 -4.71,39.52 -20.11,-6.47 -12.87,-39.52 16.67,-38.57 " />
</g>
		<g transform="matrix(1 0 0 1 133.19 -158.23)"  >
<rect style="stroke: none; stroke-width: 1; stroke-dasharray: none; stroke-linecap: butt; stroke-dashoffset: 0; stroke-linejoin: miter; stroke-miterlimit: 4; fill: rgb(121,156,240); fill-rule: nonzero; opacity: 1;" vector-effect="non-scaling-stroke"  x="-21.422895" y="-25.884295" rx="0" ry="0" width="42.84579" height="51.76859" />
</g>
		<g transform="matrix(1 0 0 1 169.21 173.94)"  >
<polygon style="stroke: none; stroke-width: 1; stroke-dasharray: none; stroke-linecap: butt; stroke-dashoffset: 0; stroke-linejoin: miter; stroke-miterlimit: 4; fill: rgb(46,46,65); fill-rule: nonzero; opacity: 1;" vector-effect="non-scaling-stroke"  points="20.74,-83.9 31.93,82.97 4.43,83.9 -31.93,-82.5 20.74,-83.9 " />
</g>
		<g transform="matrix(1 0 0 1 102.56 173.01)"  >
<polygon style="stroke: none; stroke-width: 1; stroke-dasharray: none; stroke-linecap: butt; stroke-dashoffset: 0; stroke-linejoin: miter; stroke-miterlimit: 4; fill: rgb(46,46,65); fill-rule: nonzero; opacity: 1;" vector-effect="non-scaling-stroke"  points="20.74,-83.9 31.93,82.97 4.43,83.9 -31.93,-82.5 20.74,-83.9 " />
</g>
		<g transform="matrix(1 0 0 1 131.09 -34.69)"  >
<path style="stroke: none; stroke-width: 1; stroke-dasharray: none; stroke-linecap: butt; stroke-dashoffset: 0; stroke-linejoin: miter; stroke-miterlimit: 4; fill: rgb(232,233,234); fill-rule: nonzero; opacity: 1;" vector-effect="non-scaling-stroke"  transform=" translate(-477.43, -263.78)" d="M 565.35211 423.90725 L 564.6968400000001 423.90529999999995 L 389.49860000000007 423.33302999999995 L 389.6558300000001 422.71290999999997 L 434.6988000000001 244.25147999999996 L 423.4156000000001 154.18848999999994 C 421.2779000000001 137.12256999999994 430.4136500000001 120.99170999999996 446.1490000000001 114.04981999999995 L 451.8296600000001 111.54395999999996 L 462.6216500000001 103.69581999999996 L 476.4273100000001 152.47949999999994 L 498.5357100000001 103.65771999999996 L 508.2749700000001 113.39550999999996 L 530.2388400000001 119.22314999999996 C 543.9292700000001 122.85498999999996 552.7984100000001 136.17480999999995 550.8697000000001 150.20605999999995 L 550.84626 150.30371999999994 L 517.3042700000001 246.01318999999995 L 565.3521200000001 423.9072299999999 Z" stroke-linecap="round" />
</g>
		<g transform="matrix(1 0 0 1 109.03 276.75)"  >
<path style="stroke: none; stroke-width: 1; stroke-dasharray: none; stroke-linecap: butt; stroke-dashoffset: 0; stroke-linejoin: miter; stroke-miterlimit: 4; fill: rgb(46,46,65); fill-rule: nonzero; opacity: 1;" vector-effect="non-scaling-stroke"  transform=" translate(-455.37, -575.22)" d="M 455.0914 553.49188 L 484.43555000000003 554.96673 L 487.10773000000006 570.5715299999999 C 487.10773000000006 570.5715299999999 507.98172000000005 597.7271099999999 482.9055200000001 596.46679 C 457.8293200000001 595.20647 415.00489000000005 600.78936 415.4896600000001 591.14465 C 415.9744300000001 581.4999399999999 447.12824000000006 577.26434 447.12824000000006 577.26434 L 455.09137000000004 553.49194 L 455.09137000000004 553.49194 L 455.0914 553.49188 Z" stroke-linecap="round" />
</g>
		<g transform="matrix(1 0 0 1 174.06 275.03)"  >
<path style="stroke: none; stroke-width: 1; stroke-dasharray: none; stroke-linecap: butt; stroke-dashoffset: 0; stroke-linejoin: miter; stroke-miterlimit: 4; fill: rgb(46,46,65); fill-rule: nonzero; opacity: 1;" vector-effect="non-scaling-stroke"  transform=" translate(-520.4, -573.51)" d="M 520.12299 551.78057 L 549.46717 553.25542 L 552.13935 568.8602199999999 C 552.13935 568.8602199999999 573.01331 596.0157999999999 547.93714 594.7554799999999 C 522.86097 593.4951599999999 480.03651 599.07805 480.52128 589.4333399999999 C 481.00604999999996 579.7886299999999 512.15986 575.5530299999999 512.15986 575.5530299999999 L 520.12299 551.78063 L 520.12299 551.78063 L 520.12299 551.78057 Z" stroke-linecap="round" />
</g>
		<g transform="matrix(1 0 0 1 188.92 7.86)" id="uuid-3bc2e7c3-8a4e-432b-b93d-ff096d796d3b-397"  >
<path style="stroke: none; stroke-width: 1; stroke-dasharray: none; stroke-linecap: butt; stroke-dashoffset: 0; stroke-linejoin: miter; stroke-miterlimit: 4; fill: rgb(253,180,180); fill-rule: nonzero; opacity: 1;" vector-effect="non-scaling-stroke"  transform=" translate(-535.26, -306.34)" d="M 546.99469 328.40359 L 546.99475 328.40359 C 546.31189 340.13885 539.7032499999999 349.29888 532.23492 348.86306 C 524.7666 348.42721 519.268 338.56161000000003 519.95269 326.82226 C 520.16192 322.12911 521.49194 317.55432 523.8316 313.48062000000004 L 527.3529599999999 263.7943700000001 L 550.6340299999999 265.94385000000005 L 544.69085 314.69745000000006 C 546.5424099999999 319.0166300000001 547.3323899999999 323.71646000000004 546.9946799999999 328.40357000000006 L 546.9946799999999 328.40360000000004 Z" stroke-linecap="round" />
</g>
		<g transform="matrix(1 0 0 1 69.95 3.04)" id="uuid-a34cbb18-fa14-4c0b-8260-87fab6b8d9f9-398"  >
<path style="stroke: none; stroke-width: 1; stroke-dasharray: none; stroke-linecap: butt; stroke-dashoffset: 0; stroke-linejoin: miter; stroke-miterlimit: 4; fill: rgb(253,180,180); fill-rule: nonzero; opacity: 1;" vector-effect="non-scaling-stroke"  transform=" translate(-416.29, -301.52)" d="M 427.35587 323.94125 L 427.35589999999996 323.94125 C 426.42337 335.65933 419.62127999999996 344.67663000000005 412.16393999999997 344.08191000000005 C 404.7066 343.48719000000006 399.41922 333.50678000000005 400.35366999999997 321.78467000000006 C 400.66272 317.0970500000001 402.08984999999996 312.55161000000004 404.51568999999995 308.52860000000004 L 409.09387999999996 258.92859000000004 L 432.32391999999993 261.57315000000006 L 425.34430999999995 310.1891800000001 C 427.10349999999994 314.54678000000007 427.7932799999999 319.2623900000001 427.35587999999996 323.9412200000001 L 427.35585 323.9412500000001 L 427.35587999999996 323.9412500000001 Z" stroke-linecap="round" />
</g>
		<g transform="matrix(1 0 0 1 191.52 -83.18)"  >
<path style="stroke: none; stroke-width: 1; stroke-dasharray: none; stroke-linecap: butt; stroke-dashoffset: 0; stroke-linejoin: miter; stroke-miterlimit: 4; fill: rgb(232,233,234); fill-rule: nonzero; opacity: 1;" vector-effect="non-scaling-stroke"  transform=" translate(-537.86, -215.3)" d="M 550.74371 308.86965 L 516.93219 306.71144999999996 L 516.97321 306.20460999999995 L 523.72712 221.65577999999994 L 512.9380600000001 142.15138999999994 C 512.26521 137.19923999999995 513.62165 132.32814999999994 516.75642 128.43605999999994 C 519.89119 124.54347999999995 524.3609100000001 122.18068999999994 529.34333 121.78175999999993 L 529.34333 121.78175999999993 C 538.88239 121.02980999999994 547.3404 127.84376999999994 548.62165 137.31691999999993 L 562.95856 243.33009999999993 L 562.9439100000001 243.40919999999994 L 550.7437100000001 308.8696499999999 Z" stroke-linecap="round" />
</g>
		<g transform="matrix(1 0 0 1 82.21 -85.55)"  >
<path style="stroke: none; stroke-width: 1; stroke-dasharray: none; stroke-linecap: butt; stroke-dashoffset: 0; stroke-linejoin: miter; stroke-miterlimit: 4; fill: rgb(232,233,234); fill-rule: nonzero; opacity: 1;" vector-effect="non-scaling-stroke"  transform=" translate(-428.55, -212.92)" d="M 432.98495 305.63088 L 399.11972000000003 303.58351999999996 L 399.19394000000005 303.04884999999996 L 422.54648000000003 133.67872999999997 C 425.00253000000004 124.37647999999997 434.25253000000004 118.65479999999997 443.61191 120.59034999999997 C 448.50644 121.60255999999997 452.64902 124.50050999999998 455.27793 128.75098999999997 C 457.90684000000005 133.00146999999998 458.65000000000003 138.00244999999998 457.36973 142.83350999999996 L 432.98496 305.63086999999996 Z" stroke-linecap="round" />
</g>
		<g transform="matrix(1 0 0 1 129.37 -134.06)"  >
<circle style="stroke: none; stroke-width: 1; stroke-dasharray: none; stroke-linecap: butt; stroke-dashoffset: 0; stroke-linejoin: miter; stroke-miterlimit: 4; fill: rgb(214,215,216); fill-rule: nonzero; opacity: 1;" vector-effect="non-scaling-stroke"  cx="0" cy="0" r="2.99487" />
</g>
		<g transform="matrix(1 0 0 1 129.37 -111.38)"  >
<circle style="stroke: none; stroke-width: 1; stroke-dasharray: none; stroke-linecap: butt; stroke-dashoffset: 0; stroke-linejoin: miter; stroke-miterlimit: 4; fill: rgb(214,215,216); fill-rule: nonzero; opacity: 1;" vector-effect="non-scaling-stroke"  cx="0" cy="0" r="2.99487" />
</g>
		<g transform="matrix(1 0 0 1 129.37 -88.7)"  >
<circle style="stroke: none; stroke-width: 1; stroke-dasharray: none; stroke-linecap: butt; stroke-dashoffset: 0; stroke-linejoin: miter; stroke-miterlimit: 4; fill: rgb(214,215,216); fill-rule: nonzero; opacity: 1;" vector-effect="non-scaling-stroke"  cx="0" cy="0" r="2.99487" />
</g>
		<g transform="matrix(1 0 0 1 129.37 -66.03)"  >
<circle style="stroke: none; stroke-width: 1; stroke-dasharray: none; stroke-linecap: butt; stroke-dashoffset: 0; stroke-linejoin: miter; stroke-miterlimit: 4; fill: rgb(214,215,216); fill-rule: nonzero; opacity: 1;" vector-effect="non-scaling-stroke"  cx="0" cy="0" r="2.99487" />
</g>
		<g transform="matrix(1 0 0 1 129.37 -43.35)"  >
<circle style="stroke: none; stroke-width: 1; stroke-dasharray: none; stroke-linecap: butt; stroke-dashoffset: 0; stroke-linejoin: miter; stroke-miterlimit: 4; fill: rgb(214,215,216); fill-rule: nonzero; opacity: 1;" vector-effect="non-scaling-stroke"  cx="0" cy="0" r="2.99488" />
</g>
		<g transform="matrix(1 0 0 1 129.37 -20.68)"  >
<circle style="stroke: none; stroke-width: 1; stroke-dasharray: none; stroke-linecap: butt; stroke-dashoffset: 0; stroke-linejoin: miter; stroke-miterlimit: 4; fill: rgb(214,215,216); fill-rule: nonzero; opacity: 1;" vector-effect="non-scaling-stroke"  cx="0" cy="0" r="2.99487" />
</g>
		<g transform="matrix(1 0 0 1 129.37 2)"  >
<circle style="stroke: none; stroke-width: 1; stroke-dasharray: none; stroke-linecap: butt; stroke-dashoffset: 0; stroke-linejoin: miter; stroke-miterlimit: 4; fill: rgb(214,215,216); fill-rule: nonzero; opacity: 1;" vector-effect="non-scaling-stroke"  cx="0" cy="0" r="2.99487" />
</g>
		<g transform="matrix(1 0 0 1 129.37 24.67)"  >
<circle style="stroke: none; stroke-width: 1; stroke-dasharray: none; stroke-linecap: butt; stroke-dashoffset: 0; stroke-linejoin: miter; stroke-miterlimit: 4; fill: rgb(214,215,216); fill-rule: nonzero; opacity: 1;" vector-effect="non-scaling-stroke"  cx="0" cy="0" r="2.99487" />
</g>
		<g transform="matrix(1 0 0 1 133.91 -227.87)"  >
<circle style="stroke: none; stroke-width: 1; stroke-dasharray: none; stroke-linecap: butt; stroke-dashoffset: 0; stroke-linejoin: miter; stroke-miterlimit: 4; fill: rgb(253,180,180); fill-rule: nonzero; opacity: 1;" vector-effect="non-scaling-stroke"  cx="0" cy="0" r="28.0126" />
</g>
		<g transform="matrix(1 0 0 1 116.65 -215.05)"  >
<path style="stroke: none; stroke-width: 1; stroke-dasharray: none; stroke-linecap: butt; stroke-dashoffset: 0; stroke-linejoin: miter; stroke-miterlimit: 4; fill: rgb(46,46,65); fill-rule: nonzero; opacity: 1;" vector-effect="non-scaling-stroke"  transform=" translate(-463, -83.43)" d="M 494.93509 37.9 C 496.27741 40.63002 494.14865 44.04016 491.3313 45.18794 C 488.51395 46.335719999999995 485.33136 45.87067 482.32691 45.3929 C 479.32246 44.91513 476.13529 44.462089999999996 473.3263 45.630179999999996 C 469.69169 47.14158 467.64289 50.9329 465.87745 54.45112999999999 C 462.58167000000003 61.01908999999999 459.2859 67.58704999999999 455.99012 74.15500999999999 C 454.37986 77.36398999999999 452.73313 80.71723999999999 452.7021 84.30742999999998 C 452.64515 90.89749999999998 457.873 96.16403999999999 460.68573999999995 102.12394999999998 C 464.11042 109.38045999999999 463.82803999999993 118.27331999999998 459.94983999999994 125.29790999999997 C 456.07163999999995 132.32250999999997 448.69660999999996 137.29959999999997 440.73117999999994 138.26776999999998 C 438.63541999999995 138.52247999999997 436.41730999999993 138.49483999999998 434.53302999999994 137.54272999999998 C 432.64874999999995 136.59061999999997 431.21057999999994 134.51134 431.55954999999994 132.42919999999998 C 432.24204999999995 128.35673999999997 438.46484999999996 127.40515999999998 439.60770999999994 123.43718999999999 C 440.20429999999993 121.36583999999999 439.14771999999994 119.15381999999998 437.7233099999999 117.53594999999999 C 436.2988999999999 115.91807999999999 434.49765999999994 114.65603999999999 433.1389899999999 112.98256999999998 C 430.0061199999999 109.12375999999998 429.7974099999999 103.16690999999999 432.6524799999999 99.09828999999998 C 434.3303999999999 96.70717999999998 436.9255799999999 94.93068999999997 438.01001999999994 92.21833999999998 C 438.93433999999996 89.90645999999998 438.5986699999999 87.30769999999998 438.24857999999995 84.84261999999998 C 437.7987499999999 81.67503999999998 437.3488899999999 78.50745999999998 436.89908999999994 75.33987999999998 C 436.37427999999994 71.64423999999998 435.85742999999997 67.81609999999998 436.89465999999993 64.23037999999998 C 439.2715799999999 56.01329999999999 448.5497499999999 52.154099999999985 453.99087999999995 45.55378999999998 C 456.51931999999994 42.48667999999998 458.2201299999999 38.79800999999998 460.81408999999996 35.786099999999976 C 465.16709 30.731699999999975 472.02020999999996 27.943439999999974 478.66546999999997 28.523049999999976 C 485.31073 29.102669999999975 491.57761 33.035289999999975 494.98983999999996 38.76698999999998" stroke-linecap="round" />
</g>
		<g transform="matrix(1 0 0 1 156.95 -214.16)"  >
<path style="stroke: none; stroke-width: 1; stroke-dasharray: none; stroke-linecap: butt; stroke-dashoffset: 0; stroke-linejoin: miter; stroke-miterlimit: 4; fill: rgb(46,46,65); fill-rule: nonzero; opacity: 1;" vector-effect="non-scaling-stroke"  transform=" translate(-503.29, -84.32)" d="M 490.51276 38.41812 C 489.1442 38.90755 488.63636 40.69008 489.03031 42.08914 C 489.42422999999997 43.48819 490.45579 44.59982 491.4 45.70481 C 502.07899 58.20241 504.56113 77.10624 497.47047 91.93706 C 495.58441999999997 95.88191 493.07203 99.59448 492.05472999999995 103.84702 C 491.31452999999993 106.94128 491.35432 110.33538 489.63773999999995 113.01412 C 487.89008999999993 115.74132 484.42695999999995 117.56867000000001 484.08446 120.78963 C 483.86467 122.85662 485.12453 124.86439 486.81336999999996 126.07623000000001 C 488.50220999999993 127.28807000000002 490.56541 127.84256 492.59427999999997 128.29467 C 497.86765999999994 129.46975 503.25978 130.11127 508.66166 130.20624999999998 C 510.42276999999996 130.23722999999998 512.24006 130.19911 513.8556 129.49739 C 515.47114 128.79567 516.85011 127.2738 516.8685399999999 125.51253 C 516.8830099999999 124.12826 516.08467 122.85126 515.9827999999999 121.47066 C 515.6776199999999 117.33381999999999 521.2442099999998 115.13304 522.3287499999999 111.12924 C 523.04176 108.49696 521.6369799999999 105.78831 520.1403999999999 103.50847999999999 C 518.6438799999999 101.22864999999999 516.9361799999999 98.83467999999999 516.9729799999999 96.10777999999999 C 517.0082599999998 93.49728999999999 518.6465 91.19829999999999 519.2832199999999 88.6664 C 520.1638999999999 85.16423999999999 519.0820499999999 81.50104999999999 518.00893 78.05297999999999 C 517.09658 75.12150999999999 516.18428 72.19005999999999 515.27193 69.25859 C 514.30208 66.14235 513.33229 63.026109999999996 512.36245 59.90987 C 510.66929999999996 54.469519999999996 508.89196 48.87157 505.22799 44.50815 C 501.56399 40.14474 495.49285 37.28484 490.08079999999995 39.06634" stroke-linecap="round" />
</g>
		<g transform="matrix(1 0 0 1 160.52 -171.89)"  >
<path style="stroke: none; stroke-width: 1; stroke-dasharray: none; stroke-linecap: butt; stroke-dashoffset: 0; stroke-linejoin: miter; stroke-miterlimit: 4; fill: rgb(63,60,87); fill-rule: nonzero; opacity: 1;" vector-effect="non-scaling-stroke"  transform=" translate(-506.86, -126.58)" d="M 509.60117 146.96731 L 507.68125000000003 146.40774 C 511.68125000000003 132.69241 503.05625000000003 107.09768 502.96934000000005 106.84084999999999 L 504.86192000000005 106.19533999999999 C 505.2281300000001 107.26906999999999 513.7769900000001 132.65139 509.60118000000006 146.96731 Z" stroke-linecap="round" />
</g>
		<g transform="matrix(1 0 0 1 162.3 -144.11)"  >
<circle style="stroke: none; stroke-width: 1; stroke-dasharray: none; stroke-linecap: butt; stroke-dashoffset: 0; stroke-linejoin: miter; stroke-miterlimit: 4; fill: rgb(63,60,87); fill-rule: nonzero; opacity: 1;" vector-effect="non-scaling-stroke"  cx="0" cy="0" r="8.3541" />
</g>
		<g transform="matrix(1 0 0 1 100.31 -140.9)"  >
<path style="stroke: none; stroke-width: 1; stroke-dasharray: none; stroke-linecap: butt; stroke-dashoffset: 0; stroke-linejoin: miter; stroke-miterlimit: 4; fill: rgb(63,60,87); fill-rule: nonzero; opacity: 1;" vector-effect="non-scaling-stroke"  transform=" translate(-446.65, -157.58)" d="M 453.7496 183.9429 L 448.68318999999997 183.9429 C 448.13045999999997 183.9429 447.68318999999997 183.49515 447.68318999999997 182.9429 C 447.68318999999997 182.39065000000002 448.13045999999997 181.9429 448.68318999999997 181.9429 L 453.7496 181.9429 C 455.14608 181.9429 456.45761 181.39895 457.44394 180.41067 C 458.42929 179.42288000000002 458.97128 178.10989 458.96835 176.71438 L 458.90683 145.50784000000002 C 458.90683 138.72854 453.39316 133.21487000000002 446.61581 133.21487000000002 C 439.83846 133.21487000000002 434.32382 138.72854 434.32382 145.50589000000002 L 434.38534 174.71536000000003 C 434.39119999999997 177.56497000000005 436.71443999999997 179.90091000000004 439.56405 179.92288000000002 L 443.04159 179.94925 C 443.59335 179.95364 444.03767999999997 180.40433000000002 444.03378 180.95706 C 444.02986999999996 181.50638 443.58261 181.94925 443.03378 181.94925 L 443.02597 181.94925 L 439.54843 181.92288000000002 C 435.60702 181.89261000000002 432.39316 178.66067 432.38534 174.71927000000002 L 432.32382 145.50784000000002 C 432.32382 137.626 438.73495 131.21487000000002 446.61581 131.21487000000002 C 454.49569 131.21487000000002 460.90683 137.62600000000003 460.90683 145.50589000000002 L 460.96835 176.71048000000002 C 460.97226 178.64114 460.22323 180.45706 458.85897 181.82327 C 457.49569 183.18997000000002 455.68026 183.9429 453.74959 183.9429 Z" stroke-linecap="round" />
</g>
		<g transform="matrix(1 0 0 1 96.69 -117.53)"  >
<circle style="stroke: none; stroke-width: 1; stroke-dasharray: none; stroke-linecap: butt; stroke-dashoffset: 0; stroke-linejoin: miter; stroke-miterlimit: 4; fill: rgb(63,60,87); fill-rule: nonzero; opacity: 1;" vector-effect="non-scaling-stroke"  cx="0" cy="0" r="3.54434" />
</g>
		<g transform="matrix(1 0 0 1 102.34 -115.53)"  >
<circle style="stroke: none; stroke-width: 1; stroke-dasharray: none; stroke-linecap: butt; stroke-dashoffset: 0; stroke-linejoin: miter; stroke-miterlimit: 4; fill: rgb(63,60,87); fill-rule: nonzero; opacity: 1;" vector-effect="non-scaling-stroke"  cx="0" cy="0" r="3.54434" />
</g>
		<g transform="matrix(1 0 0 1 -104.93 -186.76)"  >
<path style="stroke: none; stroke-width: 1; stroke-dasharray: none; stroke-linecap: butt; stroke-dashoffset: 0; stroke-linejoin: miter; stroke-miterlimit: 4; fill: rgb(63,60,87); fill-rule: nonzero; opacity: 1;" vector-effect="non-scaling-stroke"  transform=" translate(-241.41, -111.72)" d="M 244.07133 131.97773 L 242.15141 131.41816 C 246.15141 117.70283 237.62339 91.71167 237.53648 91.45483 L 239.93629 93.26392 C 240.3025 94.33765 248.24711000000002 117.66181 244.07133000000002 131.97773 Z" stroke-linecap="round" />
</g>
		<g transform="matrix(1 0 0 1 -167.02 -184.12)"  >
<path style="stroke: none; stroke-width: 1; stroke-dasharray: none; stroke-linecap: butt; stroke-dashoffset: 0; stroke-linejoin: miter; stroke-miterlimit: 4; fill: rgb(63,60,87); fill-rule: nonzero; opacity: 1;" vector-effect="non-scaling-stroke"  transform=" translate(-179.32, -114.35)" d="M 176.58131 134.41444 L 178.50123 133.85487 C 174.50123 120.13954000000001 183.12623 94.54481000000001 183.21313999999998 94.28798 L 181.15937999999997 95.66371000000001 C 180.79316999999998 96.73744 172.40551999999997 120.09852000000001 176.58129999999997 134.41444 Z" stroke-linecap="round" />
</g>
		<g transform="matrix(1 0 0 1 -103.23 -159.1)"  >
<circle style="stroke: none; stroke-width: 1; stroke-dasharray: none; stroke-linecap: butt; stroke-dashoffset: 0; stroke-linejoin: miter; stroke-miterlimit: 4; fill: rgb(63,60,87); fill-rule: nonzero; opacity: 1;" vector-effect="non-scaling-stroke"  cx="0" cy="0" r="8.35408" />
</g>
		<g transform="matrix(1 0 0 1 -167.96 -139.05)"  >
<path style="stroke: none; stroke-width: 1; stroke-dasharray: none; stroke-linecap: butt; stroke-dashoffset: 0; stroke-linejoin: miter; stroke-miterlimit: 4; fill: rgb(63,60,87); fill-rule: nonzero; opacity: 1;" vector-effect="non-scaling-stroke"  transform=" translate(-178.38, -159.42)" d="M 185.48769 185.78889 L 180.42128 185.78889 C 179.86855 185.78889 179.42128 185.34114 179.42128 184.78889 C 179.42128 184.23664000000002 179.86855 183.78889 180.42128 183.78889 L 185.48769 183.78889 C 186.88416999999998 183.78889 188.1957 183.24494 189.18203 182.25666 C 190.16738 181.26887000000002 190.70937 179.95588 190.70644 178.56037 L 190.64491999999998 147.35383000000002 C 190.64491999999998 140.57453 185.13125 135.06086000000002 178.35389999999998 135.06086000000002 C 171.57654999999997 135.06086000000002 166.06190999999998 140.57453 166.06190999999998 147.35188000000002 L 166.12342999999998 176.56135000000003 C 166.12929 179.41096000000005 168.45253 181.74690000000004 171.30213999999998 181.76887000000002 L 174.77967999999998 181.79524 C 175.33144 181.79963 175.77577 182.25032000000002 175.77186999999998 182.80305 C 175.76796 183.35237 175.3207 183.79524 174.77186999999998 183.79524 L 174.76405999999997 183.79524 L 171.28651999999997 183.76887000000002 C 167.34510999999998 183.73860000000002 164.13124999999997 180.50666 164.12342999999996 176.56526000000002 L 164.06190999999995 147.35383000000002 C 164.06190999999995 139.47199 170.47303999999997 133.06086000000002 178.35389999999995 133.06086000000002 C 186.23377999999997 133.06086000000002 192.64491999999996 139.47199 192.64491999999996 147.35188000000002 L 192.70643999999996 178.55647000000002 C 192.71034999999995 180.48713 191.96131999999994 182.30305 190.59705999999997 183.66926 C 189.23377999999997 185.03596000000002 187.41834999999998 185.78889 185.48767999999998 185.78889 Z" stroke-linecap="round" />
</g>
		<g transform="matrix(1 0 0 1 -171.57 -115.68)"  >
<circle style="stroke: none; stroke-width: 1; stroke-dasharray: none; stroke-linecap: butt; stroke-dashoffset: 0; stroke-linejoin: miter; stroke-miterlimit: 4; fill: rgb(63,60,87); fill-rule: nonzero; opacity: 1;" vector-effect="non-scaling-stroke"  cx="0" cy="0" r="3.54434" />
</g>
		<g transform="matrix(1 0 0 1 -165.92 -113.69)"  >
<circle style="stroke: none; stroke-width: 1; stroke-dasharray: none; stroke-linecap: butt; stroke-dashoffset: 0; stroke-linejoin: miter; stroke-miterlimit: 4; fill: rgb(63,60,87); fill-rule: nonzero; opacity: 1;" vector-effect="non-scaling-stroke"  cx="0" cy="0" r="3.54434" />
</g>
</g>
</g>
</svg>