<?xml version="1.0" encoding="UTF-8" standalone="no" ?>
<!DOCTYPE svg PUBLIC "-//W3C//DTD SVG 1.1//EN" "http://www.w3.org/Graphics/SVG/1.1/DTD/svg11.dtd">
<svg xmlns="http://www.w3.org/2000/svg" xmlns:xlink="http://www.w3.org/1999/xlink" version="1.1" width="1080" height="1080" viewBox="0 0 1080 1080" xml:space="preserve">
<desc>Created with Fabric.js 5.2.4</desc>
<defs>
</defs>
<g transform="matrix(1 0 0 1 540 540)" id="3ae4dad6-f8d4-4165-97f8-a6310f995689"  >
</g>
<g transform="matrix(1 0 0 1 540 540)" id="80312cd8-e4dd-48b3-a701-a391eb6a1bd6"  >
<rect style="stroke: none; stroke-width: 1; stroke-dasharray: none; stroke-linecap: butt; stroke-dashoffset: 0; stroke-linejoin: miter; stroke-miterlimit: 4; fill: rgb(255,255,255); fill-rule: nonzero; opacity: 1;" vector-effect="non-scaling-stroke"  x="-540" y="-540" rx="0" ry="0" width="1080" height="1080" />
</g>
<g transform="matrix(1 0 0 1 540 540)"  >
<g style="opacity: 0.5;" vector-effect="non-scaling-stroke"   >
		<g transform="matrix(1 0 0 1 -47.3 151.48)" id="uuid-25964adc-e6e4-4b9a-b8ec-929b0c1831fb-160"  >
<path style="stroke: none; stroke-width: 1; stroke-dasharray: none; stroke-linecap: butt; stroke-dashoffset: 0; stroke-linejoin: miter; stroke-miterlimit: 4; fill: rgb(255,182,182); fill-rule: nonzero; opacity: 1;" vector-effect="non-scaling-stroke"  transform=" translate(-309.46, -458.48)" d="M 347.87323 451.90152 C 364.8587 457.20044 375.89273 470.2597 372.51871 481.06882 C 369.14466 491.87793 352.64218 496.34214000000003 335.65137 491.03907000000004 C 328.83518 489.01380000000006 322.60309 485.38563000000005 317.47657 480.45808000000005 L 245.79191999999998 457.09745000000004 L 257.47141 423.69160000000005 L 326.89979 450.26768000000004 C 333.92112 449.12947 341.11296 449.68968000000007 347.87327 451.90150000000006 L 347.87324 451.90153000000004 Z" stroke-linecap="round" />
</g>
		<g transform="matrix(1 0 0 1 -142.69 34.7)"  >
<path style="stroke: none; stroke-width: 1; stroke-dasharray: none; stroke-linecap: butt; stroke-dashoffset: 0; stroke-linejoin: miter; stroke-miterlimit: 4; fill: rgb(230,230,230); fill-rule: nonzero; opacity: 1;" vector-effect="non-scaling-stroke"  transform=" translate(-214.07, -341.7)" d="M 194.30498 206.79003 L 194.30492 206.79003 C 177.21222 204.76555 161.47402 216.31803 158.28986 233.2331 C 146.93254000000002 293.56599 122.81054 424.03284 125.98718 427.20951 C 130.12276 431.3451 284.51786 476.83649 284.51786 476.83649 L 302.43872999999996 438.2377 L 200.42767999999995 388.61072 L 222.80006999999995 244.30882000000003 C 225.64022999999995 225.98977000000002 212.71421999999995 208.97040000000004 194.30497999999994 206.79001000000002 L 194.30497999999994 206.79003000000003 Z" stroke-linecap="round" />
</g>
		<g transform="matrix(1 0 0 1 48.46 175.4)" id="uuid-a5d71dbf-4b88-4e86-8463-d776047f9b39-161"  >
<path style="stroke: none; stroke-width: 1; stroke-dasharray: none; stroke-linecap: butt; stroke-dashoffset: 0; stroke-linejoin: miter; stroke-miterlimit: 4; fill: rgb(160,97,106); fill-rule: nonzero; opacity: 1;" vector-effect="non-scaling-stroke"  transform=" translate(-405.23, -482.4)" d="M 380.31247 514.65845 C 363.73904000000005 521.13196 346.96475000000004 517.82788 342.84668 507.27979 C 338.72860999999995 496.73169999999993 348.82565 482.93635 365.40585 476.46271 C 371.9935 473.78592000000003 379.12637 472.72565000000003 386.20776 473.37067 L 456.77642000000003 446.8288 L 468.52587000000005 480.21009 L 397.71026000000006 502.83160999999996 C 392.9387500000001 508.10675999999995 386.9730200000001 512.16224 380.3124900000001 514.6584499999999 L 380.3124600000001 514.6584499999999 Z" stroke-linecap="round" />
</g>
		<g transform="matrix(1 0 0 1 120.73 58.61)"  >
<path style="stroke: none; stroke-width: 1; stroke-dasharray: none; stroke-linecap: butt; stroke-dashoffset: 0; stroke-linejoin: miter; stroke-miterlimit: 4; fill: rgb(230,230,230); fill-rule: nonzero; opacity: 1;" vector-effect="non-scaling-stroke"  transform=" translate(-477.49, -365.61)" d="M 482.07956 228.14661 L 482.07962000000003 228.14661 C 498.99762000000004 224.97808 515.4765600000001 235.44681 519.79028 252.10967 C 535.17633 311.54296999999997 568.01129 440.09388 565.05529 443.47681 C 561.20696 447.88095 410.21795 503.64499 410.21795 503.64499 L 389.74374 466.33777 L 488.18924 409.96774 L 456.17026 267.49548 C 452.10546999999997 249.40869999999998 463.85855 231.55917 482.07964999999996 228.14659 L 482.07955999999996 228.14661 Z" stroke-linecap="round" />
</g>
		<g transform="matrix(1 0 0 1 -198.74 -127.28)"  >
<polygon style="stroke: none; stroke-width: 1; stroke-dasharray: none; stroke-linecap: butt; stroke-dashoffset: 0; stroke-linejoin: miter; stroke-miterlimit: 4; fill: rgb(255,182,182); fill-rule: nonzero; opacity: 1;" vector-effect="non-scaling-stroke"  points="24.17,35.73 32.58,-16.82 -24.17,-39.94 -32.58,39.94 24.17,35.73 " />
</g>
		<g transform="matrix(1 0 0 1 181.07 -119.01)"  >
<polygon style="stroke: none; stroke-width: 1; stroke-dasharray: none; stroke-linecap: butt; stroke-dashoffset: 0; stroke-linejoin: miter; stroke-miterlimit: 4; fill: rgb(160,97,106); fill-rule: nonzero; opacity: 1;" vector-effect="non-scaling-stroke"  points="-24.17,35.73 -32.58,-16.82 24.17,-39.94 32.58,39.94 -24.17,35.73 " />
</g>
		<g transform="matrix(1 0 0 1 -188.91 -185.08)"  >
<circle style="stroke: none; stroke-width: 1; stroke-dasharray: none; stroke-linecap: butt; stroke-dashoffset: 0; stroke-linejoin: miter; stroke-miterlimit: 4; fill: rgb(255,182,182); fill-rule: nonzero; opacity: 1;" vector-effect="non-scaling-stroke"  cx="0" cy="0" r="57.8752" />
</g>
		<g transform="matrix(1 0 0 1 -201.62 -215.19)"  >
<path style="stroke: none; stroke-width: 1; stroke-dasharray: none; stroke-linecap: butt; stroke-dashoffset: 0; stroke-linejoin: miter; stroke-miterlimit: 4; fill: rgb(47,46,65); fill-rule: nonzero; opacity: 1;" vector-effect="non-scaling-stroke"  transform=" translate(-155.14, -91.81)" d="M 163.23585 44.11551 C 164.91053 45.093090000000004 167.15373 43.61403 167.6907 41.75074 C 168.22767 39.88745 167.60217 37.90913 166.98187 36.07189 L 163.8592 26.82298 C 161.64453999999998 20.263440000000003 159.29403 13.47469 154.49760999999998 8.482030000000002 C 147.25819 0.94643 135.75307 -0.9706 125.39614 0.41822 C 112.09581 2.20173 98.97296 9.40372 92.7887 21.31315 C 86.60444000000001 33.22258 89.23731000000001 49.8405 100.41187000000001 57.27078 C 84.48568 75.52485 78.93405000000001 95.86838 79.81063 120.07759 C 80.68721 144.2868 107.06933000000001 166.56718 124.27399 183.62163 C 128.11611 181.29260000000002 131.60903 170.37773 129.49622 166.4126 C 127.38342 162.44747 130.41058999999998 157.85375 127.79393999999999 154.20143 C 125.17729 150.54912 122.98813999999999 156.36468 125.63350999999999 152.73311999999999 C 127.30277999999998 150.44153999999997 120.78765999999999 145.16958 123.26892999999998 143.79805 C 135.27039 137.16405999999998 139.26198999999997 122.20474999999999 146.79968 110.74925999999999 C 155.89154 96.93181 171.45225 87.5745 187.9196 86.02212 C 196.99089 85.16697 206.57217 86.71582000000001 214.00757 91.98218 C 221.44296999999997 97.24853999999999 226.25659 106.65944999999999 224.5324 115.60634 C 228.99778 111.07235 231.22056 104.42778 230.38218 98.11955 C 229.5438 91.81132000000001 225.66268 85.97797 220.16807 82.76768 C 223.50903 71.71932 220.64694 59.01048 212.8924 50.460879999999996 C 205.13788 41.91128 173.68133 43.367439999999995 162.36031000000003 45.61754" stroke-linecap="round" />
</g>
		<g transform="matrix(1 0 0 1 -219.09 -163.67)"  >
<path style="stroke: none; stroke-width: 1; stroke-dasharray: none; stroke-linecap: butt; stroke-dashoffset: 0; stroke-linejoin: miter; stroke-miterlimit: 4; fill: rgb(47,46,65); fill-rule: nonzero; opacity: 1;" vector-effect="non-scaling-stroke"  transform=" translate(-137.67, -143.33)" d="M 161.47775 86.35749 C 146.48343 87.97613 135.65708999999998 100.96456 126.51514999999998 112.95936 C 121.24594999999998 119.87289 115.72650999999998 127.50772 115.85879999999997 136.19931 C 115.99253999999998 144.98676 121.86783999999997 152.52389 124.67573999999998 160.85171 C 129.26532999999998 174.46379 124.79223999999998 190.65902 113.86694999999997 199.98593 C 124.66236999999998 202.03448 136.33249999999998 193.94009 138.19613999999999 183.11122 C 140.36562999999998 170.5051 130.80959 158.33824 131.94133 145.59694000000002 C 132.93842 134.37171 141.78436 125.73257000000001 149.30474999999998 117.33949000000001 C 156.82513999999998 108.94641000000001 163.88807999999997 97.80900000000001 160.42831999999999 87.08380000000001" stroke-linecap="round" />
</g>
		<g transform="matrix(1 0 0 1 -235.25 12.68)"  >
<path style="stroke: none; stroke-width: 1; stroke-dasharray: none; stroke-linecap: butt; stroke-dashoffset: 0; stroke-linejoin: miter; stroke-miterlimit: 4; fill: rgb(230,230,230); fill-rule: nonzero; opacity: 1;" vector-effect="non-scaling-stroke"  transform=" translate(-121.51, -319.68)" d="M 188.75362 206.64507 L 123.23014 188.72422 L 55.682280000000006 216.29478 L 26.733200000000007 445.13038 L 192.15653 450.64448 L 192.15653 413.73359 C 192.15653 413.73359 221.10561 377.58253 215.5915 325.19846 L 210.07739 272.81440000000003 L 188.75363000000002 206.64507000000003 Z" stroke-linecap="round" />
</g>
		<g transform="matrix(1 0 0 1 -243.45 140.89)"  >
<path style="stroke: none; stroke-width: 1; stroke-dasharray: none; stroke-linecap: butt; stroke-dashoffset: 0; stroke-linejoin: miter; stroke-miterlimit: 4; fill: rgb(63,61,86); fill-rule: nonzero; opacity: 1;" vector-effect="non-scaling-stroke"  transform=" translate(-113.31, -447.89)" d="M 219.0378 299.69568 L 89.4562 292.80304 L 54.30374 392.74631 C 54.30374 392.74631 10.88012 452.71225 3.98748 496.82517 C -2.90516 540.93812 1.23042 602.97181 1.23042 602.97181 L 208.68256000000002 602.97181 L 192.15651000000003 413.73359 C 192.15651000000003 413.73359 230.73900000000003 330.02332 226.26694000000003 315.54877999999997 C 221.79486000000003 301.07422999999994 219.03781000000004 299.69571999999994 219.03781000000004 299.69571999999994 L 219.03779000000003 299.69568999999996 Z" stroke-linecap="round" />
</g>
		<g transform="matrix(1 0 0 1 -252.83 -59)"  >
<rect style="stroke: none; stroke-width: 1; stroke-dasharray: none; stroke-linecap: butt; stroke-dashoffset: 0; stroke-linejoin: miter; stroke-miterlimit: 4; fill: rgb(63,61,86); fill-rule: nonzero; opacity: 1;" vector-effect="non-scaling-stroke"  x="-15.85307" y="-58.587425" rx="0" ry="0" width="31.70614" height="117.17485" />
</g>
		<g transform="matrix(1 0 0 1 -154.96 -43.15)"  >
<rect style="stroke: none; stroke-width: 1; stroke-dasharray: none; stroke-linecap: butt; stroke-dashoffset: 0; stroke-linejoin: miter; stroke-miterlimit: 4; fill: rgb(63,61,86); fill-rule: nonzero; opacity: 1;" vector-effect="non-scaling-stroke"  x="-15.853075" y="-48.248475" rx="0" ry="0" width="31.70615" height="96.49695" />
</g>
		<g transform="matrix(1 0 0 1 217.94 23.71)"  >
<path style="stroke: none; stroke-width: 1; stroke-dasharray: none; stroke-linecap: butt; stroke-dashoffset: 0; stroke-linejoin: miter; stroke-miterlimit: 4; fill: rgb(230,230,230); fill-rule: nonzero; opacity: 1;" vector-effect="non-scaling-stroke"  transform=" translate(-574.7, -330.71)" d="M 504.34961 217.6733 L 569.87311 199.75245 L 637.42096 227.32301 L 666.3700600000001 456.15861 L 500.9467200000001 461.67271 L 500.9467200000001 424.76182 C 500.9467200000001 424.76182 484.0246900000001 387.02577 500.25745000000006 336.91596 C 516.11054 287.97821999999996 483.02585000000005 283.84265999999997 483.02585000000005 283.84265999999997 L 504.34961000000004 217.67332999999996 L 504.34961000000004 217.67329999999995 Z" stroke-linecap="round" />
</g>
		<g transform="matrix(1 0 0 1 226.21 151.92)"  >
<path style="stroke: none; stroke-width: 1; stroke-dasharray: none; stroke-linecap: butt; stroke-dashoffset: 0; stroke-linejoin: miter; stroke-miterlimit: 4; fill: rgb(63,61,86); fill-rule: nonzero; opacity: 1;" vector-effect="non-scaling-stroke"  transform=" translate(-582.97, -458.92)" d="M 474.06543 310.72391 L 603.64703 303.83127 L 638.7995 403.77454 C 638.7995 403.77454 660.16669 472.01166 667.0593299999999 516.12458 C 673.9519699999998 560.2375000000001 691.87281 614.00007 691.87281 614.00007 L 484.42066 614.00007 L 478.20099 432.03443000000004 L 474.0654 310.72401 L 474.06543 310.72392 Z" stroke-linecap="round" />
</g>
		<g transform="matrix(1 0 0 1 232.41 -47.97)"  >
<rect style="stroke: none; stroke-width: 1; stroke-dasharray: none; stroke-linecap: butt; stroke-dashoffset: 0; stroke-linejoin: miter; stroke-miterlimit: 4; fill: rgb(63,61,86); fill-rule: nonzero; opacity: 1;" vector-effect="non-scaling-stroke"  x="-15.85306" y="-58.58742" rx="0" ry="0" width="31.70612" height="117.17484" />
</g>
		<g transform="matrix(1 0 0 1 134.53 -32.12)"  >
<rect style="stroke: none; stroke-width: 1; stroke-dasharray: none; stroke-linecap: butt; stroke-dashoffset: 0; stroke-linejoin: miter; stroke-miterlimit: 4; fill: rgb(63,61,86); fill-rule: nonzero; opacity: 1;" vector-effect="non-scaling-stroke"  x="-15.853075" y="-48.24846" rx="0" ry="0" width="31.70615" height="96.49692" />
</g>
		<g transform="matrix(1 0 0 1 169.72 -191.64)"  >
<circle style="stroke: none; stroke-width: 1; stroke-dasharray: none; stroke-linecap: butt; stroke-dashoffset: 0; stroke-linejoin: miter; stroke-miterlimit: 4; fill: rgb(160,97,106); fill-rule: nonzero; opacity: 1;" vector-effect="non-scaling-stroke"  cx="0" cy="0" r="72.48663" />
</g>
		<g transform="matrix(1 0 0 1 169.24 -220.36)"  >
<path style="stroke: none; stroke-width: 1; stroke-dasharray: none; stroke-linecap: butt; stroke-dashoffset: 0; stroke-linejoin: miter; stroke-miterlimit: 4; fill: rgb(47,46,65); fill-rule: nonzero; opacity: 1;" vector-effect="non-scaling-stroke"  transform=" translate(-526, -86.64)" d="M 597.77972 154.67856 C 597.77972 154.67856 562.71002 112.59488 548.68206 116.10185000000001 C 534.6541 119.60882000000002 543.42162 124.86928000000002 543.42162 124.86928000000002 L 508.35188999999997 86.29257000000001 C 508.35188999999997 86.29257000000001 480.29609999999997 75.77165000000001 453.99379999999996 109.08790000000002 C 453.99379999999996 109.08790000000002 438.21243 81.03211000000002 453.99379999999996 65.25073000000002 C 469.77516999999995 49.46935000000002 475.03563999999994 51.22284000000002 478.5426 42.45540000000002 C 482.04956 33.68797000000002 506.59839 26.67402000000002 506.59839 26.67402000000002 C 506.59839 26.67402000000002 505.19006 14.054440000000021 512.9082 20.36423000000002 C 520.62628 26.67402000000002 539.9008799999999 26.67402000000002 539.9008799999999 26.67402000000002 C 539.9008799999999 26.67402000000002 540.0113499999999 19.66007000000002 547.8536999999999 26.67402000000002 C 555.6960499999999 33.68797000000002 564.4634999999998 30.18099000000002 564.4634999999998 30.18099000000002 C 564.4634999999998 30.18099000000002 564.4634999999998 42.31733000000002 570.6007099999998 42.38636000000002 C 576.7379199999998 42.455390000000016 587.2588499999998 33.68796000000002 589.0123299999998 40.70191000000002 C 590.7658099999998 47.71586000000002 603.0402199999997 51.222830000000016 604.7936999999998 72.26467000000002 C 606.5471799999999 93.30651000000003 597.7797199999999 154.67856 597.7797199999999 154.67856 Z" stroke-linecap="round" />
</g>
		<g transform="matrix(1 0 0 1 -3.79 10.11)"  >
<path style="stroke: none; stroke-width: 1; stroke-dasharray: none; stroke-linecap: butt; stroke-dashoffset: 0; stroke-linejoin: miter; stroke-miterlimit: 4; fill: rgb(63,61,86); fill-rule: nonzero; opacity: 1;" vector-effect="non-scaling-stroke"  transform=" translate(-352.97, -317.11)" d="M 328.94202 262.86866 L 385.06354 368.96366 L 377.37057999999996 373.03306 L 321.24906 266.93805999999995 C 320.43444999999997 265.39804999999996 321.02335 263.48639999999995 322.56336 262.67178999999993 L 324.67575999999997 261.55438999999996 C 326.21576999999996 260.73977999999994 328.12742 261.32867999999996 328.94203 262.86868999999996 L 328.94203 262.86866 Z" stroke-linecap="round" />
</g>
		<g transform="matrix(1 0 0 1 45.6 88.75)"  >
<path style="stroke: none; stroke-width: 1; stroke-dasharray: none; stroke-linecap: butt; stroke-dashoffset: 0; stroke-linejoin: miter; stroke-miterlimit: 4; fill: rgb(63,61,86); fill-rule: nonzero; opacity: 1;" vector-effect="non-scaling-stroke"  transform=" translate(-402.36, -395.75)" d="M 422.44043 409.05951 C 408.16222999999997 405.37805 393.22498 411.89658 386.06009 424.78397 C 377.08841 440.92127 366.83893 454.15979 370.27109 422.60828000000004 C 374.04953 387.87345000000005 353.672 359.81894000000005 369.68637 351.34775 C 385.70077000000003 342.87656000000004 402.2366 368.62165000000005 428.26434 391.93134000000003 C 452.38702 413.53495000000004 438.47644 413.19419000000005 422.44046000000003 409.05948 L 422.44043000000005 409.05951 Z" stroke-linecap="round" />
</g>
		<g transform="matrix(1 0 0 1 -40.52 11.18)" id="uuid-cca3ea91-4b8f-4d88-9418-fea0098b5ff4-162"  >
<path style="stroke: none; stroke-width: 1; stroke-dasharray: none; stroke-linecap: butt; stroke-dashoffset: 0; stroke-linejoin: miter; stroke-miterlimit: 4; fill: rgb(255,182,182); fill-rule: nonzero; opacity: 1;" vector-effect="non-scaling-stroke"  transform=" translate(-316.24, -318.18)" d="M 339.79602 284.33167 C 355.98151 276.94144 372.91434 279.30233999999996 377.61581 289.60364 C 382.31732 299.90497 373.00753000000003 314.24332 356.81530000000004 321.63403999999997 C 350.38766000000004 324.67503 343.32522000000006 326.13253999999995 336.21886000000006 325.88453 L 267.2448600000001 356.33119 L 253.64707000000007 323.65918999999997 L 323.08684000000005 297.11292999999995 C 327.55590000000007 291.57920999999993 333.28548000000006 287.1964899999999 339.79601 284.33170999999993 L 339.79601 284.33167999999995 Z" stroke-linecap="round" />
</g>
		<g transform="matrix(1 0 0 1 -178.17 -0.82)"  >
<path style="stroke: none; stroke-width: 1; stroke-dasharray: none; stroke-linecap: butt; stroke-dashoffset: 0; stroke-linejoin: miter; stroke-miterlimit: 4; fill: rgb(230,230,230); fill-rule: nonzero; opacity: 1;" vector-effect="non-scaling-stroke"  transform=" translate(-178.6, -306.18)" d="M 61.84531 204.29254 L 61.845259999999996 204.29259 C 47.765359999999994 214.19283 43.7555 233.29969 52.67357 248.0213 C 84.48268 300.53061 153.59416 413.78729 158.07990999999998 414.03277 C 163.91976999999997 414.35238000000004 309.25775 345.1845 309.25775 345.1845 L 296.84200999999996 304.47979000000004 L 187.75380999999996 335.60625000000005 L 108.10575999999996 213.21448000000004 C 97.99447999999995 197.67691000000005 77.00970999999996 193.62970000000004 61.84530999999996 204.29248000000004 C 61.84530999999996 204.29248000000004 61.84530999999996 204.29253000000003 61.84530999999996 204.29253000000003 Z" stroke-linecap="round" />
</g>
		<g transform="matrix(1 0 0 1 99.03 132.96)"  >
<path style="stroke: none; stroke-width: 1; stroke-dasharray: none; stroke-linecap: butt; stroke-dashoffset: 0; stroke-linejoin: miter; stroke-miterlimit: 4; fill: rgb(121,156,240); fill-rule: nonzero; opacity: 1;" vector-effect="non-scaling-stroke"  transform=" translate(-455.8, -439.96)" d="M 346.69339 447.26795 L 533.13104 348.64727999999997 L 556.01751 391.91308999999995 C 575.75964 429.23464999999993 561.48742 475.56310999999994 524.16583 495.30526999999995 L 472.9721 522.3854399999999 C 435.65054000000003 542.1275699999999 389.32205 527.8552899999999 369.57992 490.5337199999999 L 346.69341000000003 447.2679099999999 L 346.69341000000003 447.2679099999999 L 346.69341000000003 447.2679399999999 L 346.69338000000005 447.2679399999999 Z" stroke-linecap="round" />
</g>
		<g transform="matrix(1 0 0 1 171.44 172.71)" id="uuid-f7f7485f-a1d4-48b6-9f93-907c0610bac7-163"  >
<path style="stroke: none; stroke-width: 1; stroke-dasharray: none; stroke-linecap: butt; stroke-dashoffset: 0; stroke-linejoin: miter; stroke-miterlimit: 4; fill: rgb(160,97,106); fill-rule: nonzero; opacity: 1;" vector-effect="non-scaling-stroke"  transform=" translate(-528.2, -479.71)" d="M 504.6488 513.56 C 488.46438 520.9525799999999 471.53125 518.5941799999999 466.82824 508.2935499999999 C 462.12523 497.9929199999999 471.43291999999997 483.6531999999999 487.62408 476.26012999999995 C 494.05127 473.21819999999997 501.11349 471.75966999999997 508.21990999999997 472.0066499999999 L 577.18945 441.5499499999999 L 590.7919899999999 474.2199599999999 L 521.3560799999999 500.7763299999999 C 516.8878199999999 506.3107199999999 511.1588799999999 510.6942699999999 504.6487699999999 513.55999 L 504.6487999999999 513.55999 Z" stroke-linecap="round" />
</g>
		<g transform="matrix(1 0 0 1 268.39 49.86)"  >
<path style="stroke: none; stroke-width: 1; stroke-dasharray: none; stroke-linecap: butt; stroke-dashoffset: 0; stroke-linejoin: miter; stroke-miterlimit: 4; fill: rgb(230,230,230); fill-rule: nonzero; opacity: 1;" vector-effect="non-scaling-stroke"  transform=" translate(-625.16, -356.86)" d="M 644.92218 221.95383 L 644.92224 221.95383 C 662.01495 219.92935 677.75311 231.48183 680.93732 248.39690000000002 C 692.29462 308.7298 716.4166299999999 439.19666 713.23999 442.37329 C 709.10443 446.50888 554.70929 492.0003 554.70929 492.0003 L 536.78845 453.40151 L 638.7995 403.77452999999997 L 616.42712 259.47264999999993 C 613.58697 241.15359999999993 626.5129999999999 224.13422999999995 644.9221799999999 221.95383999999993 L 644.9221799999999 221.95381999999992 Z" stroke-linecap="round" />
</g>
</g>
</g>
</svg>