<?xml version="1.0" encoding="UTF-8" standalone="no" ?>
<!DOCTYPE svg PUBLIC "-//W3C//DTD SVG 1.1//EN" "http://www.w3.org/Graphics/SVG/1.1/DTD/svg11.dtd">
<svg xmlns="http://www.w3.org/2000/svg" xmlns:xlink="http://www.w3.org/1999/xlink" version="1.1" width="1080" height="1080" viewBox="0 0 1080 1080" xml:space="preserve">
<desc>Created with Fabric.js 5.2.4</desc>
<defs>
</defs>
<rect x="0" y="0" width="100%" height="100%" fill="transparent"></rect>
<g transform="matrix(1 0 0 1 540 540)" id="c78d70cc-58bb-40ca-b5ad-d93c00a5ce41"  >
<rect style="stroke: none; stroke-width: 1; stroke-dasharray: none; stroke-linecap: butt; stroke-dashoffset: 0; stroke-linejoin: miter; stroke-miterlimit: 4; fill: rgb(255,255,255); fill-rule: nonzero; opacity: 1; visibility: hidden;" vector-effect="non-scaling-stroke"  x="-540" y="-540" rx="0" ry="0" width="1080" height="1080" />
</g>
<g transform="matrix(1 0 0 1 540 540)" id="f867faaf-edb8-4baf-b1f6-ff7c6cffe10c"  >
</g>
<g transform="matrix(1 0 0 1 540 540)"  >
<g style="opacity: 0.5;" vector-effect="non-scaling-stroke"   >
		<g transform="matrix(1 0 0 1 -295 185)"  >
<path style="stroke: none; stroke-width: 1; stroke-dasharray: none; stroke-linecap: butt; stroke-dashoffset: 0; stroke-linejoin: miter; stroke-miterlimit: 4; fill: rgb(241,241,241); fill-rule: nonzero; opacity: 1;" vector-effect="non-scaling-stroke"  transform=" translate(-305, -635)" d="M 294.7164 621.20348 C 275.20556 635.74784 269.67597 661.33813 269.67597 661.33813 C 269.67597 661.33813 295.77966000000004 663.34741 315.2905 648.80302 C 334.80134 634.2586299999999 340.33093 608.66837 340.33093 608.66837 C 340.33093 608.66837 314.22725 606.65916 294.7164 621.20348 Z" stroke-linecap="round" />
</g>
		<g transform="matrix(1 0 0 1 -313.04 171.4)"  >
<path style="stroke: none; stroke-width: 1; stroke-dasharray: none; stroke-linecap: butt; stroke-dashoffset: 0; stroke-linejoin: miter; stroke-miterlimit: 4; fill: rgb(241,241,241); fill-rule: nonzero; opacity: 1;" vector-effect="non-scaling-stroke"  transform=" translate(-286.96, -621.4)" d="M 302.84375 628.03207 C 293.46667 650.48828 269.98197 662.06029 269.98197 662.06029 C 269.98197 662.06029 261.70056 637.22364 271.07765 614.76743 C 280.45474 592.3112199999999 303.93937 580.73921 303.93937 580.73921 C 303.93937 580.73921 312.22084 605.57587 302.84375 628.03207 Z" stroke-linecap="round" />
</g>
		<g transform="matrix(1 0 0 1 261.18 80.36)"  >
<path style="stroke: none; stroke-width: 1; stroke-dasharray: none; stroke-linecap: butt; stroke-dashoffset: 0; stroke-linejoin: miter; stroke-miterlimit: 4; fill: rgb(202,202,202); fill-rule: nonzero; opacity: 1;" vector-effect="non-scaling-stroke"  transform=" translate(-861.18, -530.36)" d="M 864.18723 563.11405 L 864.18723 563.11405 C 862.1142932661891 549.1497456508957 861.5666182818866 535.0013723959892 862.55387 520.9186100000003 L 864.18723 497.61161000000004 L 864.18723 497.61161000000004 C 855.18707 515.5199200000001 857.22108 539.09042 864.18723 563.1140300000001 Z" stroke-linecap="round" />
</g>
		<g transform="matrix(1 0 0 1 269.76 97.52)"  >
<path style="stroke: none; stroke-width: 1; stroke-dasharray: none; stroke-linecap: butt; stroke-dashoffset: 0; stroke-linejoin: miter; stroke-miterlimit: 4; fill: rgb(202,202,202); fill-rule: nonzero; opacity: 1;" vector-effect="non-scaling-stroke"  transform=" translate(-869.76, -547.52)" d="M 871.20535 567.013 L 871.20535 567.013 C 870.2073472262815 558.6801361277222 869.9443734568321 550.2756265654044 870.4194699999999 541.8966700000001 L 871.20535 528.02344 L 871.20535 528.02344 C 866.87509 538.68318 867.85373 552.71319 871.20535 567.013 Z" stroke-linecap="round" />
</g>
		<g transform="matrix(1 0 0 1 268.87 171.6)"  >
<path style="stroke: none; stroke-width: 1; stroke-dasharray: none; stroke-linecap: butt; stroke-dashoffset: 0; stroke-linejoin: miter; stroke-miterlimit: 4; fill: rgb(242,242,242); fill-rule: nonzero; opacity: 1;" vector-effect="non-scaling-stroke"  transform=" translate(-868.87, -621.6)" d="M 902.40062 584.17028 L 902.40062 591.96819 C 902.3939865456495 593.2574307118634 901.3504907118634 594.3009265456495 900.06125 594.3075600000001 L 896.16225 594.3075600000001 C 895.9552094127897 594.3068152280465 895.7564337542648 594.3887322534572 895.610033003861 594.5351330038611 C 895.463632253457 594.6815337542649 895.3817152280463 594.8803094127899 895.3824599999999 595.0873500000001 L 895.3824599999999 659.0302300000001 C 895.3758319607131 660.3194729711879 894.3323329711877 661.3629719607133 893.0430899999999 661.3696000000001 L 845.47587 661.3696000000001 C 844.1842768290023 661.3686183698076 843.137477151296 660.3218231667898 843.13649 659.0302300000001 L 843.13649 595.08735 C 843.1351886507118 594.6572240646428 842.7868259353571 594.3088613492881 842.3566999999999 594.30756 L 837.678 594.30756 C 836.3864130176506 594.3065673492262 835.3396226507738 593.2597769823493 835.33863 591.9681899999999 L 835.33863 584.1702799999999 C 835.3377712140131 583.5495767081045 835.5839637376623 582.9540486665603 836.0228667264744 582.5151438015894 C 836.4617697152863 582.0762389366184 837.0572967044392 581.8300438672999 837.678 581.8308999999999 L 900.0613 581.8308999999999 C 901.3516803370059 581.8347878386472 902.3967652572226 582.8798995637027 902.40062 584.17028 Z" stroke-linecap="round" />
</g>
		<g transform="matrix(1 0 0 1 269.33 147.11)"  >
<rect style="stroke: none; stroke-width: 1; stroke-dasharray: none; stroke-linecap: butt; stroke-dashoffset: 0; stroke-linejoin: miter; stroke-miterlimit: 4; fill: rgb(230,230,230); fill-rule: nonzero; opacity: 1;" vector-effect="non-scaling-stroke"  x="-26.123005" y="-1.169685" rx="0" ry="0" width="52.24601" height="2.33937" />
</g>
		<g transform="matrix(1 0 0 1 268.87 172.69)"  >
<path style="stroke: none; stroke-width: 1; stroke-dasharray: none; stroke-linecap: butt; stroke-dashoffset: 0; stroke-linejoin: miter; stroke-miterlimit: 4; fill: rgb(230,230,230); fill-rule: nonzero; opacity: 1;" vector-effect="non-scaling-stroke"  transform=" translate(-868.87, -622.69)" d="M 895.3825 630.36884 C 877.89979 637.6037 860.22639 637.6834299999999 842.3567 630.36884 L 842.3567 613.88784 C 859.5597919269229 608.1100153442197 878.1794080730772 608.1100153442197 895.3825 613.88784 Z" stroke-linecap="round" />
</g>
		<g transform="matrix(1 0 0 1 2.54 -142.29)" id="fff0188c-9915-4c0d-8339-9317a77083e8"  >
<circle style="stroke: none; stroke-width: 1; stroke-dasharray: none; stroke-linecap: butt; stroke-dashoffset: 0; stroke-linejoin: miter; stroke-miterlimit: 4; fill: rgb(254,184,184); fill-rule: nonzero; opacity: 1;" vector-effect="non-scaling-stroke"  cx="0" cy="0" r="70.6659" />
</g>
		<g transform="matrix(1 0 0 1 0.47 -184.78)" id="ac220ed6-7c3f-4d1e-8d82-3295770c496a-3440"  >
<path style="stroke: none; stroke-width: 1; stroke-dasharray: none; stroke-linecap: butt; stroke-dashoffset: 0; stroke-linejoin: miter; stroke-miterlimit: 4; fill: rgb(47,46,65); fill-rule: nonzero; opacity: 1;" vector-effect="non-scaling-stroke"  transform=" translate(-600.47, -265.22)" d="M 668.54008 246.746 C 657.974979434536 229.58984629963365 641.437152379394 216.94812898367633 622.11008 211.25434000000004 L 613.4346800000001 217.58513000000002 L 613.4346800000001 209.36478000000002 C 608.7931487871846 208.65436859203874 604.095233766584 208.38070100650154 599.4026100000001 208.54737000000003 L 591.9179300000001 215.31957000000003 L 591.9179300000001 209.11 C 569.5138487914642 211.89406228175457 549.2949304900712 223.9205979707939 536.1546500000001 242.27889000000005 C 519.9005800000001 265.71114 517.15682 298.31054 533.14389 321.93080000000003 C 537.532 308.44365000000005 542.8587500000001 295.78887000000003 547.24819 282.30305000000004 C 550.6974064067985 282.7732198632441 554.1933089995424 282.790160252277 557.64692 282.35344000000003 L 562.9859200000001 269.89487 L 564.47769 281.82623 C 581.0274000000001 280.38485000000003 605.5739900000001 277.21881 621.26269 274.31839 L 619.73688 265.16484 L 628.8645700000001 272.77084 C 633.67092 271.6646 636.52498 270.66056000000003 636.2893300000001 269.89358000000004 C 647.9577700000001 288.70477000000005 662.2378000000001 300.71924 673.9049100000001 319.53040000000004 C 678.33663 293.0056 683.43725 270.95065 668.54008 246.746 Z" stroke-linecap="round" />
</g>
		<g transform="matrix(1 0 0 1 6.44 89.07)"  >
<path style="stroke: none; stroke-width: 1; stroke-dasharray: none; stroke-linecap: butt; stroke-dashoffset: 0; stroke-linejoin: miter; stroke-miterlimit: 4; fill: rgb(121,156,240); fill-rule: nonzero; opacity: 1;" vector-effect="non-scaling-stroke"  transform=" translate(-606.44, -539.07)" d="M 754.51974 489.43043 C 752.08974 474.81114 749.5832499999999 459.91122 742.7888499999999 446.7415 C 738.3233299999999 438.11521 731.2349099999999 429.89486 721.6792499999999 428.18919 C 719.7970049656604 428.0213971873004 717.9471585196252 427.59316129736544 716.1826599999999 426.91674 C 713.38281 425.56803 675.7574999999999 404.08941 669.7773099999999 400.34846 C 664.6425999999999 397.13694 656.53708 391.19046 652.4500599999999 391.19046 C 648.3384299999999 391.10008 632.5724099999999 394.76946 571.0363199999999 389.95917 C 571.0363199999999 389.95917 554.1314699999999 396.62235999999996 541.05089 404.70201999999995 C 540.85266 404.57138999999995 477.18188999999995 438.76232999999996 474.78989 438.67235999999997 C 470.25984 438.48161 466.0491 441.38206999999994 463.45214 445.03454999999997 C 460.85584 448.68694 459.63784999999996 453.20854999999995 458.36266 457.58030999999994 C 472.26943 488.55030999999997 484.99346 519.5599199999999 498.90156 550.5299399999999 C 499.5527604145313 551.6964423509427 499.8987267295533 553.0085476088035 499.90735 554.3444799999999 C 499.6278556637224 555.7309088246369 499.0361476568419 557.0354331244208 498.17715 558.1590099999999 C 491.35681 569.1149299999998 491.57367 582.8950099999998 492.3187 595.7718499999999 C 493.06439 608.6487099999998 493.98636 622.2502399999998 488.2317 633.7920399999998 C 486.66647 636.9608199999998 484.63095 639.8612799999999 483.14222 643.0300399999999 C 479.65588 650.2068499999999 478.39598 673.1608999999999 480.43222000000003 680.8716999999999 L 735.55287 688.1803899999999 C 730.06748 673.1021 754.51974 489.43043 754.51974 489.43043 Z" stroke-linecap="round" />
</g>
		<g transform="matrix(1 0 0 1 -84.94 150.68)" id="bb46eb08-8e3e-4ac5-913b-26d221d967b9-3441"  >
<path style="stroke: none; stroke-width: 1; stroke-dasharray: none; stroke-linecap: butt; stroke-dashoffset: 0; stroke-linejoin: miter; stroke-miterlimit: 4; fill: rgb(251,190,190); fill-rule: nonzero; opacity: 1;" vector-effect="non-scaling-stroke"  transform=" translate(-515.06, -600.68)" d="M 436.31023 551.90313 C 435.8011745602727 555.585483952031 435.7499248444108 559.316693685606 436.15765 563.01164 L 439.81417999999996 615.52439 C 440.15748999999994 620.4737700000001 440.49535 625.41092 440.95991 630.34798 C 441.83725 639.92934 443.14783 649.4343700000001 444.77446 658.92576 C 444.8509354458295 661.7317361481789 447.184728331247 663.9460653093995 449.99084999999997 663.87513 C 466.08684999999997 667.28098 482.71696999999995 667.14478 499.14405999999997 666.21698 C 524.21106 664.81789 588.34186 662.17088 592.25995 657.08115 C 596.17804 651.99142 593.89478 643.75884 588.78595 639.6432199999999 C 583.67712 635.5275999999999 499.04729999999995 625.4938999999999 499.04729999999995 625.4938999999999 C 499.87422999999995 618.9410499999999 502.36868999999996 612.76961 504.73506999999995 606.5478999999999 C 508.98555999999996 595.51299 512.95542 584.1156199999999 513.03171 572.2946 C 513.108 560.47358 508.65452 548.0449799999999 498.97101 541.2727799999999 C 491.00541 535.7130799999999 480.74971999999997 534.6817799999999 471.04301 534.9106799999998 C 463.98062999999996 535.1136799999998 451.77815999999996 533.4216099999999 445.32748 536.1831299999999 C 440.22288 538.431 437.26387 546.90479 436.31023 551.90313 Z" stroke-linecap="round" />
</g>
		<g transform="matrix(1 0 0 1 -128.4 52.24)" id="efe93a1e-ccdd-49fd-af5f-e26394aa0937-3442"  >
<path style="stroke: none; stroke-width: 1; stroke-dasharray: none; stroke-linecap: butt; stroke-dashoffset: 0; stroke-linejoin: miter; stroke-miterlimit: 4; fill: rgb(121,156,240); fill-rule: nonzero; opacity: 1;" vector-effect="non-scaling-stroke"  transform=" translate(-471.6, -502.24)" d="M 457.62676 458.523 C 456.3874461066629 459.8207167808941 455.42640774345915 461.3580113236112 454.80262999999997 463.04053000000005 C 444.5174929385048 486.2202450302825 438.44244480129896 511.0463408367358 436.862 536.3561300000001 C 436.88974891027044 537.5903129060322 436.60530809671167 538.8115100225492 436.03507 539.90641 C 435.472721842627 540.634813096126 434.84676386011853 541.3118084281591 434.16458 541.9294100000001 C 432.9633916460003 543.3533797373591 432.3770707741612 545.1961976819936 432.534601340899 547.0524647412396 C 432.69213190763674 548.9087318004857 433.5806098228179 550.6263921673966 435.00458 551.8275800000001 Q 435.17803999999995 551.9738800000001 435.36066999999997 552.1087900000001 C 437.46004 548.1579700000001 442.48566999999997 546.8664800000001 446.95282 546.5232300000001 C 468.34153999999995 544.8312300000001 489.23436999999996 554.7817500000001 510.68714 554.0310700000001 C 509.17359 548.8010700000001 506.99657 543.7753600000001 505.76228 538.4826600000001 C 500.30337999999995 514.9809700000001 513.9186 489.39350000000013 505.57155 466.7568700000001 C 503.90405 462.2270800000001 501.11807 457.7736200000001 496.72861 455.7886900000001 C 494.91100642695517 455.0555632663133 493.0090110698556 454.5521461737449 491.06672000000003 454.2901100000001 C 485.64597000000003 453.3105900000001 474.85489 449.1241100000001 469.61397000000005 450.8038900000001 C 467.67945000000003 451.4278900000001 466.91655000000003 453.2465700000001 465.31307000000004 454.34598000000005 C 462.87722 455.90186 459.64576 456.474 457.62676 458.523 Z" stroke-linecap="round" />
</g>
		<g transform="matrix(1 0 0 1 84.94 149.78)" id="a38c3c09-000b-42b7-8619-0229d8aff5e9-3443"  >
<path style="stroke: none; stroke-width: 1; stroke-dasharray: none; stroke-linecap: butt; stroke-dashoffset: 0; stroke-linejoin: miter; stroke-miterlimit: 4; fill: rgb(251,190,190); fill-rule: nonzero; opacity: 1;" vector-effect="non-scaling-stroke"  transform=" translate(-684.94, -599.78)" d="M 754.67242 536.1831 C 748.22174 533.42158 736.01927 535.11362 728.9568899999999 534.9106499999999 C 719.2502299999999 534.6817299999999 708.9945399999999 535.71305 701.0288899999999 541.27275 C 691.34538 548.04495 686.8918899999999 560.4735499999999 686.9681899999999 572.29457 C 687.04449 584.1155900000001 691.01434 595.51296 695.26483 606.54787 C 697.63121 612.76961 700.12567 618.94105 700.9526 625.49387 C 700.9526 625.49387 616.32272 635.52757 611.21395 639.64319 C 606.1051799999999 643.75881 603.8218999999999 651.99138 607.7399499999999 657.08112 C 611.6579999999999 662.1708600000001 733.9129999999999 667.2809500000001 750.0090499999999 663.87512 C 752.8151716687528 663.9460553093995 755.1489645541704 661.7317261481791 755.2254399999999 658.92575 C 756.8520699999999 649.43436 758.16265 639.9293299999999 759.03999 630.34797 C 759.50455 625.4109100000001 759.84241 620.4737600000001 760.18572 615.5243800000001 L 763.8422499999999 563.0116300000001 C 764.249975155589 559.316683685606 764.1987254397272 555.5854739520311 763.68967 551.9031200000001 C 762.73613 546.90479 759.77712 538.431 754.67242 536.1831 Z" stroke-linecap="round" />
</g>
		<g transform="matrix(1 0 0 1 128.4 52.24)" id="bd3879bf-5d05-49be-b690-c4d97e29a2ab-3444"  >
<path style="stroke: none; stroke-width: 1; stroke-dasharray: none; stroke-linecap: butt; stroke-dashoffset: 0; stroke-linejoin: miter; stroke-miterlimit: 4; fill: rgb(121,156,240); fill-rule: nonzero; opacity: 1;" vector-effect="non-scaling-stroke"  transform=" translate(-728.4, -502.24)" d="M 734.68691 454.346 C 733.08343 453.24659 732.32053 451.42787 730.38601 450.80391000000003 C 725.1450900000001 449.12415000000004 714.35401 453.31061000000005 708.93326 454.29013000000003 C 706.9909689301444 454.55216617374487 705.0889735730449 455.05558326631325 703.27137 455.78871000000004 C 698.8819100000001 457.77364000000006 696.0959300000001 462.22710000000006 694.42843 466.75689000000006 C 686.0813800000001 489.3935200000001 699.6966000000001 514.98099 694.2377 538.4826800000001 C 693.00341 543.77538 690.8263900000001 548.8010800000001 689.31284 554.0310900000001 C 710.76561 554.78177 731.65844 544.83122 753.0471600000001 546.5232500000001 C 757.5142800000001 546.8665000000001 762.5399400000001 548.15799 764.63931 552.1088100000001 Q 764.8218400000001 551.9739900000001 764.9954 551.8276000000001 C 766.4193775046623 550.6264192471685 767.3078649289453 548.9087625027648 767.4654048930588 547.0524952013063 C 767.6229448571725 545.1962278998478 767.0366324864152 543.3534060423148 765.83545 541.92943 C 765.1532661398816 541.3118284281591 764.527308157373 540.6348330961259 763.96496 539.90643 C 763.3947219032884 538.8115300225492 763.1102810897296 537.5903329060321 763.1380300000001 536.35615 C 761.5575780550613 511.0463521998117 755.4825196914634 486.22024934387616 745.1973700000001 463.04053 C 744.5735922565409 461.35801132361115 743.6125538933372 459.82071678089403 742.3732400000001 458.52299999999997 C 740.35424 456.474 737.12278 455.90186 734.68691 454.346 Z" stroke-linecap="round" />
</g>
		<g transform="matrix(1 0 0 1 -18.39 197.31)"  >
<circle style="stroke: none; stroke-width: 1; stroke-dasharray: none; stroke-linecap: butt; stroke-dashoffset: 0; stroke-linejoin: miter; stroke-miterlimit: 4; fill: rgb(251,190,190); fill-rule: nonzero; opacity: 1;" vector-effect="non-scaling-stroke"  cx="0" cy="0" r="19.07275" />
</g>
		<g transform="matrix(1 0 0 1 23.84 197.31)"  >
<circle style="stroke: none; stroke-width: 1; stroke-dasharray: none; stroke-linecap: butt; stroke-dashoffset: 0; stroke-linejoin: miter; stroke-miterlimit: 4; fill: rgb(251,190,190); fill-rule: nonzero; opacity: 1;" vector-effect="non-scaling-stroke"  cx="0" cy="0" r="19.07275" />
</g>
		<g transform="matrix(1 0 0 1 10.56 149.27)"  >
<path style="stroke: none; stroke-width: 1; stroke-dasharray: none; stroke-linecap: butt; stroke-dashoffset: 0; stroke-linejoin: miter; stroke-miterlimit: 4; fill: rgb(63,61,86); fill-rule: nonzero; opacity: 1;" vector-effect="non-scaling-stroke"  transform=" translate(-610.56, -599.27)" d="M 741.57233 690.28819 L 479.54154 690.28819 C 473.17179986810635 690.2809934728899 468.00979638021613 685.1192897032963 468.00223 678.74955 L 468.00223 519.78292 C 468.00979638021613 513.4131802967037 473.17179986810635 508.25147652711007 479.54154 508.24428 L 741.57233 508.24428 C 747.9420662266982 508.25148203650764 753.1040636306471 513.4131841956596 753.11163 519.78292 L 753.11163 678.74955 C 753.1040636306471 685.1192858043404 747.9420662266982 690.2809879634923 741.57233 690.28819 Z" stroke-linecap="round" />
</g>
		<g transform="matrix(1 0 0 1 9.92 149.27)" id="bf1cdf42-3b4f-4239-91c9-f6802a29e918"  >
<circle style="stroke: none; stroke-width: 1; stroke-dasharray: none; stroke-linecap: butt; stroke-dashoffset: 0; stroke-linejoin: miter; stroke-miterlimit: 4; fill: rgb(255,255,255); fill-rule: nonzero; opacity: 1;" vector-effect="non-scaling-stroke"  cx="0" cy="0" r="7.63455" />
</g>
		<g transform="matrix(1 0 0 1 0 224.86)"  >
<polygon style="stroke: none; stroke-width: 1; stroke-dasharray: none; stroke-linecap: butt; stroke-dashoffset: 0; stroke-linejoin: miter; stroke-miterlimit: 4; fill: rgb(241,241,241); fill-rule: nonzero; opacity: 1;" vector-effect="non-scaling-stroke"  points="439.31,-16.64 -439.31,-16.64 -439.31,10.36 -387.35,10.36 -387.35,16.64 387.36,16.64 387.36,10.36 439.31,10.36 439.31,-16.64 " />
</g>
		<g transform="matrix(1 0 0 1 -72.72 -143.74)"  >
<path style="stroke: none; stroke-width: 1; stroke-dasharray: none; stroke-linecap: butt; stroke-dashoffset: 0; stroke-linejoin: miter; stroke-miterlimit: 4; fill: rgb(121,156,240); fill-rule: nonzero; opacity: 1;" vector-effect="non-scaling-stroke"  transform=" translate(-527.28, -306.26)" d="M 537.55552 334.04923 L 537.55552 334.04923 C 526.20092 334.04923 516.99618 324.09679 516.99618 311.81978000000004 L 516.99618 311.81978000000004 L 516.99618 300.705 C 516.99618 288.428 526.20091 278.47555 537.55551 278.47555 L 537.55551 278.47555 L 537.55551 334.04924 Z" stroke-linecap="round" />
</g>
		<g transform="matrix(1 0 0 1 79.06 -143.74)"  >
<path style="stroke: none; stroke-width: 1; stroke-dasharray: none; stroke-linecap: butt; stroke-dashoffset: 0; stroke-linejoin: miter; stroke-miterlimit: 4; fill: rgb(121,156,240); fill-rule: nonzero; opacity: 1;" vector-effect="non-scaling-stroke"  transform=" translate(-679.06, -306.26)" d="M 668.77923 278.47558 L 668.77923 278.47558 C 680.13384 278.47558 689.33858 288.42803 689.33858 300.70500999999996 L 689.33858 311.81978 C 689.33858 324.09677999999997 680.13386 334.04922999999997 668.77923 334.04922999999997 L 668.77923 334.04922999999997 L 668.77923 278.47558 Z" stroke-linecap="round" />
</g>
		<g transform="matrix(1 0 0 1 1.26 -189.87)"  >
<path style="stroke: none; stroke-width: 1; stroke-dasharray: none; stroke-linecap: butt; stroke-dashoffset: 0; stroke-linejoin: miter; stroke-miterlimit: 4; fill: rgb(121,156,240); fill-rule: nonzero; opacity: 1;" vector-effect="non-scaling-stroke"  transform=" translate(-601.26, -260.13)" d="M 679.55259 302.45164 L 676.2905900000001 302.45164 C 676.2905900000001 257.72164 642.63421 221.33095 601.2645900000001 221.33095 C 559.8952000000002 221.33095 526.2385400000001 257.72165 526.2385400000001 302.45164 L 522.9765400000001 302.45164 C 522.9765400000001 255.77674 558.0964200000001 217.80398 601.2645400000001 217.80398 C 644.433 217.804 679.55259 255.77677 679.55259 302.45164 Z" stroke-linecap="round" />
</g>
</g>
</g>
</svg>