<?xml version="1.0" encoding="UTF-8" standalone="no" ?>
<!DOCTYPE svg PUBLIC "-//W3C//DTD SVG 1.1//EN" "http://www.w3.org/Graphics/SVG/1.1/DTD/svg11.dtd">
<svg xmlns="http://www.w3.org/2000/svg" xmlns:xlink="http://www.w3.org/1999/xlink" version="1.1" width="1080" height="1080" viewBox="0 0 1080 1080" xml:space="preserve">
<desc>Created with Fabric.js 5.2.4</desc>
<defs>
</defs>
<g transform="matrix(1 0 0 1 540 540)" id="c78d70cc-58bb-40ca-b5ad-d93c00a5ce41"  >
<rect style="stroke: none; stroke-width: 1; stroke-dasharray: none; stroke-linecap: butt; stroke-dashoffset: 0; stroke-linejoin: miter; stroke-miterlimit: 4; fill: rgb(255,255,255); fill-rule: nonzero; opacity: 1; visibility: hidden;" vector-effect="non-scaling-stroke"  x="-540" y="-540" rx="0" ry="0" width="1080" height="1080" />
</g>
<g transform="matrix(1 0 0 1 540 540)" id="f867faaf-edb8-4baf-b1f6-ff7c6cffe10c"  >
</g>
<g transform="matrix(1 0 0 1 540 540)"  >
<g style="opacity: 0.5;" vector-effect="non-scaling-stroke"   >
		<g transform="matrix(1 0 0 1 203.74 44.03)"  >
<path style="stroke: none; stroke-width: 1; stroke-dasharray: none; stroke-linecap: butt; stroke-dashoffset: 0; stroke-linejoin: miter; stroke-miterlimit: 4; fill: rgb(63,61,86); fill-rule: nonzero; opacity: 1;" vector-effect="non-scaling-stroke"  transform=" translate(-571.64, -267.57)" d="M 582.01001 304.39564 L 562.7700199999999 304.39564 L 562.7000099999999 304.32563 C 559.2800299999999 300.69563 557.7399899999999 295.58564 558.5900199999999 290.67564 C 558.8600399999999 289.08564 559.3700499999999 287.54564 560.1100399999999 286.09565 L 565.9600199999999 274.64563999999996 L 563.6400099999998 233.63564999999994 C 563.6000299999998 232.87565999999995 563.8599799999998 232.15564999999995 564.3799999999999 231.59565999999995 C 564.9000199999999 231.04565999999994 565.6099799999998 230.73565999999994 566.3699899999999 230.73565999999994 L 569.9699699999999 230.73565999999994 C 571.4499499999998 230.73565999999994 572.6499599999999 231.89565999999994 572.7099599999999 233.36565999999993 L 574.2799699999999 273.89566999999994 L 582.3799499999999 286.55566999999996 C 583.06995 287.63566 583.6299499999999 288.78567999999996 584.0299699999999 289.97567999999995 C 585.6199999999999 294.58566999999994 585.0399799999999 299.59567999999996 582.42999 303.71566999999993 L 582.42999 303.71566999999993 L 582 304.3856799999999 L 582.01001 304.3856799999999 L 582.01001 304.3956299999999 Z" stroke-linecap="round" />
</g>
		<g transform="matrix(1 0 0 1 203.73 72.23)"  >
<path style="stroke: none; stroke-width: 1; stroke-dasharray: none; stroke-linecap: butt; stroke-dashoffset: 0; stroke-linejoin: miter; stroke-miterlimit: 4; fill: rgb(121,156,240); fill-rule: nonzero; opacity: 1;" vector-effect="non-scaling-stroke"  transform=" translate(-571.63, -295.76)" d="M 580.34998 301.55564 L 580.34998 301.55564 C 580.16999 301.84565 579.84998 302.01563 579.50995 302.01563 L 564.86994 302.01563 C 564.58991 302.01563 564.3099400000001 301.89563 564.12995 301.68564 C 561.65998 298.87564 560.5699500000001 295.18564 560.99995 291.59564 C 561.04994 291.20563 561.33998 290.87564 561.71992 290.77563 C 564.77992 289.96563 568.46992 289.50563999999997 572.43989 289.50563999999997 C 575.54988 289.50563999999997 578.47987 289.79564999999997 581.0799 290.30562999999995 C 581.43989 290.37564 581.72992 290.63561999999996 581.8299 290.9856199999999 C 582.86988 294.50560999999993 582.3798899999999 298.3656199999999 580.35993 301.55562999999995 L 580.34998 301.55562999999995 Z" stroke-linecap="round" />
</g>
		<g transform="matrix(1 0 0 1 0 88.53)"  >
<path style="stroke: none; stroke-width: 1; stroke-dasharray: none; stroke-linecap: butt; stroke-dashoffset: 0; stroke-linejoin: miter; stroke-miterlimit: 4; fill: rgb(63,61,86); fill-rule: nonzero; opacity: 1;" vector-effect="non-scaling-stroke"  transform=" translate(-367.9, -312.07)" d="M 734.79999 313.06565 L 1 313.06565 C 0.44999999999999996 313.06565 0 312.61564 0 312.06565 C 0 311.51566 0.45 311.06565 1 311.06565 L 734.79999 311.06565 C 735.34998 311.06565 735.79999 311.51566 735.79999 312.06565 C 735.79999 312.61564 735.34998 313.06565 734.79999 313.06565 Z" stroke-linecap="round" />
</g>
		<g transform="matrix(1 0 0 1 -128.33 -100.69)" id="uuid-4d78f6fa-6618-4aff-a06a-080a1d9c45db-4853"  >
<path style="stroke: none; stroke-width: 1; stroke-dasharray: none; stroke-linecap: butt; stroke-dashoffset: 0; stroke-linejoin: miter; stroke-miterlimit: 4; fill: rgb(160,97,106); fill-rule: nonzero; opacity: 1;" vector-effect="non-scaling-stroke"  transform=" translate(-239.57, -122.85)" d="M 215.45 127.32564 C 204.7 124.10564000000001 197.64 115.94564000000001 199.69001 109.10564000000001 C 201.74001 102.26564 212.12 99.32564 222.87 102.54564 C 227.18 103.77564000000001 231.14000000000001 106.01564 234.40999 109.08564000000001 L 279.79999 123.29564000000002 L 272.67999 144.45564000000002 L 228.68998 128.19565000000003 C 224.26998 128.96565000000004 219.72996999999998 128.66565000000003 215.44996999999998 127.31565000000003 L 215.44996999999998 127.31565000000003 L 215.44998999999999 127.32564000000004 Z" stroke-linecap="round" />
</g>
		<g transform="matrix(1 0 0 1 -41.71 -82.76)"  >
<path style="stroke: none; stroke-width: 1; stroke-dasharray: none; stroke-linecap: butt; stroke-dashoffset: 0; stroke-linejoin: miter; stroke-miterlimit: 4; fill: rgb(230,230,230); fill-rule: nonzero; opacity: 1;" vector-effect="non-scaling-stroke"  transform=" translate(-326.19, -140.78)" d="M 416.79999 132.88564 L 417.34997999999996 170.25564 C 417.34997999999996 170.25564 370.36996999999997 169.63564 353.92999999999995 170.92564 C 337.48999999999995 172.22564 235.03999999999996 134.72564 235.03999999999996 134.72564 L 252.05999999999997 110.59564 L 365.07998999999995 137.87565 L 416.79999 132.87565 L 416.79999 132.87565 L 416.79999 132.88564 Z" stroke-linecap="round" />
</g>
		<g transform="matrix(1 0 0 1 -152.6 -93.97)"  >
<rect style="stroke: none; stroke-width: 1; stroke-dasharray: none; stroke-linecap: butt; stroke-dashoffset: 0; stroke-linejoin: miter; stroke-miterlimit: 4; fill: rgb(121,156,240); fill-rule: nonzero; opacity: 1;" vector-effect="non-scaling-stroke"  x="-3.5" y="-47.500005" rx="0" ry="0" width="7" height="95.00001" />
</g>
		<g transform="matrix(1 0 0 1 -145.66 11.04)"  >
<path style="stroke: none; stroke-width: 1; stroke-dasharray: none; stroke-linecap: butt; stroke-dashoffset: 0; stroke-linejoin: miter; stroke-miterlimit: 4; fill: rgb(63,61,86); fill-rule: nonzero; opacity: 1;" vector-effect="non-scaling-stroke"  transform=" translate(-222.24, -234.58)" d="M 244.07001 312.06565 L 203.57999999999998 312.06565 L 203.43000999999998 311.90565 C 196.23001 304.25566 192.99000999999998 293.51567 194.77000999999998 283.17564 C 195.34001999999998 279.83564 196.41000999999997 276.59565 197.97000999999997 273.54564 L 210.29001999999997 249.45564 L 205.40001999999998 163.15564 C 205.31001999999998 161.55563 205.87001999999998 160.03564 206.97002999999998 158.87564 C 208.07003999999998 157.71564 209.56002999999998 157.07564 211.16002999999998 157.07564 L 218.73003999999997 157.07564 C 221.84004 157.07564 224.38002999999998 159.50563 224.50003999999998 162.61562999999998 L 227.79002999999997 247.91562999999996 L 244.85002999999998 274.55564 C 246.31004 276.83563999999996 247.48002999999997 279.25565 248.33002999999997 281.75565 C 251.67002999999997 291.45566 250.45002999999997 301.99564 244.97002999999995 310.66565 L 244.97002999999995 310.66565 L 244.07003999999995 312.07565000000005 L 244.07003999999995 312.07565000000005 L 244.07001999999994 312.06564000000003 Z" stroke-linecap="round" />
</g>
		<g transform="matrix(1 0 0 1 -145.67 70.37)"  >
<path style="stroke: none; stroke-width: 1; stroke-dasharray: none; stroke-linecap: butt; stroke-dashoffset: 0; stroke-linejoin: miter; stroke-miterlimit: 4; fill: rgb(121,156,240); fill-rule: nonzero; opacity: 1;" vector-effect="non-scaling-stroke"  transform=" translate(-222.23, -293.91)" d="M 240.59 306.09565 L 240.59 306.09565 C 240.21 306.69566 239.54 307.06565 238.82 307.06565 L 208.00001 307.06565 C 207.41001 307.06565 206.83001000000002 306.81565 206.44001 306.37565 C 201.24001 300.45564 198.95 292.70564 199.85001 285.14564 C 199.95002 284.31565 200.56002 283.63563 201.37001 283.42564 C 207.8 281.72562999999997 215.57001 280.74565 223.93001 280.74565 C 230.47 280.74565 236.65001 281.35564 242.11002000000002 282.42564 C 242.86002000000002 282.57563 243.48002000000002 283.11564 243.69002000000003 283.84565 C 245.87001000000004 291.24564 244.84001000000004 299.37564999999995 240.59001000000004 306.09565 L 240.58999000000003 306.09565 Z" stroke-linecap="round" />
</g>
		<g transform="matrix(1 0 0 1 0.9 -123.97)"  >
<polygon style="stroke: none; stroke-width: 1; stroke-dasharray: none; stroke-linecap: butt; stroke-dashoffset: 0; stroke-linejoin: miter; stroke-miterlimit: 4; fill: rgb(160,97,106); fill-rule: nonzero; opacity: 1;" vector-effect="non-scaling-stroke"  points="18,-19.5 24,21.5 -24,26.5 -21,-26.5 18,-19.5 " />
</g>
		<g transform="matrix(1 0 0 1 -26.73 -163.63)"  >
<circle style="stroke: none; stroke-width: 1; stroke-dasharray: none; stroke-linecap: butt; stroke-dashoffset: 0; stroke-linejoin: miter; stroke-miterlimit: 4; fill: rgb(160,97,106); fill-rule: nonzero; opacity: 1;" vector-effect="non-scaling-stroke"  cx="0" cy="0" r="32.37" />
</g>
		<g transform="matrix(1 0 0 1 -117.71 10.86)" id="uuid-01223ad5-4ac1-4a04-9d1d-d35e7b8f8b6b-4854"  >
<path style="stroke: none; stroke-width: 1; stroke-dasharray: none; stroke-linecap: butt; stroke-dashoffset: 0; stroke-linejoin: miter; stroke-miterlimit: 4; fill: rgb(160,97,106); fill-rule: nonzero; opacity: 1;" vector-effect="non-scaling-stroke"  transform=" translate(-250.19, -234.4)" d="M 240.31 206.77564 C 231.15 198.55564 219.37 196.70563 213.98999 202.64564000000001 C 208.60998 208.58565000000002 211.66998 220.06564000000003 220.82999 228.28564 C 224.43999000000002 231.62564 228.82000000000002 234.02565 233.60999 235.29563 L 272.85999000000004 269.62565 L 289.04999000000004 250.51565 L 248.63999000000004 218.70565 C 246.88000000000005 214.09564999999998 244.01999000000004 210.00565 240.30999000000003 206.77563999999998 L 240.31001000000003 206.77563999999998 Z" stroke-linecap="round" />
</g>
		<g transform="matrix(1 0 0 1 -4.1 54.53)"  >
<path style="stroke: none; stroke-width: 1; stroke-dasharray: none; stroke-linecap: butt; stroke-dashoffset: 0; stroke-linejoin: miter; stroke-miterlimit: 4; fill: rgb(230,230,230); fill-rule: nonzero; opacity: 1;" vector-effect="non-scaling-stroke"  transform=" translate(-363.8, -278.07)" d="M 347.79999 116.06564 L 396.79999 109.06564 L 425.79999 131.06565 L 428.79999 252.06565 L 456.79999 445.06565 L 270.79999 447.06565 C 270.79999 447.06565 284.79999 322.06565 291.79999 315.06565 C 298.79999 308.06565 303.79999 276.06565 303.79999 276.06565 L 317.79999 138.06565 C 317.79999 138.06565 347.79999 116.06565 347.79999 116.06564 Z" stroke-linecap="round" />
</g>
		<g transform="matrix(1 0 0 1 -83.52 -8.65)"  >
<path style="stroke: none; stroke-width: 1; stroke-dasharray: none; stroke-linecap: butt; stroke-dashoffset: 0; stroke-linejoin: miter; stroke-miterlimit: 4; fill: rgb(230,230,230); fill-rule: nonzero; opacity: 1;" vector-effect="non-scaling-stroke"  transform=" translate(-284.38, -214.89)" d="M 329.29999 137.56565 C 329.29999 137.56565 303.29999 135.56565 297.29999 153.56565 C 291.29999 171.56565 284.29999 230.56565 284.29999 230.56565 L 268.29999 232.56565 L 254.29998999999998 217.56565 L 239.29998999999998 253.56565 C 239.29998999999998 253.56565 292.29999 311.56565 312.29999 285.56565 C 332.29999 259.56565 329.29999 137.56565 329.29999 137.56565 Z" stroke-linecap="round" />
</g>
		<g transform="matrix(1 0 0 1 3.27 -146.25)"  >
<path style="stroke: none; stroke-width: 1; stroke-dasharray: none; stroke-linecap: butt; stroke-dashoffset: 0; stroke-linejoin: miter; stroke-miterlimit: 4; fill: rgb(47,46,65); fill-rule: nonzero; opacity: 1;" vector-effect="non-scaling-stroke"  transform=" translate(-371.17, -77.28)" d="M 396.29999 76.61565 C 396.29999 76.61565 396.29999 44.565650000000005 399.29999 34.565650000000005 C 402.29999 24.565650000000005 385.29999 13.565650000000005 380.29999 3.565650000000005 C 375.29999 -6.434349999999995 344.29999 7.565650000000005 331.29999 9.565650000000005 C 318.29999 11.565650000000005 319.29999 19.565650000000005 311.29999 32.565650000000005 C 303.29999 45.565650000000005 319.29999 65.56565 331.29999 67.56565 C 343.29999 69.56565 339.29999 78.56565 347.53 88.56565 C 355.76000999999997 98.56565 382.05999999999995 88.56565 382.05999999999995 88.56565 L 385.2999899999999 93.56565 C 385.2999899999999 93.56565 378.2999899999999 121.56565 391.2999899999999 145.56565 L 425.2999899999999 154.56565 C 415.2999899999999 124.56565 426.2999899999999 124.56565 432.56997999999993 109.06565 C 438.83996999999994 93.56565 396.2999899999999 76.61565 396.2999899999999 76.61565 Z" stroke-linecap="round" />
</g>
		<g transform="matrix(1 0 0 1 204.09 64.91)"  >
<path style="stroke: none; stroke-width: 1; stroke-dasharray: none; stroke-linecap: butt; stroke-dashoffset: 0; stroke-linejoin: miter; stroke-miterlimit: 4; fill: rgb(242,242,242); fill-rule: nonzero; opacity: 1;" vector-effect="non-scaling-stroke"  transform=" translate(-571.99, -288.45)" d="M 634.10999 303.38566 L 616.28998 303.38566 L 616.28998 273.50566 L 634.10999 273.50566 C 636.14002 273.50566 637.7699600000001 271.85567 637.7699600000001 269.82567 C 637.7699600000001 267.79567000000003 636.1299500000001 266.17568 634.10999 266.16567 L 509.87 266.16567 C 507.84000000000003 266.16567 506.21 267.81566 506.21 269.84565999999995 C 506.21 271.8756599999999 507.85001 273.49564999999996 509.87 273.50566 L 525.07001 273.50566 L 525.07001 303.38566 L 509.87 303.38566 C 507.84000000000003 303.38566 506.21 305.03565 506.21 307.06564999999995 C 506.21 309.0956499999999 507.85001 310.71563999999995 509.87 310.72565 L 634.10999 310.72565 C 636.14002 310.72565 637.7699600000001 309.07565999999997 637.7699600000001 307.04566 C 637.7699600000001 305.01566 636.1299500000001 303.39567 634.10999 303.38566 L 634.10999 303.38566 Z M 532.40998 303.38566 L 540.78998 281.06564999999995 L 608.94 273.50564999999995 L 608.94 303.38564999999994 L 532.40997 303.38564999999994 Z" stroke-linecap="round" />
</g>
</g>
</g>
</svg>