<?xml version="1.0" encoding="UTF-8" standalone="no" ?>
<!DOCTYPE svg PUBLIC "-//W3C//DTD SVG 1.1//EN" "http://www.w3.org/Graphics/SVG/1.1/DTD/svg11.dtd">
<svg xmlns="http://www.w3.org/2000/svg" xmlns:xlink="http://www.w3.org/1999/xlink" version="1.1" width="1080" height="1080" viewBox="0 0 1080 1080" xml:space="preserve">
<desc>Created with Fabric.js 5.2.4</desc>
<defs>
</defs>
<rect x="0" y="0" width="100%" height="100%" fill="transparent"></rect>
<g transform="matrix(1 0 0 1 540 540)" id="3ae4dad6-f8d4-4165-97f8-a6310f995689"  >
</g>
<g transform="matrix(1 0 0 1 540 540)" id="80312cd8-e4dd-48b3-a701-a391eb6a1bd6"  >
<rect style="stroke: none; stroke-width: 1; stroke-dasharray: none; stroke-linecap: butt; stroke-dashoffset: 0; stroke-linejoin: miter; stroke-miterlimit: 4; fill: rgb(255,255,255); fill-rule: nonzero; opacity: 1;" vector-effect="non-scaling-stroke"  x="-540" y="-540" rx="0" ry="0" width="1080" height="1080" />
</g>
<g transform="matrix(1 0 0 1 540 540)"  >
<g style="opacity: 0.5;" vector-effect="non-scaling-stroke"   >
		<g transform="matrix(1 0 0 1 -2.77 -23.61)" id="uuid-2dbd2d67-52d2-45fe-b410-d6387c9b42a0-222"  >
<path style="stroke: none; stroke-width: 1; stroke-dasharray: none; stroke-linecap: butt; stroke-dashoffset: 0; stroke-linejoin: miter; stroke-miterlimit: 4; fill: rgb(255,175,175); fill-rule: nonzero; opacity: 1;" vector-effect="non-scaling-stroke"  transform=" translate(-258.75, -222.67)" d="M 246.34712 214.19614 C 243.7078 208.36561 244.70094 202.26136000000002 248.56491 200.56219000000002 C 252.42888 198.86301 257.69956 202.21220000000002 260.33901 208.04517 C 261.42663999999996 210.36057000000002 261.92089999999996 212.90547 261.78042999999997 215.46697 L 272.63849999999996 240.31408 L 260.39230999999995 245.22977 L 250.98833999999997 220.21303 C 248.96012999999996 218.60469 247.36863999999997 216.54149 246.34712999999996 214.19615000000002 Z" stroke-linecap="round" />
</g>
		<g transform="matrix(1 0 0 1 30.46 2.56)"  >
<path style="stroke: none; stroke-width: 1; stroke-dasharray: none; stroke-linecap: butt; stroke-dashoffset: 0; stroke-linejoin: miter; stroke-miterlimit: 4; fill: rgb(121,156,240); fill-rule: nonzero; opacity: 1;" vector-effect="non-scaling-stroke"  transform=" translate(-291.99, -248.85)" d="M 321.38706 224.74626 L 321.38708 224.74628 C 328.00684 230.98839 327.59222 241.63834000000003 320.5072 247.3469 L 285.81156 275.3019 C 282.02495 278.35285 276.40522 277.27488999999997 274.01628999999997 273.03932 C 264.89842999999996 258.27795 263.17963 257.4684 257.8803 242.33959999999996 L 272.82462 237.11218999999997 L 281.25074 247.66306999999998 L 299.64752 225.96063999999998 C 305.20749 219.40161999999998 315.13119 218.84727999999998 321.38707 224.74625999999998 Z" stroke-linecap="round" />
</g>
		<g transform="matrix(0 1 -1 0 -128.59 -64.79)"  >
<rect style="stroke: none; stroke-width: 1; stroke-dasharray: none; stroke-linecap: butt; stroke-dashoffset: 0; stroke-linejoin: miter; stroke-miterlimit: 4; fill: rgb(223,223,223); fill-rule: nonzero; opacity: 1;" vector-effect="non-scaling-stroke"  x="-5.5" y="-54.5" rx="0" ry="0" width="11" height="109" />
</g>
		<g transform="matrix(0 1 -1 0 147.41 -64.79)"  >
<rect style="stroke: none; stroke-width: 1; stroke-dasharray: none; stroke-linecap: butt; stroke-dashoffset: 0; stroke-linejoin: miter; stroke-miterlimit: 4; fill: rgb(223,223,223); fill-rule: nonzero; opacity: 1;" vector-effect="non-scaling-stroke"  x="-5.5" y="-54.5" rx="0" ry="0" width="11" height="109" />
</g>
		<g transform="matrix(1 0 0 1 -132.03 -60.78)"  >
<rect style="stroke: none; stroke-width: 1; stroke-dasharray: none; stroke-linecap: butt; stroke-dashoffset: 0; stroke-linejoin: miter; stroke-miterlimit: 4; fill: rgb(63,61,86); fill-rule: nonzero; opacity: 1;" vector-effect="non-scaling-stroke"  x="-22.403845" y="-47.496155" rx="13.08619" ry="13.08619" width="44.80769" height="94.99231" />
</g>
		<g transform="matrix(1 0 0 1 161.91 -60.78)"  >
<rect style="stroke: none; stroke-width: 1; stroke-dasharray: none; stroke-linecap: butt; stroke-dashoffset: 0; stroke-linejoin: miter; stroke-miterlimit: 4; fill: rgb(63,61,86); fill-rule: nonzero; opacity: 1;" vector-effect="non-scaling-stroke"  x="-22.403845" y="-47.496155" rx="13.08619" ry="13.08619" width="44.80769" height="94.99231" />
</g>
		<g transform="matrix(1 0 0 1 13.15 -141.44)"  >
<path style="stroke: none; stroke-width: 1; stroke-dasharray: none; stroke-linecap: butt; stroke-dashoffset: 0; stroke-linejoin: miter; stroke-miterlimit: 4; fill: rgb(223,223,223); fill-rule: nonzero; opacity: 1;" vector-effect="non-scaling-stroke"  transform=" translate(-274.67, -104.85)" d="M 420.93787 209.7 L 136.33792 209.7 C 126.44346999999999 209.7 117.97704999999999 202.63404 116.20706 192.89973999999998 L 105.32325 133.03858999999997 C 100.59 107.00549999999997 110.39737 80.48231999999997 130.92293 63.792329999999964 L 152.38402000000002 17.618529999999964 C 157.35859000000002 6.915439999999965 168.19930000000002 0.000009999999964094286 180.00179000000003 0.000009999999964094286 L 340.31794 0.000009999999964094286 C 348.84059 0.000009999999964094286 357.02893 3.605629999999964 362.78392 9.892709999999964 L 402.21863 52.978979999999964 C 431.06927 72.42043999999996 447.43677 106.04458999999997 444.9404 140.74691999999996 L 441.34594 190.70749999999995 C 440.57975 201.35719999999995 431.61557999999997 209.70000999999996 420.93787 209.70000999999996 Z" stroke-linecap="round" />
</g>
		<g transform="matrix(1 0 0 1 3.34 -210.5)"  >
<path style="stroke: none; stroke-width: 1; stroke-dasharray: none; stroke-linecap: butt; stroke-dashoffset: 0; stroke-linejoin: miter; stroke-miterlimit: 4; fill: rgb(255,255,255); fill-rule: nonzero; opacity: 1;" vector-effect="non-scaling-stroke"  transform=" translate(-264.86, -35.78)" d="M 372.36681 59.59423 L 157.34807999999998 59.59423 C 153.61380999999997 59.59423 150.16790999999998 57.72578 148.13034 54.597120000000004 C 146.09277 51.467580000000005 145.77794 47.56004 147.28844999999998 44.1452 L 158.62185999999997 18.521680000000003 C 160.34677999999997 14.622010000000003 164.21559999999997 12.051690000000004 168.47779999999997 11.973810000000004 L 351.77495 12.196970000000004 C 355.26505 12.174220000000004 358.59783999999996 13.745110000000004 360.71395 16.509710000000005 L 381.10211000000004 41.910070000000005 C 383.66433000000006 45.258390000000006 384.09600000000006 49.68578000000001 382.22887000000003 53.46643 C 380.36174000000005 57.2462 376.58284000000003 59.59423 372.3668 59.59423 Z" stroke-linecap="round" />
</g>
		<g transform="matrix(1 0 0 1 143.09 -137.85)"  >
<circle style="stroke: none; stroke-width: 1; stroke-dasharray: none; stroke-linecap: butt; stroke-dashoffset: 0; stroke-linejoin: miter; stroke-miterlimit: 4; fill: rgb(255,255,255); fill-rule: nonzero; opacity: 1;" vector-effect="non-scaling-stroke"  cx="0" cy="0" r="18.81923" />
</g>
		<g transform="matrix(1 0 0 1 -104.25 -137.85)"  >
<circle style="stroke: none; stroke-width: 1; stroke-dasharray: none; stroke-linecap: butt; stroke-dashoffset: 0; stroke-linejoin: miter; stroke-miterlimit: 4; fill: rgb(255,255,255); fill-rule: nonzero; opacity: 1;" vector-effect="non-scaling-stroke"  cx="0" cy="0" r="18.81923" />
</g>
		<g transform="matrix(1 0 0 1 22.11 -77.36)"  >
<path style="stroke: none; stroke-width: 1; stroke-dasharray: none; stroke-linecap: butt; stroke-dashoffset: 0; stroke-linejoin: miter; stroke-miterlimit: 4; fill: rgb(63,61,86); fill-rule: nonzero; opacity: 1;" vector-effect="non-scaling-stroke"  transform=" translate(-283.63, -168.92)" d="M 386.24145 178.78269 L 181.02221999999998 178.78269 L 181.02221999999998 178.33461 C 181.02221999999998 167.71029 189.66541999999998 159.0673 200.28952999999998 159.0673 L 366.97415 159.0673 C 377.59826 159.0673 386.24146 167.71027999999998 386.24146 178.33461 L 386.24146 178.78269 Z" stroke-linecap="round" />
</g>
		<g transform="matrix(1 0 0 1 -142.44 -192.46)"  >
<path style="stroke: none; stroke-width: 1; stroke-dasharray: none; stroke-linecap: butt; stroke-dashoffset: 0; stroke-linejoin: miter; stroke-miterlimit: 4; fill: rgb(223,223,223); fill-rule: nonzero; opacity: 1;" vector-effect="non-scaling-stroke"  transform=" translate(-119.09, -53.83)" d="M 133.93913 67.73925 C 132.82856 67.73925 131.71581 67.38569 130.78159 66.67157 L 123.26777 60.927080000000004 C 122.5217 60.356480000000005 121.59339 60.042300000000004 120.6537 60.042300000000004 L 104.24485 60.042300000000004 C 102.36743 60.042300000000004 100.68496 59.072630000000004 99.74439 57.447480000000006 C 98.80382 55.82320000000001 98.80032 53.881240000000005 99.73498 52.253460000000004 L 103.74076 45.27501 C 104.54087 43.880900000000004 105.96977 42.921730000000004 107.56342 42.709070000000004 L 128.09313 39.9716 C 130.65185 39.63204 133.03401 41.178430000000006 133.76629 43.649860000000004 L 138.92596 61.06360000000001 C 139.49415 62.98105000000001 138.89839 65.08141 137.40801 66.41602 C 136.42587 67.29467 135.18402999999998 67.73925 133.93912999999998 67.73925 Z" stroke-linecap="round" />
</g>
		<g transform="matrix(1 0 0 1 153.49 -196.04)"  >
<path style="stroke: none; stroke-width: 1; stroke-dasharray: none; stroke-linecap: butt; stroke-dashoffset: 0; stroke-linejoin: miter; stroke-miterlimit: 4; fill: rgb(223,223,223); fill-rule: nonzero; opacity: 1;" vector-effect="non-scaling-stroke"  transform=" translate(-415.02, -50.25)" d="M 400.16684 64.15464 C 398.92194 64.15464 397.68032 63.71006 396.69795999999997 62.83141 C 395.20779999999996 61.496809999999996 394.61204 59.39645 395.18001 57.478989999999996 L 400.33968 40.06524999999999 C 401.07196 37.59207999999999 403.45806 36.04042999999999 406.01284 36.38786999999999 L 426.54276999999996 39.12445999999999 C 428.1362 39.33711999999999 429.5651 40.29628999999999 430.36520999999993 41.69039999999999 L 434.37098999999995 48.66884999999999 C 435.30564999999996 50.29662999999999 435.3021499999999 52.238589999999995 434.36157999999995 53.862869999999994 C 433.42100999999997 55.48801999999999 431.73853999999994 56.45768999999999 429.86111999999997 56.45768999999999 L 413.45227 56.45768999999999 C 412.51258 56.45768999999999 411.58426 56.77186999999999 410.8382 57.34246999999999 L 403.32437999999996 63.08695999999999 C 402.39037999999994 63.80107999999999 401.27718 64.15463999999999 400.16684 64.15463999999999 Z" stroke-linecap="round" />
</g>
		<g transform="matrix(1 0 0 1 -177.59 13.21)"  >
<rect style="stroke: none; stroke-width: 1; stroke-dasharray: none; stroke-linecap: butt; stroke-dashoffset: 0; stroke-linejoin: miter; stroke-miterlimit: 4; fill: rgb(223,223,223); fill-rule: nonzero; opacity: 1;" vector-effect="non-scaling-stroke"  x="-5.5" y="-225.5" rx="0" ry="0" width="11" height="451" />
</g>
		<g transform="matrix(1 0 0 1 202.41 13.21)"  >
<rect style="stroke: none; stroke-width: 1; stroke-dasharray: none; stroke-linecap: butt; stroke-dashoffset: 0; stroke-linejoin: miter; stroke-miterlimit: 4; fill: rgb(223,223,223); fill-rule: nonzero; opacity: 1;" vector-effect="non-scaling-stroke"  x="-5.5" y="-225.5" rx="0" ry="0" width="11" height="451" />
</g>
		<g transform="matrix(1 0 0 1 0 239.15)"  >
<path style="stroke: none; stroke-width: 1; stroke-dasharray: none; stroke-linecap: butt; stroke-dashoffset: 0; stroke-linejoin: miter; stroke-miterlimit: 4; fill: rgb(63,61,86); fill-rule: nonzero; opacity: 1;" vector-effect="non-scaling-stroke"  transform=" translate(-261.52, -485.44)" d="M 0 485.4387 C 0 485.78154 0.27531 486.05681999999996 0.61815 486.05681999999996 L 522.43023 486.05681999999996 C 522.77304 486.05681999999996 523.04835 485.78153999999995 523.04835 485.4387 C 523.04835 485.09589 522.77304 484.82058 522.43023 484.82058 L 0.61815 484.82058 C 0.27531 484.82058 0 485.09589 0 485.4387 Z" stroke-linecap="round" />
</g>
		<g transform="matrix(1 0 0 1 90.74 215.5)"  >
<polygon style="stroke: none; stroke-width: 1; stroke-dasharray: none; stroke-linecap: butt; stroke-dashoffset: 0; stroke-linejoin: miter; stroke-miterlimit: 4; fill: rgb(255,175,175); fill-rule: nonzero; opacity: 1;" vector-effect="non-scaling-stroke"  points="-7.72,-10.46 -7.72,9.96 7.72,10.46 7.08,-10.46 -7.72,-10.46 " />
</g>
		<g transform="matrix(1 0 0 1 78.8 231.1)"  >
<path style="stroke: none; stroke-width: 1; stroke-dasharray: none; stroke-linecap: butt; stroke-dashoffset: 0; stroke-linejoin: miter; stroke-miterlimit: 4; fill: rgb(47,46,65); fill-rule: nonzero; opacity: 1;" vector-effect="non-scaling-stroke"  transform=" translate(-340.33, -477.38)" d="M 341.48371 462.69029 C 341.27497 462.69029 341.07061 462.71705000000003 340.87208999999996 462.77349 C 338.08453999999995 463.57 321.94893999999994 477.97585 317.07012 482.37199999999996 C 316.46725999999995 482.91500999999994 316.14709999999997 483.69059999999996 316.19138 484.49976999999996 C 316.23517 485.30553 316.6361 486.03781 317.29053999999996 486.50881 C 320.99089999999995 489.17375 328.57115 493.38937999999996 337.76876 491.6859 C 341.99948 490.90204 346.26912 490.40914 350.03612999999996 489.97464 C 358.10051999999996 489.04335000000003 364.47018999999995 488.30814000000004 364.47018999999995 485.45344 C 364.47018999999995 480.60965 363.13795999999996 467.84354 361.46610999999996 467.30734 C 361.31429999999995 467.26112 361.13865 467.37838 360.93623999999994 467.66156 C 358.37834999999995 471.24222000000003 349.59236999999996 469.33682 349.2196599999999 469.25459 L 349.1218599999999 469.23269 L 349.0663899999999 469.14949 C 349.0206499999999 469.08088000000004 344.7188999999999 462.69029 341.4836999999999 462.69029 Z" stroke-linecap="round" />
</g>
		<g transform="matrix(1 0 0 1 61.84 215.5)"  >
<polygon style="stroke: none; stroke-width: 1; stroke-dasharray: none; stroke-linecap: butt; stroke-dashoffset: 0; stroke-linejoin: miter; stroke-miterlimit: 4; fill: rgb(255,175,175); fill-rule: nonzero; opacity: 1;" vector-effect="non-scaling-stroke"  points="-7.72,-10.46 -7.72,9.96 7.72,10.46 7.08,-10.46 -7.72,-10.46 " />
</g>
		<g transform="matrix(1 0 0 1 66.2 134.91)"  >
<polygon style="stroke: none; stroke-width: 1; stroke-dasharray: none; stroke-linecap: butt; stroke-dashoffset: 0; stroke-linejoin: miter; stroke-miterlimit: 4; fill: rgb(47,46,65); fill-rule: nonzero; opacity: 1;" vector-effect="non-scaling-stroke"  points="-18.31,-76.11 -26.53,-69.88 -28.03,0.37 -14.08,77.1 4.11,77.85 4.61,4.61 28.03,-62.16 23.29,-77.85 -18.31,-76.11 " />
</g>
		<g transform="matrix(1 0 0 1 82.77 141.39)"  >
<polygon style="stroke: none; stroke-width: 1; stroke-dasharray: none; stroke-linecap: butt; stroke-dashoffset: 0; stroke-linejoin: miter; stroke-miterlimit: 4; fill: rgb(47,46,65); fill-rule: nonzero; opacity: 1;" vector-effect="non-scaling-stroke"  points="3.49,-70.63 11.46,-68.63 17.19,70.63 -3.49,68.88 -17.19,-29.52 3.49,-70.63 " />
</g>
		<g transform="matrix(1 0 0 1 50.06 231.1)"  >
<path style="stroke: none; stroke-width: 1; stroke-dasharray: none; stroke-linecap: butt; stroke-dashoffset: 0; stroke-linejoin: miter; stroke-miterlimit: 4; fill: rgb(47,46,65); fill-rule: nonzero; opacity: 1;" vector-effect="non-scaling-stroke"  transform=" translate(-311.59, -477.38)" d="M 304.61444 492.57438 C 297.52659 492.57438 291.76756 489.44136000000003 288.69196 487.32917000000003 C 287.76261 486.69079000000005 287.18748999999997 485.67776000000003 287.11402 484.54940000000005 C 287.03956999999997 483.41083000000003 287.48332999999997 482.32091 288.33142 481.55797000000007 C 295.9652 474.69054000000006 309.17068 463.0561900000001 311.83659 462.29471000000007 C 315.29172 461.3045400000001 319.92872 467.91215000000005 320.52525 468.78846000000004 C 321.49060000000003 468.98601 329.40027000000003 470.49729 331.63216 467.37157 C 332.05791 466.77601000000004 332.45738 466.74925 332.71964 466.83294 C 335.1048 467.59734000000003 336.07015 482.95199 336.07015 485.45344 C 336.07015 488.75238 329.83088000000004 489.4725 321.19525 490.46948 C 317.43602 490.90349999999995 313.17514 491.39542 308.96096 492.17539 C 307.46719 492.45225 306.01479 492.57438 304.61444 492.57438 Z" stroke-linecap="round" />
</g>
		<g transform="matrix(1 0 0 1 59.92 -21.3)"  >
<polygon style="stroke: none; stroke-width: 1; stroke-dasharray: none; stroke-linecap: butt; stroke-dashoffset: 0; stroke-linejoin: miter; stroke-miterlimit: 4; fill: rgb(255,175,175); fill-rule: nonzero; opacity: 1;" vector-effect="non-scaling-stroke"  points="5.05,-10.9 10.72,0.54 -10.72,10.9 -10.46,-7.43 5.05,-10.9 " />
</g>
		<g transform="matrix(1 0 0 1 49.28 -42.84)"  >
<circle style="stroke: none; stroke-width: 1; stroke-dasharray: none; stroke-linecap: butt; stroke-dashoffset: 0; stroke-linejoin: miter; stroke-miterlimit: 4; fill: rgb(255,175,175); fill-rule: nonzero; opacity: 1;" vector-effect="non-scaling-stroke"  cx="0" cy="0" r="19.30022" />
</g>
		<g transform="matrix(1 0 0 1 67.74 25.77)"  >
<path style="stroke: none; stroke-width: 1; stroke-dasharray: none; stroke-linecap: butt; stroke-dashoffset: 0; stroke-linejoin: miter; stroke-miterlimit: 4; fill: rgb(121,156,240); fill-rule: nonzero; opacity: 1;" vector-effect="non-scaling-stroke"  transform=" translate(-329.26, -272.06)" d="M 310.66888 231.42912 L 330.45856 219.73522000000003 L 330.45856 219.73522000000003 L 330.45858 219.73524000000003 C 344.97306 229.91423000000003 357.05994999999996 232.29560000000004 357.44448 250.01942000000003 L 354.7695 292.29736 L 354.92627 310.5054 C 354.99208 318.14907 348.81396 324.38062 341.16999999999996 324.38062 L 312.91128999999995 324.38062 C 305.43298999999996 324.38062 299.8613399999999 317.48115 301.43593999999996 310.1705 L 306.77091999999993 285.40096 L 301.07388999999995 237.12614 L 310.66887999999994 231.42910999999998 Z" stroke-linecap="round" />
</g>
		<g transform="matrix(1 0 0 1 47.61 -52.93)"  >
<path style="stroke: none; stroke-width: 1; stroke-dasharray: none; stroke-linecap: butt; stroke-dashoffset: 0; stroke-linejoin: miter; stroke-miterlimit: 4; fill: rgb(47,46,65); fill-rule: nonzero; opacity: 1;" vector-effect="non-scaling-stroke"  transform=" translate(-309.14, -193.36)" d="M 330.64672 213.15365 L 327.07839 215.71007 C 327.07839 215.71007 326.02831000000003 204.56821 324.57953000000003 204.07377 C 323.13075000000003 203.57933 321.17602000000005 206.14727 321.17602000000005 206.14727 L 319.74850000000004 210.3301 L 315.02824000000004 208.36255 C 315.02824000000004 208.36255 309.56274 205.41894 307.63103000000007 204.75969 C 305.69932000000006 204.10044000000002 305.9921100000001 198.50294 305.9921100000001 198.50294 C 305.9921100000001 198.50294 282.8024000000001 201.67793 286.2865000000001 188.30927 C 286.2865000000001 188.30927 287.4862400000001 178.4744 290.0541800000001 180.42913 C 292.6221200000001 182.38386 292.65665000000007 177.54307999999997 292.65665000000007 177.54307999999997 L 298.4748000000001 176.29364999999999 C 298.4748000000001 176.29364999999999 306.45855000000006 165.53897999999998 322.20731000000006 174.68792 C 337.95607000000007 183.83686999999998 330.64673000000005 213.15364 330.64673000000005 213.15364 Z" stroke-linecap="round" />
</g>
		<g transform="matrix(1 0 0 1 22.7 30.87)"  >
<path style="stroke: none; stroke-width: 1; stroke-dasharray: none; stroke-linecap: butt; stroke-dashoffset: 0; stroke-linejoin: miter; stroke-miterlimit: 4; fill: rgb(63,61,86); fill-rule: nonzero; opacity: 1;" vector-effect="non-scaling-stroke"  transform=" translate(-284.22, -277.16)" d="M 290.3681 255.87454 L 285.15428 255.08023 C 283.69846 254.85844 282.68869 253.48577 282.91049000000004 252.02989 L 283.54768 247.84743 C 281.65531 249.01684 280.26651000000004 250.97416 279.90522 253.34561 C 279.3478 257.00445 281.41496 260.45009 284.69556 261.79193 L 280.1335 291.73701 C 280.12206000000003 291.81213 280.12454 291.88572 280.12237000000005 291.95992 C 276.5810900000001 292.25424000000004 273.5696300000001 294.93205 273.01099000000005 298.59892 C 272.68354000000005 300.74829 273.26081000000005 302.82635000000005 274.45732000000004 304.44752 L 275.03125000000006 300.68026 C 275.25305000000003 299.22438999999997 276.62577000000005 298.21468 278.08159000000006 298.43647 L 283.29541000000006 299.23078 C 284.7512300000001 299.45257 285.7610000000001 300.82524 285.53920000000005 302.28112 L 284.9020100000001 306.46358 C 286.7943800000001 305.29416999999995 288.18318000000005 303.33684999999997 288.54447000000005 300.9654 C 289.1031100000001 297.29852999999997 287.02568 293.84544 283.73269000000005 292.50994 C 283.75271000000004 292.43845999999996 283.77700000000004 292.36895 283.78844000000004 292.29382999999996 L 288.3505 262.34874999999994 C 291.88185 262.0446999999999 294.88128 259.37093999999996 295.4387 255.71209999999994 C 295.76615 253.56272999999993 295.18888 251.48466999999994 293.99237 249.86349999999993 L 293.41844 253.63075999999992 C 293.19664 255.08662999999993 291.82392 256.09633999999994 290.36809999999997 255.8745499999999 Z" stroke-linecap="round" />
</g>
		<g transform="matrix(1 0 0 1 32.57 31.58)" id="uuid-610469c6-e523-485c-9269-d5059242b223-223"  >
<path style="stroke: none; stroke-width: 1; stroke-dasharray: none; stroke-linecap: butt; stroke-dashoffset: 0; stroke-linejoin: miter; stroke-miterlimit: 4; fill: rgb(255,175,175); fill-rule: nonzero; opacity: 1;" vector-effect="non-scaling-stroke"  transform=" translate(-294.09, -277.87)" d="M 280.65661 281.92954 C 274.3999 280.58241 270.08416 276.15268999999995 271.01706 272.03598999999997 C 271.94996000000003 267.91929999999996 277.77757 265.67519 284.03631 267.02365999999995 C 286.54445000000004 267.52685999999994 288.88408000000004 268.64354999999995 290.85943000000003 270.28030999999993 L 317.29097 276.3342799999999 L 313.95688 289.1020899999999 L 288.25404000000003 281.7784099999999 C 285.75467000000003 282.4518699999999 283.14950000000005 282.50369999999987 280.65661000000006 281.9295299999999 Z" stroke-linecap="round" />
</g>
		<g transform="matrix(1 0 0 1 71.62 14.92)"  >
<path style="stroke: none; stroke-width: 1; stroke-dasharray: none; stroke-linecap: butt; stroke-dashoffset: 0; stroke-linejoin: miter; stroke-miterlimit: 4; fill: rgb(121,156,240); fill-rule: nonzero; opacity: 1;" vector-effect="non-scaling-stroke"  transform=" translate(-333.14, -261.2)" d="M 333.77832 227.88899 L 333.77835 227.88899 C 342.73386 226.28149000000002 351.0476 232.95047 351.42121 242.04143000000002 L 353.25077 286.56022 C 353.45044 291.41891000000004 349.24079 295.29474 344.41507 294.6952 C 327.12567 293.24251 328.34025 295.0133 313.02717 290.2727 L 314.05267000000003 274 L 328.32152 273.78374 L 321.82149000000004 246.08561000000003 C 319.85702000000003 237.71454000000003 325.31509000000005 229.40812000000003 333.77832000000006 227.88899000000004 Z" stroke-linecap="round" />
</g>
</g>
</g>
</svg>